<svg width="192" height="192" viewBox="0 0 192 192" fill="none" xmlns="http://www.w3.org/2000/svg">
<circle cx="96" cy="96" r="96" fill="#E54B4B"/>
<path d="M96.6518 77.4736L102.578 89.4791L115.83 91.4161L106.241 100.756L108.504 113.95L96.6518 107.717L84.7997 113.95L87.0627 100.756L77.4737 91.4161L90.7257 89.4791L96.6518 77.4736Z" fill="#1E1E24"/>
<path d="M100.542 19.2348L97.9822 20.5948V19.9148L100.542 21.2748L99.1622 23.5148L96.8622 22.0948L97.2022 21.8948L97.2622 24.4548H94.5822L94.6422 21.8948L94.9822 22.0948L92.6822 23.5148L91.3222 21.2748L93.8822 19.9148V20.5948L91.3222 19.2348L92.6822 16.9948L94.9822 18.4148L94.6422 18.6148L94.5822 16.0548H97.2622L97.2022 18.6148L96.8622 18.4148L99.1622 16.9948L100.542 19.2348Z" fill="#1E1E24"/>
<path d="M113.897 33.1643L118.955 20.1096L125.24 22.5444C126.458 23.0164 127.432 23.6224 128.16 24.3622C128.901 25.1068 129.37 25.9461 129.566 26.8799C129.766 27.8013 129.672 28.7655 129.282 29.7726C128.891 30.7797 128.312 31.556 127.543 32.1017C126.774 32.6474 125.862 32.952 124.808 33.0155C123.771 33.0714 122.643 32.8633 121.425 32.3913L117.583 30.903L120.271 29.778L118.299 34.8693L113.897 33.1643ZM120.083 30.2629L118.898 27.5088L122.46 28.8888C123.069 29.1248 123.57 29.1614 123.962 28.9987C124.366 28.8407 124.66 28.5255 124.843 28.0531C125.026 27.5806 125.021 27.1498 124.829 26.7607C124.649 26.3764 124.254 26.0663 123.645 25.8302L120.083 24.4503L122.814 23.2134L120.083 30.2629Z" fill="#1E1E24"/>
<path d="M138.387 46.992C137.746 46.4082 137.282 45.7501 136.993 45.0178C136.723 44.2847 136.692 43.5075 136.899 42.6862C137.116 41.8551 137.624 41.0011 138.423 40.1241L142.492 35.6605L145.832 38.7056L142.289 42.5928C141.768 43.1643 141.498 43.6487 141.478 44.046C141.459 44.4433 141.612 44.7901 141.937 45.0866C142.134 45.2662 142.361 45.3831 142.618 45.4373C142.895 45.4906 143.195 45.4484 143.519 45.3107C143.852 45.1632 144.198 44.8924 144.557 44.4982L148.02 40.6997L151.36 43.7448L143.99 51.8296L140.812 48.9327L142.941 46.5974L142.997 47.8124C142.137 48.1825 141.301 48.2777 140.491 48.0981C139.699 47.9177 138.997 47.549 138.387 46.992Z" fill="#1E1E24"/>
<path d="M152.54 64.0297L162.333 59.1533L164.25 63.0025L161.296 64.4734L161.825 63.4278C162.738 63.3458 163.548 63.538 164.257 64.0043C164.966 64.4705 165.549 65.1632 166.007 66.0822L162.426 67.8652C162.361 67.6743 162.298 67.5042 162.239 67.355C162.186 67.2178 162.123 67.0776 162.052 66.9344C161.749 66.3256 161.338 65.9046 160.82 65.6712C160.319 65.4438 159.681 65.5232 158.905 65.9095L154.555 68.0758L152.54 64.0297Z" fill="#1E1E24"/>
<path d="M160.346 90.9054C160.23 89.6574 160.367 88.5267 160.755 87.5132C161.143 86.4998 161.736 85.6749 162.534 85.0385C163.346 84.4142 164.304 84.051 165.406 83.9489C166.508 83.8468 167.509 84.0285 168.409 84.4941C169.31 84.973 170.045 85.6749 170.612 86.5998C171.18 87.5247 171.522 88.6111 171.638 89.8591C171.761 91.1867 171.58 92.3483 171.097 93.3439C170.613 94.3394 169.884 95.0631 168.908 95.5151L166.872 92.1887C167.356 91.9163 167.695 91.6036 167.89 91.2508C168.086 90.9113 168.166 90.549 168.131 90.164C168.1 89.8321 167.991 89.5274 167.805 89.2501C167.62 88.9861 167.36 88.7825 167.025 88.6395C166.705 88.5084 166.306 88.4651 165.828 88.5094C165.35 88.5536 164.959 88.6702 164.655 88.8591C164.353 89.0612 164.135 89.309 164.001 89.6026C163.869 89.9094 163.818 90.2288 163.849 90.5607C163.885 90.9457 164.03 91.2871 164.285 91.5848C164.542 91.8958 164.933 92.1408 165.458 92.3197L164.069 95.9635C163.026 95.6986 162.176 95.1212 161.518 94.2315C160.86 93.3418 160.469 92.2331 160.346 90.9054Z" fill="#1E1E24"/>
<path d="M168.521 117.973C168.291 118.781 167.916 119.464 167.397 120.024C166.89 120.586 166.238 120.955 165.439 121.13C164.637 121.318 163.685 121.255 162.582 120.941L156.58 119.233L157.817 114.886L163.069 116.38C163.723 116.566 164.217 116.582 164.552 116.428C164.9 116.277 165.131 116.003 165.244 115.606C165.328 115.311 165.336 115.015 165.267 114.718C165.209 114.438 165.047 114.177 164.783 113.936C164.515 113.707 164.119 113.518 163.593 113.369L158.649 111.962L159.886 107.614L174.16 111.676L172.923 116.023L166.094 114.08L167.274 113.293C167.952 113.93 168.392 114.651 168.592 115.456C168.789 116.275 168.765 117.114 168.521 117.973Z" fill="#1E1E24"/>
<path d="M146.603 136.072L148.151 137.242L148.759 137.3L151.696 139.517C152.121 139.839 152.546 139.951 152.971 139.853C153.387 139.767 153.816 139.431 154.258 138.846C154.555 138.452 154.793 138.005 154.97 137.504C155.159 137.011 155.255 136.541 155.259 136.093L158.505 136.74C158.439 137.492 158.221 138.288 157.853 139.13C157.485 139.971 157.044 140.732 156.53 141.413C155.397 142.914 154.186 143.82 152.897 144.133C151.6 144.457 150.222 144.068 148.764 142.968L144.072 139.424L146.603 136.072ZM148.312 133.478C148.85 132.765 149.422 132.262 150.029 131.968C150.635 131.674 151.233 131.557 151.822 131.618C152.422 131.686 152.972 131.909 153.472 132.287C154.036 132.713 154.406 133.218 154.583 133.803C154.759 134.387 154.728 135.049 154.488 135.786C154.24 136.535 153.775 137.361 153.092 138.266L151.718 140.085L149.978 138.772L150.918 137.527C151.208 137.144 151.357 136.813 151.366 136.536C151.377 136.278 151.261 136.056 151.016 135.871C150.814 135.718 150.587 135.664 150.336 135.709C150.088 135.772 149.864 135.937 149.663 136.203C149.478 136.447 149.373 136.719 149.348 137.018C149.326 137.335 149.422 137.65 149.637 137.962L148.218 137.618C147.673 136.989 147.41 136.331 147.429 135.643C147.447 134.955 147.741 134.234 148.312 133.478Z" fill="#1E1E24"/>
<path d="M129.85 150.634C130.644 150.143 131.479 149.744 132.355 149.436C133.231 149.129 133.991 148.964 134.636 148.941L135.15 152.128C134.547 152.141 133.91 152.253 133.241 152.463C132.56 152.681 131.942 152.962 131.387 153.306C130.922 153.593 130.635 153.826 130.525 154.004C130.404 154.188 130.386 154.349 130.47 154.485C130.554 154.621 130.71 154.657 130.938 154.595C131.173 154.543 131.46 154.436 131.798 154.274C132.137 154.111 132.513 153.934 132.926 153.74C133.335 153.565 133.764 153.409 134.213 153.273C134.661 153.136 135.108 153.072 135.551 153.079C135.995 153.087 136.419 153.201 136.822 153.422C137.232 153.654 137.602 154.036 137.932 154.569C138.297 155.158 138.451 155.8 138.395 156.494C138.327 157.195 138.029 157.904 137.502 158.623C136.97 159.36 136.183 160.051 135.14 160.697C134.46 161.118 133.741 161.477 132.984 161.773C132.226 162.07 131.523 162.238 130.874 162.279L130.36 159.093C130.997 159.059 131.576 158.943 132.097 158.746C132.614 158.568 133.071 158.355 133.467 158.11C133.955 157.808 134.261 157.555 134.386 157.352C134.5 157.157 134.522 157.002 134.452 156.888C134.368 156.752 134.208 156.71 133.973 156.761C133.739 156.813 133.452 156.92 133.113 157.082C132.775 157.245 132.401 157.413 131.992 157.588C131.578 157.782 131.15 157.937 130.705 158.056C130.257 158.192 129.811 158.257 129.367 158.249C128.923 158.242 128.496 158.122 128.086 157.89C127.682 157.669 127.316 157.292 126.986 156.76C126.642 156.204 126.495 155.574 126.544 154.869C126.601 154.175 126.895 153.46 127.427 152.723C127.966 151.997 128.773 151.301 129.85 150.634Z" fill="#1E1E24"/>
<path d="M106.841 159.339C108.151 159.094 109.344 159.122 110.417 159.423C111.478 159.727 112.355 160.248 113.049 160.986C113.746 161.738 114.193 162.644 114.392 163.706C114.595 164.794 114.513 165.806 114.146 166.743C113.765 167.682 113.16 168.473 112.331 169.117C111.489 169.762 110.491 170.193 109.337 170.409C108.276 170.607 107.26 170.58 106.291 170.327C105.308 170.077 104.471 169.589 103.779 168.864C103.074 168.141 102.608 167.17 102.38 165.951C102.35 165.794 102.324 165.616 102.3 165.417C102.279 165.231 102.26 165.058 102.244 164.898L110.521 163.351L110.921 165.494L105.004 166.6L106.568 165.718C106.647 166.137 106.791 166.476 107.003 166.735C107.203 167.01 107.449 167.201 107.741 167.309C108.035 167.431 108.365 167.457 108.732 167.388C109.099 167.32 109.404 167.175 109.648 166.953C109.88 166.747 110.041 166.479 110.128 166.151C110.219 165.836 110.225 165.468 110.146 165.049L110.021 164.38C109.936 163.922 109.77 163.546 109.526 163.252C109.281 162.959 108.972 162.759 108.6 162.652C108.229 162.559 107.802 162.557 107.317 162.648C106.819 162.741 106.425 162.882 106.135 163.072C105.832 163.265 105.528 163.525 105.223 163.853L102.466 161.947C102.885 161.286 103.452 160.732 104.169 160.286C104.876 159.856 105.766 159.54 106.841 159.339Z" fill="#1E1E24"/>
<path d="M77.3475 169.97L80.1138 169.104L79.9889 169.772L77.7224 167.965L79.4905 166.017L81.4904 167.835L81.1194 167.969L81.5309 165.442L84.1652 165.934L83.6358 168.44L83.3384 168.181L85.8601 167.207L86.7854 169.659L84.0191 170.526L84.144 169.857L86.4105 171.664L84.6621 173.616L82.6622 171.798L83.0331 171.664L82.6217 174.191L79.9874 173.699L80.5167 171.193L80.8142 171.453L78.2924 172.426L77.3475 169.97Z" fill="#1E1E24"/>
<path d="M63.4391 151.756L57.9958 160.547L61.4816 162.705L59.5549 165.817L48.5701 159.016L50.4968 155.904L53.9827 158.062L59.426 149.271L63.4391 151.756Z" fill="#1E1E24"/>
<path d="M45.3141 136.152L36.5838 142.745L33.8599 139.138L42.5902 132.545L45.3141 136.152ZM34.5196 141.471C35.0178 142.131 35.24 142.79 35.1862 143.449C35.1323 144.108 34.8447 144.634 34.3234 145.028C33.802 145.422 33.2171 145.554 32.5687 145.426C31.9202 145.297 31.3469 144.903 30.8487 144.244C30.3506 143.584 30.1178 142.933 30.1503 142.29C30.1828 141.647 30.4598 141.129 30.9812 140.735C31.5345 140.317 32.1407 140.169 32.7997 140.289C33.4481 140.418 34.0214 140.812 34.5196 141.471Z" fill="#1E1E24"/>
<path d="M33.4853 112.204C33.8283 113.41 33.9021 114.546 33.7068 115.614C33.5115 116.681 33.0801 117.601 32.4126 118.373C31.7286 119.136 30.8544 119.669 29.79 119.972C28.7255 120.275 27.7081 120.28 26.7378 119.988C25.7638 119.683 24.9128 119.128 24.1847 118.323C23.4567 117.518 22.9212 116.513 22.5782 115.307C22.2133 114.025 22.177 112.85 22.4694 111.783C22.7618 110.715 23.346 109.87 24.2222 109.246L26.8343 112.142C26.409 112.499 26.133 112.868 26.0062 113.251C25.8758 113.621 25.8634 113.991 25.9693 114.363C26.0605 114.684 26.2232 114.963 26.4573 115.202C26.6879 115.427 26.9807 115.58 27.3359 115.659C27.6747 115.729 28.0749 115.698 28.5366 115.567C28.9983 115.435 29.3611 115.249 29.6251 115.008C29.8854 114.753 30.0542 114.47 30.1315 114.156C30.2051 113.831 30.1963 113.507 30.1051 113.187C29.9993 112.815 29.7936 112.506 29.488 112.26C29.1788 112.002 28.7495 111.833 28.2001 111.753L28.8966 107.916C29.9698 107.985 30.9117 108.396 31.7222 109.15C32.5327 109.904 33.1204 110.922 33.4853 112.204Z" fill="#1E1E24"/>
<path d="M29.4134 91.8728L24.1253 91.2824L20.6704 87.166L21.1631 81.8488L25.9194 87.311L27.5231 89.7293L29.4134 91.8728ZM30.857 95.8028L16.0803 94.4335L16.4973 89.9328L31.274 91.3021L30.857 95.8028ZM31.5859 87.9365L27.5253 90.5731L24.3764 87.4894L32.0897 82.4998L31.5859 87.9365Z" fill="#1E1E24"/>
<path d="M38.5498 66.0204C37.9555 67.214 37.2147 68.1484 36.3273 68.8236C35.4459 69.487 34.5014 69.8731 33.4939 69.9821C32.4744 70.0852 31.4813 69.896 30.5145 69.4146C29.5239 68.9213 28.7655 68.2458 28.2393 67.388C27.7191 66.5183 27.4522 65.5587 27.4385 64.5093C27.4308 63.4479 27.6885 62.392 28.2115 61.3417C28.6929 60.3749 29.3266 59.5808 30.1127 58.9594C30.9047 58.326 31.7985 57.9519 32.7941 57.8369C33.7957 57.7101 34.8514 57.923 35.9614 58.4757C36.1047 58.547 36.2628 58.6332 36.4359 58.7343C36.5971 58.8294 36.7463 58.9186 36.8836 59.0019L33.1305 66.5392L31.179 65.5675L33.8623 60.1786L33.6238 61.9589C33.2418 61.7687 32.8839 61.6798 32.55 61.6923C32.2101 61.6869 31.9091 61.7679 31.6471 61.9353C31.373 62.0968 31.1528 62.3446 30.9864 62.6788C30.82 63.013 30.752 63.344 30.7823 63.6719C30.8067 63.982 30.9234 64.271 31.1326 64.5389C31.3298 64.801 31.6194 65.0271 32.0013 65.2173L32.61 65.5204C33.0277 65.7284 33.4274 65.8231 33.809 65.8046C34.1906 65.7861 34.5362 65.6603 34.8459 65.4272C35.1437 65.1882 35.4025 64.8479 35.6224 64.4063C35.8482 63.9528 35.9728 63.5531 35.9961 63.2072C36.0253 62.8493 36.0008 62.4499 35.9225 62.0088L39.105 60.957C39.3805 61.69 39.4802 62.4769 39.404 63.3178C39.3219 64.1408 39.0372 65.0417 38.5498 66.0204Z" fill="#1E1E24"/>
<path d="M54.005 46.5051C52.8916 47.5201 51.782 48.0446 50.6761 48.0784C49.5613 48.1023 48.4964 47.5576 47.4814 46.4442L41.3103 39.6748L44.6506 36.6297L50.7947 43.3695C51.0193 43.6158 51.2585 43.7496 51.5124 43.7708C51.7761 43.783 52.0064 43.6992 52.2035 43.5196C52.4893 43.2591 52.6732 42.9561 52.7552 42.6107L55.6687 44.2036C55.5473 44.5849 55.3357 44.9763 55.034 45.3776C54.7422 45.77 54.3992 46.1458 54.005 46.5051ZM44.4865 45.3855L42.2633 42.9467L48.3675 37.382L50.5907 39.8208L44.4865 45.3855Z" fill="#1E1E24"/>
<path d="M72.7369 35.3807C71.879 35.713 71.0013 35.9386 70.1036 36.0576C69.2184 36.1718 68.4694 36.176 67.8565 36.0702L67.9802 33.234C68.5635 33.3369 69.2059 33.3526 69.9074 33.281C70.6041 33.197 71.257 33.037 71.8662 32.801C72.463 32.5698 72.8492 32.3487 73.0248 32.1376C73.2129 31.9218 73.266 31.7082 73.1841 31.4968C73.1071 31.2979 72.9398 31.1983 72.6823 31.1979C72.4324 31.1804 72.1175 31.2165 71.7377 31.3065C71.3703 31.3916 70.9632 31.485 70.5164 31.5866C70.0696 31.6882 69.6093 31.7735 69.1357 31.8427C68.6696 31.8945 68.2153 31.8846 67.7729 31.8129C67.3381 31.724 66.9427 31.534 66.5869 31.2429C66.231 30.9518 65.9423 30.5203 65.7208 29.9484C65.4703 29.3018 65.4352 28.6577 65.6156 28.0159C65.8035 27.3568 66.2088 26.7422 66.8316 26.1721C67.4496 25.5895 68.2869 25.0935 69.3437 24.6841C70.0524 24.4096 70.7962 24.2072 71.5751 24.077C72.3616 23.9296 73.059 23.9026 73.6671 23.9959L73.536 26.8134C72.9279 26.7202 72.356 26.7201 71.8201 26.8133C71.2795 26.8941 70.7853 27.0211 70.3377 27.1945C69.741 27.4257 69.3447 27.6579 69.149 27.891C68.9658 28.1193 68.9127 28.3329 68.9898 28.5318C69.0668 28.7307 69.2327 28.8452 69.4874 28.8752C69.7373 28.8928 70.0484 28.8652 70.4206 28.7925C70.8004 28.7026 71.2137 28.6068 71.6605 28.5052C72.1025 28.3912 72.5565 28.3082 73.0226 28.2564C73.5011 28.1997 73.9578 28.2158 74.3926 28.3047C74.835 28.3764 75.2342 28.5578 75.59 28.8489C75.9411 29.1276 76.2274 29.5529 76.4489 30.1248C76.6898 30.7464 76.7138 31.3806 76.521 32.0272C76.3407 32.669 75.9354 33.2836 75.305 33.871C74.687 34.4536 73.831 34.9568 72.7369 35.3807Z" fill="#1E1E24"/>
</svg>
