<svg xmlns="http://www.w3.org/2000/svg" xmlns:xlink="http://www.w3.org/1999/xlink" width="500" zoomAndPan="magnify" viewBox="0 0 375 374.999991" height="500" preserveAspectRatio="xMidYMid meet" version="1.0"><path fill="#ffa987" d="M 294.773438 155.917969 L 187.5625 263.164062 C 187.351562 263.375 187.097656 263.480469 186.800781 263.476562 C 186.503906 263.480469 186.253906 263.378906 186.046875 263.164062 L 79.304688 156 C 77.457031 154.136719 75.441406 152.46875 73.261719 151.003906 C 71.082031 149.539062 68.78125 148.300781 66.355469 147.292969 C 63.933594 146.285156 61.433594 145.527344 58.855469 145.011719 C 56.28125 144.5 53.679688 144.246094 51.054688 144.253906 L 51.015625 144.253906 C 49.054688 144.253906 47.101562 144.394531 45.160156 144.683594 C 43.21875 144.972656 41.308594 145.398438 39.429688 145.96875 C 37.550781 146.539062 35.722656 147.242188 33.949219 148.082031 C 32.171875 148.921875 30.46875 149.886719 28.835938 150.976562 C 27.203125 152.066406 25.660156 153.269531 24.203125 154.585938 C 22.75 155.90625 21.398438 157.324219 20.152344 158.839844 C 18.90625 160.355469 17.777344 161.957031 16.765625 163.640625 C 15.757812 165.324219 14.875 167.074219 14.121094 168.886719 C 13.371094 170.699219 12.753906 172.558594 12.273438 174.464844 C 11.796875 176.367188 11.460938 178.296875 11.265625 180.25 C 11.070312 182.203125 11.019531 184.164062 11.113281 186.125 C 11.207031 188.085938 11.445312 190.03125 11.824219 191.957031 C 12.207031 193.882812 12.726562 195.769531 13.386719 197.621094 C 14.042969 199.46875 14.835938 201.261719 15.757812 202.996094 C 16.679688 204.726562 17.726562 206.382812 18.890625 207.964844 C 20.058594 209.542969 21.335938 211.027344 22.722656 212.417969 L 135.957031 326.097656 L 181.6875 371.363281 C 182.054688 371.726562 182.457031 372.054688 182.890625 372.339844 C 183.324219 372.628906 183.78125 372.871094 184.261719 373.066406 C 184.746094 373.265625 185.242188 373.414062 185.75 373.511719 C 186.261719 373.613281 186.777344 373.660156 187.296875 373.660156 C 187.816406 373.660156 188.332031 373.605469 188.84375 373.503906 C 189.351562 373.402344 189.847656 373.25 190.328125 373.050781 C 190.808594 372.851562 191.261719 372.605469 191.695312 372.316406 C 192.128906 372.027344 192.527344 371.699219 192.894531 371.332031 L 351.347656 212.417969 C 352.269531 211.492188 353.148438 210.519531 353.976562 209.507812 C 354.804688 208.496094 355.582031 207.441406 356.304688 206.355469 C 357.03125 205.265625 357.703125 204.140625 358.316406 202.988281 C 358.933594 201.832031 359.488281 200.648438 359.988281 199.4375 C 360.488281 198.230469 360.925781 196.996094 361.304688 195.746094 C 361.683594 194.492188 362 193.222656 362.25 191.9375 C 362.503906 190.65625 362.695312 189.359375 362.820312 188.058594 C 362.949219 186.753906 363.011719 185.449219 363.007812 184.140625 C 363.007812 182.832031 362.941406 181.527344 362.8125 180.222656 C 362.683594 178.921875 362.488281 177.628906 362.234375 176.34375 C 361.976562 175.0625 361.65625 173.792969 361.277344 172.539062 C 360.894531 171.289062 360.453125 170.058594 359.953125 168.847656 C 359.449219 167.640625 358.890625 166.460938 358.273438 165.304688 C 357.652344 164.152344 356.980469 163.03125 356.253906 161.945312 C 355.523438 160.855469 354.746094 159.804688 353.914062 158.796875 C 353.082031 157.785156 352.203125 156.816406 351.277344 155.890625 C 350.351562 154.964844 349.382812 154.089844 348.371094 153.261719 C 347.359375 152.429688 346.308594 151.652344 345.222656 150.925781 C 344.132812 150.199219 343.011719 149.527344 341.855469 148.910156 C 340.703125 148.296875 339.519531 147.738281 338.3125 147.238281 C 337.101562 146.738281 335.871094 146.296875 334.617188 145.917969 C 333.367188 145.539062 332.097656 145.222656 330.816406 144.96875 C 329.53125 144.710938 328.238281 144.523438 326.9375 144.394531 C 325.632812 144.265625 324.328125 144.203125 323.019531 144.203125 C 321.710938 144.203125 320.40625 144.269531 319.105469 144.398438 C 317.804688 144.527344 316.511719 144.71875 315.226562 144.972656 C 313.945312 145.230469 312.675781 145.546875 311.425781 145.929688 C 310.171875 146.308594 308.941406 146.75 307.734375 147.25 C 306.523438 147.75 305.34375 148.3125 304.1875 148.929688 C 303.035156 149.546875 301.914062 150.21875 300.828125 150.945312 C 299.738281 151.671875 298.6875 152.453125 297.675781 153.28125 C 296.667969 154.113281 295.699219 154.992188 294.773438 155.917969 Z M 340.089844 201.1875 L 187.242188 354.496094 L 147.171875 314.828125 L 33.976562 201.1875 C 33.144531 200.351562 32.375 199.457031 31.671875 198.507812 C 30.96875 197.554688 30.339844 196.558594 29.785156 195.515625 C 29.230469 194.472656 28.753906 193.394531 28.359375 192.28125 C 27.960938 191.167969 27.648438 190.03125 27.417969 188.871094 C 27.191406 187.710938 27.046875 186.539062 26.992188 185.359375 C 26.933594 184.179688 26.964844 183 27.082031 181.824219 C 27.199219 180.648438 27.402344 179.484375 27.691406 178.339844 C 27.980469 177.191406 28.351562 176.074219 28.804688 174.980469 C 29.257812 173.890625 29.789062 172.839844 30.394531 171.824219 C 31.003906 170.8125 31.683594 169.847656 32.433594 168.933594 C 33.183594 168.019531 34 167.167969 34.875 166.375 C 35.75 165.582031 36.679688 164.855469 37.664062 164.199219 C 38.644531 163.542969 39.671875 162.964844 40.742188 162.460938 C 41.808594 161.953125 42.910156 161.53125 44.039062 161.1875 C 45.171875 160.847656 46.320312 160.589844 47.492188 160.414062 C 48.660156 160.242188 49.835938 160.15625 51.015625 160.15625 L 51.039062 160.15625 C 52.621094 160.152344 54.1875 160.304688 55.738281 160.613281 C 57.289062 160.921875 58.792969 161.378906 60.253906 161.988281 C 61.710938 162.59375 63.097656 163.339844 64.410156 164.222656 C 65.722656 165.105469 66.933594 166.105469 68.046875 167.230469 L 174.785156 274.386719 C 176.371094 275.988281 178.203125 277.222656 180.285156 278.089844 C 182.363281 278.957031 184.53125 279.386719 186.785156 279.378906 L 186.800781 279.378906 C 189.054688 279.386719 191.21875 278.957031 193.300781 278.097656 C 195.378906 277.234375 197.214844 276.007812 198.804688 274.410156 L 306.015625 167.160156 C 306.570312 166.605469 307.15625 166.078125 307.765625 165.578125 C 308.375 165.082031 309.003906 164.613281 309.660156 164.175781 C 310.316406 163.738281 310.992188 163.335938 311.683594 162.964844 C 312.378906 162.597656 313.089844 162.261719 313.820312 161.960938 C 314.546875 161.660156 315.285156 161.394531 316.039062 161.167969 C 316.792969 160.9375 317.554688 160.75 318.328125 160.597656 C 319.101562 160.441406 319.878906 160.328125 320.660156 160.25 C 321.445312 160.175781 322.230469 160.136719 323.015625 160.136719 C 323.804688 160.136719 324.589844 160.175781 325.375 160.253906 C 326.15625 160.332031 326.933594 160.445312 327.707031 160.601562 C 328.476562 160.753906 329.242188 160.945312 329.996094 161.171875 C 330.746094 161.402344 331.488281 161.667969 332.214844 161.96875 C 332.941406 162.269531 333.652344 162.605469 334.347656 162.976562 C 335.042969 163.347656 335.714844 163.75 336.371094 164.1875 C 337.027344 164.625 337.65625 165.09375 338.265625 165.59375 C 338.875 166.089844 339.457031 166.617188 340.015625 167.175781 C 340.574219 167.730469 341.101562 168.3125 341.601562 168.921875 C 342.101562 169.53125 342.570312 170.160156 343.007812 170.816406 C 343.445312 171.46875 343.851562 172.144531 344.222656 172.835938 C 344.59375 173.53125 344.933594 174.242188 345.234375 174.96875 C 345.539062 175.695312 345.804688 176.4375 346.035156 177.1875 C 346.261719 177.941406 346.457031 178.703125 346.609375 179.476562 C 346.765625 180.25 346.882812 181.027344 346.960938 181.808594 C 347.039062 182.59375 347.082031 183.378906 347.082031 184.167969 C 347.085938 184.953125 347.046875 185.738281 346.972656 186.523438 C 346.898438 187.308594 346.785156 188.085938 346.632812 188.859375 C 346.480469 189.628906 346.292969 190.394531 346.066406 191.148438 C 345.839844 191.902344 345.574219 192.644531 345.277344 193.371094 C 344.976562 194.101562 344.644531 194.8125 344.273438 195.507812 C 343.90625 196.203125 343.503906 196.878906 343.070312 197.535156 C 342.632812 198.191406 342.167969 198.824219 341.667969 199.433594 C 341.171875 200.046875 340.648438 200.628906 340.09375 201.1875 Z M 340.089844 201.1875 " fill-opacity="1" fill-rule="nonzero"/><path fill="#ffa987" d="M 294.773438 16.230469 L 187.5625 123.480469 C 187.460938 123.578125 187.34375 123.65625 187.214844 123.710938 C 187.082031 123.765625 186.945312 123.789062 186.804688 123.789062 C 186.660156 123.789062 186.523438 123.761719 186.394531 123.707031 C 186.261719 123.652344 186.148438 123.574219 186.046875 123.472656 L 79.304688 16.316406 C 77.457031 14.449219 75.441406 12.785156 73.261719 11.316406 C 71.082031 9.851562 68.78125 8.613281 66.359375 7.605469 C 63.933594 6.597656 61.433594 5.835938 58.855469 5.324219 C 56.28125 4.808594 53.679688 4.554688 51.054688 4.558594 L 51.015625 4.558594 C 49.054688 4.558594 47.101562 4.703125 45.160156 4.992188 C 43.21875 5.28125 41.308594 5.707031 39.429688 6.277344 C 37.550781 6.847656 35.726562 7.554688 33.949219 8.390625 C 32.175781 9.230469 30.472656 10.195312 28.839844 11.285156 C 27.207031 12.375 25.664062 13.578125 24.210938 14.898438 C 22.753906 16.214844 21.402344 17.632812 20.15625 19.148438 C 18.910156 20.667969 17.785156 22.265625 16.773438 23.949219 C 15.761719 25.632812 14.882812 27.382812 14.128906 29.195312 C 13.375 31.007812 12.761719 32.867188 12.28125 34.773438 C 11.800781 36.675781 11.464844 38.605469 11.269531 40.558594 C 11.078125 42.511719 11.027344 44.46875 11.121094 46.429688 C 11.214844 48.394531 11.449219 50.335938 11.832031 52.261719 C 12.210938 54.1875 12.730469 56.078125 13.390625 57.925781 C 14.046875 59.777344 14.839844 61.566406 15.761719 63.300781 C 16.683594 65.035156 17.726562 66.691406 18.894531 68.269531 C 20.058594 69.847656 21.335938 71.332031 22.722656 72.722656 L 135.957031 186.402344 L 181.6875 231.667969 C 182.054688 232.035156 182.457031 232.359375 182.890625 232.648438 C 183.324219 232.933594 183.78125 233.175781 184.261719 233.375 C 184.746094 233.570312 185.242188 233.71875 185.75 233.820312 C 186.261719 233.917969 186.777344 233.96875 187.296875 233.96875 C 187.816406 233.964844 188.332031 233.914062 188.84375 233.8125 C 189.351562 233.707031 189.847656 233.558594 190.328125 233.355469 C 190.808594 233.15625 191.261719 232.914062 191.695312 232.625 C 192.128906 232.335938 192.527344 232.003906 192.894531 231.636719 L 351.347656 72.722656 C 352.269531 71.796875 353.144531 70.828125 353.972656 69.8125 C 354.800781 68.800781 355.578125 67.75 356.300781 66.660156 C 357.027344 65.570312 357.695312 64.449219 358.308594 63.292969 C 358.921875 62.136719 359.480469 60.957031 359.976562 59.746094 C 360.476562 58.535156 360.914062 57.304688 361.292969 56.050781 C 361.667969 54.800781 361.984375 53.53125 362.238281 52.246094 C 362.492188 50.964844 362.679688 49.671875 362.804688 48.367188 C 362.933594 47.066406 362.996094 45.761719 362.992188 44.453125 C 362.988281 43.144531 362.925781 41.839844 362.792969 40.535156 C 362.664062 39.234375 362.46875 37.941406 362.214844 36.660156 C 361.957031 35.375 361.636719 34.109375 361.257812 32.859375 C 360.875 31.605469 360.433594 30.375 359.929688 29.167969 C 359.429688 27.960938 358.871094 26.78125 358.25 25.625 C 357.632812 24.472656 356.960938 23.351562 356.234375 22.265625 C 355.503906 21.179688 354.726562 20.128906 353.894531 19.117188 C 353.0625 18.109375 352.1875 17.140625 351.261719 16.214844 C 350.335938 15.292969 349.367188 14.414062 348.355469 13.585938 C 347.34375 12.757812 346.292969 11.980469 345.203125 11.253906 C 344.117188 10.527344 342.996094 9.855469 341.839844 9.238281 C 340.6875 8.625 339.507812 8.066406 338.296875 7.566406 C 337.089844 7.066406 335.859375 6.625 334.605469 6.246094 C 333.355469 5.867188 332.089844 5.550781 330.804688 5.296875 C 329.523438 5.042969 328.230469 4.851562 326.929688 4.722656 C 325.625 4.59375 324.320312 4.53125 323.015625 4.53125 C 321.707031 4.53125 320.402344 4.597656 319.097656 4.722656 C 317.796875 4.851562 316.503906 5.042969 315.222656 5.300781 C 313.941406 5.554688 312.671875 5.871094 311.421875 6.253906 C 310.167969 6.632812 308.941406 7.074219 307.730469 7.574219 C 306.523438 8.074219 305.339844 8.632812 304.1875 9.25 C 303.035156 9.867188 301.914062 10.539062 300.824219 11.265625 C 299.738281 11.992188 298.6875 12.769531 297.675781 13.597656 C 296.667969 14.429688 295.699219 15.304688 294.773438 16.230469 Z M 340.089844 61.496094 L 187.242188 214.800781 L 147.171875 175.136719 L 33.976562 61.496094 C 33.144531 60.65625 32.375 59.765625 31.675781 58.8125 C 30.972656 57.863281 30.34375 56.867188 29.789062 55.820312 C 29.234375 54.777344 28.757812 53.699219 28.363281 52.585938 C 27.964844 51.472656 27.652344 50.335938 27.425781 49.175781 C 27.195312 48.015625 27.054688 46.847656 26.996094 45.667969 C 26.941406 44.484375 26.972656 43.308594 27.089844 42.132812 C 27.207031 40.957031 27.410156 39.792969 27.695312 38.648438 C 27.984375 37.5 28.355469 36.382812 28.808594 35.292969 C 29.261719 34.199219 29.792969 33.148438 30.402344 32.132812 C 31.011719 31.121094 31.691406 30.15625 32.441406 29.246094 C 33.191406 28.332031 34.003906 27.480469 34.878906 26.683594 C 35.753906 25.890625 36.683594 25.167969 37.667969 24.511719 C 38.648438 23.855469 39.675781 23.273438 40.742188 22.769531 C 41.8125 22.265625 42.910156 21.839844 44.042969 21.496094 C 45.171875 21.15625 46.320312 20.898438 47.492188 20.722656 C 48.660156 20.550781 49.835938 20.464844 51.015625 20.464844 L 51.039062 20.464844 C 52.621094 20.460938 54.1875 20.613281 55.738281 20.921875 C 57.289062 21.234375 58.792969 21.691406 60.253906 22.296875 C 61.714844 22.90625 63.097656 23.652344 64.410156 24.535156 C 65.722656 25.417969 66.933594 26.421875 68.046875 27.546875 L 174.785156 134.691406 C 176.398438 136.261719 178.242188 137.476562 180.320312 138.339844 C 182.398438 139.203125 184.558594 139.65625 186.808594 139.695312 C 189.058594 139.699219 191.226562 139.273438 193.304688 138.410156 C 195.382812 137.550781 197.214844 136.320312 198.804688 134.722656 L 306.011719 27.476562 C 306.570312 26.917969 307.152344 26.390625 307.761719 25.890625 C 308.371094 25.390625 309.003906 24.921875 309.660156 24.484375 C 310.3125 24.046875 310.988281 23.640625 311.683594 23.269531 C 312.378906 22.898438 313.089844 22.5625 313.816406 22.257812 C 314.542969 21.957031 315.285156 21.691406 316.039062 21.464844 C 316.792969 21.234375 317.554688 21.042969 318.328125 20.890625 C 319.101562 20.734375 319.878906 20.617188 320.664062 20.542969 C 321.449219 20.464844 322.234375 20.425781 323.023438 20.425781 C 323.808594 20.425781 324.59375 20.460938 325.378906 20.539062 C 326.164062 20.617188 326.941406 20.730469 327.714844 20.882812 C 328.488281 21.039062 329.25 21.230469 330.003906 21.457031 C 330.757812 21.683594 331.5 21.949219 332.226562 22.25 C 332.957031 22.550781 333.667969 22.886719 334.363281 23.257812 C 335.058594 23.628906 335.734375 24.035156 336.386719 24.472656 C 337.042969 24.910156 337.675781 25.378906 338.285156 25.875 C 338.894531 26.375 339.480469 26.902344 340.035156 27.460938 C 340.59375 28.015625 341.121094 28.601562 341.625 29.207031 C 342.125 29.816406 342.59375 30.449219 343.03125 31.101562 C 343.46875 31.757812 343.875 32.433594 344.246094 33.128906 C 344.621094 33.820312 344.957031 34.53125 345.257812 35.261719 C 345.5625 35.988281 345.828125 36.730469 346.058594 37.484375 C 346.289062 38.238281 346.480469 39 346.636719 39.773438 C 346.789062 40.546875 346.90625 41.324219 346.984375 42.109375 C 347.0625 42.890625 347.101562 43.679688 347.105469 44.464844 C 347.105469 45.253906 347.066406 46.039062 346.992188 46.824219 C 346.917969 47.609375 346.800781 48.386719 346.648438 49.160156 C 346.496094 49.933594 346.308594 50.699219 346.082031 51.453125 C 345.851562 52.207031 345.589844 52.949219 345.289062 53.679688 C 344.988281 54.40625 344.65625 55.121094 344.285156 55.816406 C 343.914062 56.511719 343.511719 57.1875 343.074219 57.84375 C 342.640625 58.5 342.171875 59.132812 341.671875 59.742188 C 341.175781 60.351562 340.648438 60.9375 340.089844 61.496094 Z M 340.089844 61.496094 " fill-opacity="1" fill-rule="nonzero"/></svg>