<svg xmlns="http://www.w3.org/2000/svg" xmlns:xlink="http://www.w3.org/1999/xlink" width="500" zoomAndPan="magnify" viewBox="0 0 375 374.999991" height="500" preserveAspectRatio="xMidYMid meet" version="1.0"><defs><clipPath id="78208791ee"><path d="M 0 51.328125 L 319 51.328125 L 319 99 L 0 99 Z M 0 51.328125 " clip-rule="nonzero"/></clipPath><clipPath id="4c3f59496c"><path d="M 0 276.484375 L 375 276.484375 L 375 323.355469 L 0 323.355469 Z M 0 276.484375 " clip-rule="nonzero"/></clipPath></defs><g clip-path="url(#78208791ee)"><path fill="#ffa987" d="M 23.425781 98.421875 L 295.316406 98.421875 C 308.253906 98.421875 318.753906 87.933594 318.753906 74.992188 C 318.753906 62.054688 308.253906 51.566406 295.316406 51.566406 L 23.425781 51.566406 C 10.488281 51.566406 0 62.054688 0 74.992188 C 0 87.933594 10.488281 98.421875 23.425781 98.421875 " fill-opacity="1" fill-rule="nonzero"/></g><g clip-path="url(#4c3f59496c)"><path fill="#ffa987" d="M 23.425781 323.355469 L 351.574219 323.355469 C 364.507812 323.355469 375 312.863281 375 299.921875 C 375 286.980469 364.507812 276.492188 351.574219 276.492188 L 23.425781 276.492188 C 10.488281 276.492188 0 286.980469 0 299.921875 C 0 312.863281 10.488281 323.355469 23.425781 323.355469 " fill-opacity="1" fill-rule="nonzero"/></g><path fill="#ffa987" d="M 23.425781 210.886719 L 207.8125 210.886719 C 220.757812 210.886719 231.257812 200.394531 231.257812 187.457031 C 231.257812 174.519531 220.757812 164.027344 207.8125 164.027344 L 23.425781 164.027344 C 10.488281 164.027344 0 174.519531 0 187.457031 C 0 200.394531 10.488281 210.886719 23.425781 210.886719 " fill-opacity="1" fill-rule="nonzero"/></svg>