<svg width="35" height="35" viewBox="0 0 35 35" fill="none" xmlns="http://www.w3.org/2000/svg">
<path d="M17.472 0.456055C12.7766 0.456055 12.1915 0.478727 10.3539 0.556461C8.50881 0.64715 7.26075 0.933254 6.15952 1.36079C5.02374 1.8056 4.05638 2.39616 3.10091 3.35704C2.13895 4.31252 1.54299 5.27987 1.10466 6.41565C0.67712 7.51688 0.391016 8.76494 0.300327 10.61C0.217195 12.4487 0.199921 13.0327 0.199921 17.7281C0.199921 22.4234 0.222593 23.0086 0.300327 24.8461C0.391016 26.6858 0.67712 27.9393 1.10466 29.0405C1.54947 30.1763 2.14003 31.1437 3.10091 32.0991C4.05638 33.0611 5.02374 33.6571 6.15952 34.0954C7.26075 34.5175 8.51421 34.809 10.3539 34.8997C12.1925 34.9829 12.7766 35.0001 17.472 35.0001C22.1673 35.0001 22.7525 34.9775 24.59 34.8997C26.4297 34.809 27.6832 34.5165 28.7844 34.0954C29.9202 33.6506 30.8875 33.06 31.843 32.0991C32.805 31.1437 33.4009 30.1817 33.8393 29.0405C34.2614 27.9393 34.5529 26.6858 34.6436 24.8461C34.7267 23.0075 34.744 22.4234 34.744 17.7281C34.744 13.0327 34.7213 12.4476 34.6436 10.61C34.5529 8.77034 34.2603 7.5104 33.8393 6.41565C33.3944 5.27987 32.8039 4.31252 31.843 3.35704C30.8875 2.39508 29.9256 1.79912 28.7844 1.36079C27.6832 0.933254 26.4297 0.64715 24.59 0.556461C22.7514 0.473329 22.1673 0.456055 17.472 0.456055V0.456055ZM17.472 3.56541C22.0831 3.56541 22.6337 3.58808 24.4561 3.66582C26.1371 3.74463 27.0527 4.02534 27.6605 4.26286C28.4713 4.57703 29.0381 4.94843 29.6513 5.55518C30.2527 6.15654 30.6241 6.72983 30.9383 7.54063C31.1758 8.14847 31.4565 9.064 31.5353 10.745C31.613 12.5674 31.6357 13.1191 31.6357 17.7292C31.6357 22.3392 31.613 22.8909 31.5288 24.7133C31.4381 26.3943 31.1574 27.3099 30.921 27.9177C30.5939 28.7285 30.229 29.2953 29.6265 29.9086C29.0187 30.5099 28.44 30.8813 27.6357 31.1955C27.0354 31.433 26.1069 31.7137 24.4194 31.7925C22.5873 31.8703 22.0475 31.8929 17.4245 31.8929C12.8014 31.8929 12.2627 31.8703 10.4284 31.786C8.74741 31.6954 7.82 31.4147 7.21217 31.1782C6.39164 30.8511 5.82915 30.4862 5.22671 29.8837C4.61888 29.2759 4.23237 28.6972 3.93439 27.8929C3.69255 27.2926 3.41616 26.3641 3.32655 24.6766C3.26501 22.8661 3.23586 22.3047 3.23586 17.7033C3.23586 13.104 3.26501 12.5415 3.32655 10.7083C3.41616 9.02082 3.69255 8.09449 3.93439 7.49205C4.23237 6.67045 4.61996 6.10904 5.22671 5.5012C5.82807 4.89984 6.39164 4.51117 7.21217 4.20671C7.82 3.97027 8.72474 3.68957 10.4122 3.60536C12.2444 3.5395 12.7842 3.51575 17.4007 3.51575L17.472 3.56541ZM17.472 8.86319C12.5693 8.86319 8.6049 12.833 8.6049 17.7303C8.6049 22.6329 12.5747 26.5973 17.472 26.5973C22.3746 26.5973 26.339 22.6275 26.339 17.7303C26.339 12.8276 22.3692 8.86319 17.472 8.86319ZM17.472 23.488C14.2892 23.488 11.7143 20.913 11.7143 17.7303C11.7143 14.5475 14.2892 11.9725 17.472 11.9725C20.6547 11.9725 23.2297 14.5475 23.2297 17.7303C23.2297 20.913 20.6547 23.488 17.472 23.488ZM28.7693 8.50907C28.7693 9.65672 27.8354 10.5831 26.6931 10.5831C25.5455 10.5831 24.6192 9.65564 24.6192 8.50907C24.6192 7.36789 25.552 6.4394 26.6931 6.4394C27.8343 6.4394 28.7693 7.36789 28.7693 8.50907Z" fill="#E54B4B"/>
</svg>
