<svg width="35" height="25" viewBox="0 0 35 25" fill="none" xmlns="http://www.w3.org/2000/svg">
<path d="M34.2228 4.55289C33.8125 3.09619 32.6765 1.95373 31.2133 1.54987C28.5191 0.829624 17.6884 0.829624 17.6884 0.829624C17.6884 0.829624 6.87819 0.812347 4.15593 1.54987C2.70032 1.95481 1.55893 3.09619 1.15291 4.55289C0.642153 7.31402 0.388392 10.1086 0.40027 12.9162C0.394871 15.7054 0.647552 18.4957 1.15291 21.2396C1.55893 22.6963 2.70032 23.8387 4.15593 24.2491C6.85012 24.9693 17.6884 24.9693 17.6884 24.9693C17.6884 24.9693 28.4921 24.9693 31.2133 24.2491C32.6765 23.8387 33.8125 22.6973 34.2228 21.2396C34.7185 18.4957 34.9603 15.7054 34.9431 12.9162C34.9603 10.1086 34.7239 7.31402 34.2228 4.55289ZM14.2286 18.0854V7.72436L23.2441 12.9162L14.2286 18.0854Z" fill="#E54B4B"/>
</svg>
