<svg width="35" height="35" viewBox="0 0 35 35" fill="none" xmlns="http://www.w3.org/2000/svg">
<path d="M17.4718 0C12.7765 0 12.1913 0.0226723 10.3538 0.100406C8.5087 0.191095 7.26064 0.477199 6.15942 0.904734C5.02364 1.34954 4.05629 1.9401 3.10081 2.90098C2.13885 3.85646 1.5429 4.82381 1.10456 5.95959C0.677028 7.06081 0.390925 8.30887 0.300235 10.154C0.217103 11.9926 0.199829 12.5767 0.199829 17.272C0.199829 21.9673 0.222501 22.5525 0.300235 24.39C0.390925 26.2297 0.677028 27.4832 1.10456 28.5844C1.54937 29.7202 2.13993 30.6876 3.10081 31.643C4.05629 32.605 5.02364 33.2009 6.15942 33.6393C7.26064 34.0614 8.5141 34.3529 10.3538 34.4436C12.1924 34.5267 12.7765 34.544 17.4718 34.544C22.1672 34.544 22.7523 34.5213 24.5899 34.4436C26.4296 34.3529 27.683 34.0603 28.7843 33.6393C29.92 33.1945 30.8874 32.6039 31.8429 31.643C32.8048 30.6876 33.4008 29.7256 33.8391 28.5844C34.2612 27.4832 34.5527 26.2297 34.6434 24.39C34.7266 22.5514 34.7438 21.9673 34.7438 17.272C34.7438 12.5767 34.7212 11.9915 34.6434 10.154C34.5527 8.31427 34.2602 7.05434 33.8391 5.95959C33.3943 4.82381 32.8037 3.85646 31.8429 2.90098C30.8874 1.93902 29.9254 1.34307 28.7843 0.904734C27.683 0.477199 26.4296 0.191095 24.5899 0.100406C22.7513 0.0172742 22.1672 0 17.4718 0V0ZM17.4718 3.10935C22.083 3.10935 22.6336 3.13202 24.456 3.20976C26.137 3.28857 27.0525 3.56927 27.6604 3.80679C28.4712 4.12097 29.038 4.49236 29.6512 5.09912C30.2526 5.70047 30.624 6.27376 30.9381 7.08457C31.1756 7.6924 31.4564 8.60793 31.5352 10.2889C31.6129 12.1113 31.6356 12.663 31.6356 17.2731C31.6356 21.8831 31.6129 22.4348 31.5287 24.2572C31.438 25.9382 31.1573 26.8538 30.9209 27.4616C30.5937 28.2724 30.2288 28.8392 29.6264 29.4525C29.0185 30.0538 28.4399 30.4252 27.6355 30.7394C27.0352 30.9769 26.1068 31.2576 24.4193 31.3364C22.5871 31.4141 22.0473 31.4368 17.4243 31.4368C12.8013 31.4368 12.2626 31.4141 10.4283 31.3299C8.7473 31.2392 7.8199 30.9585 7.21206 30.7221C6.39154 30.395 5.82905 30.0301 5.22661 29.4276C4.61878 28.8198 4.23227 28.2411 3.93429 27.4368C3.69245 26.8365 3.41606 25.908 3.32645 24.2205C3.26491 22.41 3.23576 21.8486 3.23576 17.2472C3.23576 12.6479 3.26491 12.0854 3.32645 10.2522C3.41606 8.56475 3.69245 7.63842 3.93429 7.03598C4.23227 6.21438 4.61986 5.65297 5.22661 5.04514C5.82797 4.44378 6.39154 4.05511 7.21206 3.75065C7.8199 3.51421 8.72463 3.23351 10.4121 3.1493C12.2442 3.08344 12.7841 3.05969 17.4006 3.05969L17.4718 3.10935ZM17.4718 8.40712C12.5692 8.40712 8.60479 12.3769 8.60479 17.2742C8.60479 22.1768 12.5746 26.1412 17.4718 26.1412C22.3745 26.1412 26.3389 22.1714 26.3389 17.2742C26.3389 12.3715 22.3691 8.40712 17.4718 8.40712V8.40712ZM17.4718 23.0319C14.2891 23.0319 11.7141 20.4569 11.7141 17.2742C11.7141 14.0914 14.2891 11.5165 17.4718 11.5165C20.6546 11.5165 23.2295 14.0914 23.2295 17.2742C23.2295 20.4569 20.6546 23.0319 17.4718 23.0319V23.0319ZM28.7691 8.053C28.7691 9.20065 27.8353 10.127 26.693 10.127C25.5453 10.127 24.619 9.19957 24.619 8.053C24.619 6.91183 25.5518 5.98334 26.693 5.98334C27.8342 5.98334 28.7691 6.91183 28.7691 8.053V8.053Z" fill="#FFA987"/>
</svg>
