<svg xmlns="http://www.w3.org/2000/svg" xmlns:xlink="http://www.w3.org/1999/xlink" width="1920" zoomAndPan="magnify" viewBox="0 0 1440 74.999997" height="100" preserveAspectRatio="xMidYMid meet" version="1.0"><defs><filter x="0%" y="0%" width="100%" height="100%" id="631f09132d"><feColorMatrix values="0 0 0 0 1 0 0 0 0 1 0 0 0 0 1 0 0 0 1 0" color-interpolation-filters="sRGB"/></filter><mask id="a21d7647d6"><g filter="url(#631f09132d)"><rect x="-144" width="1728" fill="#000000" y="-7.5" height="89.999996" fill-opacity="0.2588"/></g></mask><clipPath id="dbea1cf150"><path d="M 0.0390625 22 L 1261 22 L 1261 53 L 0.0390625 53 Z M 0.0390625 22 " clip-rule="nonzero"/></clipPath><clipPath id="47ffa4c0fd"><path d="M -69.957031 -5.320312 L 1332.503906 41.730469 L 1331.21875 79.957031 L -71.242188 32.910156 Z M -69.957031 -5.320312 " clip-rule="nonzero"/></clipPath><clipPath id="c7bb8e89dd"><path d="M -69.957031 -5.320312 L 1332.503906 41.730469 L 1331.21875 79.957031 L -71.242188 32.910156 Z M -69.957031 -5.320312 " clip-rule="nonzero"/></clipPath><clipPath id="3428500d83"><rect x="0" width="1264" y="0" height="75"/></clipPath></defs><g mask="url(#a21d7647d6)"><g transform="matrix(1, 0, 0, 1, 71, -0.000000000000001893)"><g clip-path="url(#3428500d83)"><g clip-path="url(#dbea1cf150)"><g clip-path="url(#47ffa4c0fd)"><g clip-path="url(#c7bb8e89dd)"><path fill="#000000" d="M 11.746094 35.691406 L 4.734375 35.457031 C 2.105469 35.371094 0.410156 33.574219 0.46875 31.835938 C 0.554688 29.230469 2.367188 27.550781 4.996094 27.640625 C 26.027344 28.34375 47.058594 29.050781 68.089844 29.753906 C 78.605469 30.109375 90 30.492188 100.542969 29.972656 C 111.089844 29.457031 122.480469 29.839844 133.027344 29.324219 C 146.199219 28.894531 160.25 28.496094 173.425781 28.070312 C 186.597656 27.640625 199.773438 27.214844 212.945312 26.785156 L 251.59375 25.472656 L 253.34375 25.53125 L 256.851562 25.648438 L 257.726562 25.679688 L 282.320312 24.765625 C 308.671875 23.910156 335.046875 22.183594 362.242188 22.226562 C 389.4375 22.269531 414.878906 22.253906 440.292969 23.105469 L 919.640625 39.1875 L 1000.261719 41.890625 C 1026.550781 42.773438 1052.84375 43.65625 1079.160156 43.667969 C 1108.984375 43.796875 1138.808594 43.929688 1169.566406 42.351562 C 1185.371094 42.011719 1200.328125 40.773438 1216.128906 40.433594 L 1237.21875 39.402344 C 1243.355469 39.609375 1250.394531 38.972656 1256.527344 39.179688 C 1259.15625 39.269531 1260.851562 41.066406 1260.761719 43.671875 C 1260.675781 46.277344 1258.863281 47.957031 1256.234375 47.867188 C 1250.101562 47.664062 1243.0625 48.296875 1236.929688 48.089844 L 1197.378906 50.242188 C 1184.203125 50.671875 1171.027344 51.097656 1157.855469 51.527344 C 1144.679688 51.953125 1131.535156 51.511719 1117.484375 51.910156 C 1103.4375 52.308594 1091.167969 51.898438 1077.117188 52.296875 C 1049.921875 52.253906 1022.753906 51.34375 995.589844 50.433594 L 916.722656 47.785156 L 437.371094 31.707031 C 404.074219 30.589844 370.742188 30.339844 337.382812 30.960938 L 338.261719 30.992188 L 266.226562 33.792969 L 267.105469 33.820312 L 260.96875 33.617188 L 258.339844 33.527344 L 253.960938 33.382812 L 252.207031 33.324219 C 236.402344 33.660156 220.570312 34.871094 203.890625 35.179688 C 187.214844 35.492188 173.164062 35.890625 158.234375 36.257812 C 145.0625 36.6875 131.886719 37.113281 118.714844 37.542969 C 105.539062 37.96875 94.148438 37.585938 82.726562 38.074219 L 45.921875 36.839844 Z M 11.746094 35.691406 " fill-opacity="1" fill-rule="nonzero"/></g></g></g></g></g></g></svg>