<svg xmlns="http://www.w3.org/2000/svg" xmlns:xlink="http://www.w3.org/1999/xlink" width="1920" zoomAndPan="magnify" viewBox="0 0 1440 74.999997" height="100" preserveAspectRatio="xMidYMid meet" version="1.0"><defs><clipPath id="ce3d1bd5ac"><path d="M 71 22 L 1332 22 L 1332 53 L 71 53 Z M 71 22 " clip-rule="nonzero"/></clipPath><clipPath id="b279ba28a7"><path d="M 1.042969 -5.320312 L 1403.503906 41.730469 L 1402.21875 79.957031 L -0.242188 32.910156 Z M 1.042969 -5.320312 " clip-rule="nonzero"/></clipPath><clipPath id="b87d13c2e9"><path d="M 1.042969 -5.320312 L 1403.503906 41.730469 L 1402.21875 79.957031 L -0.242188 32.910156 Z M 1.042969 -5.320312 " clip-rule="nonzero"/></clipPath></defs><g clip-path="url(#ce3d1bd5ac)"><g clip-path="url(#b279ba28a7)"><g clip-path="url(#b87d13c2e9)"><path fill="#e54b4b" d="M 82.746094 35.691406 L 75.734375 35.457031 C 73.105469 35.371094 71.410156 33.574219 71.46875 31.835938 C 71.554688 29.230469 73.367188 27.550781 75.996094 27.640625 C 97.027344 28.34375 118.058594 29.050781 139.089844 29.753906 C 149.605469 30.109375 161 30.492188 171.542969 29.972656 C 182.089844 29.457031 193.480469 29.839844 204.027344 29.324219 C 217.199219 28.894531 231.25 28.496094 244.425781 28.070312 C 257.597656 27.640625 270.773438 27.214844 283.945312 26.785156 L 322.59375 25.472656 L 324.34375 25.53125 L 327.851562 25.648438 L 328.726562 25.679688 L 353.320312 24.765625 C 379.671875 23.910156 406.046875 22.183594 433.242188 22.226562 C 460.4375 22.269531 485.878906 22.253906 511.292969 23.105469 L 990.640625 39.1875 L 1071.261719 41.890625 C 1097.550781 42.773438 1123.84375 43.65625 1150.160156 43.667969 C 1179.984375 43.796875 1209.808594 43.929688 1240.566406 42.351562 C 1256.371094 42.011719 1271.328125 40.773438 1287.128906 40.433594 L 1308.21875 39.402344 C 1314.355469 39.609375 1321.394531 38.972656 1327.527344 39.179688 C 1330.15625 39.269531 1331.851562 41.066406 1331.761719 43.671875 C 1331.675781 46.277344 1329.863281 47.957031 1327.234375 47.867188 C 1321.101562 47.664062 1314.0625 48.296875 1307.929688 48.089844 L 1268.378906 50.242188 C 1255.203125 50.671875 1242.027344 51.097656 1228.855469 51.527344 C 1215.679688 51.953125 1202.535156 51.511719 1188.484375 51.910156 C 1174.4375 52.308594 1162.167969 51.898438 1148.117188 52.296875 C 1120.921875 52.253906 1093.753906 51.34375 1066.589844 50.433594 L 987.722656 47.785156 L 508.371094 31.707031 C 475.074219 30.589844 441.742188 30.339844 408.382812 30.960938 L 409.261719 30.992188 L 337.226562 33.792969 L 338.105469 33.820312 L 331.96875 33.617188 L 329.339844 33.527344 L 324.960938 33.382812 L 323.207031 33.324219 C 307.402344 33.660156 291.570312 34.871094 274.890625 35.179688 C 258.210938 35.492188 244.164062 35.890625 229.234375 36.257812 C 216.0625 36.6875 202.886719 37.113281 189.714844 37.542969 C 176.539062 37.96875 165.148438 37.585938 153.726562 38.074219 L 116.921875 36.839844 Z M 82.746094 35.691406 " fill-opacity="1" fill-rule="nonzero"/></g></g></g></svg>