<svg xmlns="http://www.w3.org/2000/svg" xmlns:xlink="http://www.w3.org/1999/xlink" width="1920" zoomAndPan="magnify" viewBox="0 0 1440 74.999997" height="100" preserveAspectRatio="xMidYMid meet" version="1.0"><defs><clipPath id="aad4cb2439"><path d="M 1150 45 L 1152 45 L 1152 45.925781 L 1150 45.925781 Z M 1150 45 " clip-rule="nonzero"/></clipPath><clipPath id="6ca06dfd45"><path d="M 1259 45 L 1262.671875 45 L 1262.671875 45.925781 L 1259 45.925781 Z M 1259 45 " clip-rule="nonzero"/></clipPath><clipPath id="913547fe61"><path d="M 1074 45 L 1080 45 L 1080 45.925781 L 1074 45.925781 Z M 1074 45 " clip-rule="nonzero"/></clipPath><clipPath id="2e704aab1f"><path d="M 1045 45 L 1049 45 L 1049 45.925781 L 1045 45.925781 Z M 1045 45 " clip-rule="nonzero"/></clipPath><clipPath id="f4a4837085"><path d="M 1054 45 L 1057 45 L 1057 45.925781 L 1054 45.925781 Z M 1054 45 " clip-rule="nonzero"/></clipPath><clipPath id="2990963b8c"><path d="M 93.851562 45 L 99 45 L 99 45.925781 L 93.851562 45.925781 Z M 93.851562 45 " clip-rule="nonzero"/></clipPath><clipPath id="963dcb96c5"><path d="M 39.949219 29.269531 L 1399.699219 29.269531 L 1399.699219 45.925781 L 39.949219 45.925781 Z M 39.949219 29.269531 " clip-rule="nonzero"/></clipPath></defs><g clip-path="url(#aad4cb2439)"><path fill="#e54b4b" d="M 1150.945312 45.925781 L 1151.511719 45.925781 C 1151.324219 45.914062 1151.132812 45.914062 1150.945312 45.925781 " fill-opacity="1" fill-rule="evenodd"/></g><g clip-path="url(#6ca06dfd45)"><path fill="#e54b4b" d="M 1259.8125 45.925781 L 1261.574219 45.925781 C 1261.609375 45.855469 1261.851562 45.789062 1262.128906 45.734375 C 1260.765625 45.5625 1260.613281 45.765625 1259.8125 45.925781 " fill-opacity="1" fill-rule="evenodd"/></g><g clip-path="url(#913547fe61)"><path fill="#e54b4b" d="M 1074.117188 45.925781 L 1079.523438 45.925781 C 1079.546875 45.914062 1079.566406 45.914062 1079.589844 45.902344 C 1078.003906 45.777344 1076.308594 46.046875 1074.757812 45.765625 C 1074.449219 45.824219 1074.238281 45.867188 1074.117188 45.925781 " fill-opacity="1" fill-rule="evenodd"/></g><g clip-path="url(#2e704aab1f)"><path fill="#e54b4b" d="M 1045.691406 45.925781 L 1048.503906 45.925781 C 1047.417969 45.835938 1046.421875 45.800781 1045.691406 45.925781 " fill-opacity="1" fill-rule="evenodd"/></g><g clip-path="url(#f4a4837085)"><path fill="#e54b4b" d="M 1054.65625 45.925781 L 1056.628906 45.925781 C 1056.097656 45.902344 1055.542969 45.878906 1054.800781 45.84375 C 1054.722656 45.867188 1054.6875 45.890625 1054.65625 45.925781 " fill-opacity="1" fill-rule="evenodd"/></g><path fill="#e54b4b" d="M 1173.53125 29.28125 L 1170.738281 29.28125 C 1170.902344 29.335938 1170.972656 29.417969 1170.792969 29.550781 C 1171.679688 29.5625 1172.609375 29.40625 1173.53125 29.28125 " fill-opacity="1" fill-rule="evenodd"/><path fill="#e54b4b" d="M 1102.5625 29.609375 C 1108.292969 29.246094 1117.578125 29.699219 1124.671875 29.820312 C 1126.199219 29.652344 1124.816406 29.449219 1125.691406 29.28125 L 1109.855469 29.28125 C 1109.808594 29.292969 1109.777344 29.304688 1109.734375 29.316406 C 1109.632812 29.292969 1109.53125 29.292969 1109.445312 29.28125 L 1096.136719 29.28125 C 1098.285156 29.335938 1100.433594 29.4375 1102.5625 29.609375 " fill-opacity="1" fill-rule="evenodd"/><path fill="#e54b4b" d="M 1293.105469 29.328125 C 1293.148438 29.304688 1293.214844 29.292969 1293.269531 29.28125 L 1292.738281 29.28125 C 1292.859375 29.304688 1292.980469 29.292969 1293.105469 29.328125 " fill-opacity="1" fill-rule="evenodd"/><path fill="#e54b4b" d="M 1174.75 29.6875 C 1176.136719 29.933594 1177.410156 29.519531 1177.066406 29.28125 L 1176.84375 29.28125 C 1176.710938 29.417969 1175.105469 29.539062 1174.75 29.6875 " fill-opacity="1" fill-rule="evenodd"/><g clip-path="url(#2990963b8c)"><path fill="#e54b4b" d="M 98.128906 45.40625 C 96.621094 45.394531 93.605469 45.554688 93.9375 45.925781 L 95.210938 45.925781 C 96.210938 45.753906 97.496094 45.585938 98.128906 45.40625 " fill-opacity="1" fill-rule="evenodd"/></g><g clip-path="url(#963dcb96c5)"><path fill="#e54b4b" d="M 1382.945312 40.65625 C 1383.851562 40.78125 1383.464844 40.523438 1384.339844 40.398438 C 1385.539062 40.984375 1387.066406 40.128906 1388.253906 40.714844 C 1386.644531 41.175781 1382.910156 40.960938 1382.945312 40.65625 Z M 1321.175781 37.824219 C 1322.371094 37.800781 1323.613281 37.519531 1324.71875 37.855469 C 1322.714844 38.304688 1321.417969 37.855469 1321.175781 37.824219 Z M 1267.425781 40.332031 C 1268.890625 40.367188 1270.441406 40.074219 1271.835938 40.375 C 1270.574219 40.625 1267.0625 40.78125 1267.425781 40.332031 Z M 1260.890625 34.367188 C 1261.089844 34.019531 1263.902344 34.050781 1265.300781 34.414062 C 1263.746094 34.761719 1262.316406 34.535156 1260.890625 34.367188 Z M 1264.324219 43.964844 C 1263.949219 43.898438 1261.53125 43.957031 1262.519531 44.125 C 1264.023438 44.035156 1265.476562 44.101562 1266.894531 44.347656 C 1265.644531 44.652344 1264.523438 44.417969 1263.40625 44.136719 C 1261.964844 44.382812 1259.449219 44.226562 1259.269531 44.71875 C 1256.488281 44.304688 1252.855469 45.125 1251.414062 44.28125 C 1251.058594 44.820312 1248.011719 44.777344 1246.480469 44.507812 C 1250.761719 44.429688 1250.140625 43.785156 1254.273438 43.414062 C 1255.835938 44.15625 1255.890625 43.347656 1256.789062 43.976562 C 1259.050781 43.863281 1263.679688 43.515625 1264.324219 43.964844 Z M 1270.097656 43.933594 C 1270.773438 44.359375 1267.527344 44.328125 1269.046875 44.628906 C 1268.125 44.777344 1267.214844 44.855469 1266.351562 44.789062 C 1268.390625 44.519531 1267.261719 43.652344 1270.097656 43.933594 Z M 1238.480469 44.609375 C 1237.78125 44.449219 1237.085938 44.292969 1236.386719 44.136719 C 1234.601562 44.15625 1232.71875 44.675781 1231.035156 44.257812 C 1231.976562 43.707031 1236.054688 43.640625 1238.238281 43.796875 C 1237.828125 43.664062 1238.492188 43.640625 1239.167969 43.628906 C 1237.707031 43.582031 1236.308594 43.191406 1234.835938 43.222656 C 1232.496094 43.71875 1230.203125 44.078125 1228.097656 43.605469 C 1231.65625 43.652344 1230.800781 43.246094 1232.21875 43.019531 C 1232.1875 43.484375 1233.9375 43.210938 1234.914062 42.875 C 1236.078125 42.910156 1236.519531 43.011719 1236.597656 43.246094 C 1239.800781 42.839844 1242.738281 43.503906 1245.9375 43.066406 C 1247.3125 43.300781 1245.628906 43.855469 1248.089844 43.359375 C 1249.5625 43.628906 1249.464844 44.347656 1247.035156 44.054688 C 1247.546875 43.945312 1248 43.832031 1247.125 43.707031 C 1246.570312 44.710938 1241.472656 44.347656 1238.480469 44.609375 Z M 1229.007812 45.316406 C 1230.347656 45.382812 1234.003906 45.28125 1233.804688 45.632812 C 1232.453125 45.632812 1228.785156 45.753906 1229.007812 45.316406 Z M 1226.167969 33.21875 C 1227.855469 32.960938 1229.425781 33.128906 1231.011719 33.367188 C 1229.292969 33.714844 1227.765625 33.320312 1226.167969 33.21875 Z M 1220.925781 43.898438 C 1221.558594 43.785156 1222.179688 43.675781 1222.800781 43.5625 C 1223.875 43.945312 1225.0625 43.957031 1226.335938 43.59375 C 1226.746094 43.683594 1227.167969 43.773438 1227.585938 43.863281 C 1225.304688 44.167969 1223.132812 43.957031 1220.925781 43.898438 Z M 1253.308594 34.558594 C 1251.601562 34.3125 1249.742188 34.648438 1248.078125 34.152344 C 1249.640625 33.941406 1253.375 34.132812 1253.308594 34.558594 Z M 1213.535156 43.371094 C 1215.078125 43.121094 1216.527344 43.210938 1217.914062 43.59375 C 1216.382812 43.796875 1214.988281 43.484375 1213.535156 43.371094 Z M 1212.515625 43.898438 C 1211.820312 43.742188 1211.121094 43.582031 1210.421875 43.4375 C 1207.339844 43.832031 1206.675781 43.449219 1203.261719 43.71875 C 1204.183594 43.550781 1202.710938 43.359375 1204.273438 43.203125 C 1205.957031 43.5625 1207.773438 43.382812 1209.570312 43.246094 C 1208.9375 42.941406 1208.835938 42.636719 1210.675781 42.367188 C 1211.972656 42.503906 1213.28125 42.546875 1214.542969 42.851562 C 1213.160156 43.132812 1211.886719 42.886719 1210.464844 43.257812 C 1211.132812 43.628906 1214.535156 43.460938 1214.753906 43.832031 C 1214.023438 43.753906 1213.292969 43.753906 1212.515625 43.898438 Z M 1198.507812 43.234375 C 1200.371094 43.449219 1200.261719 42.875 1202.507812 43.179688 C 1201.355469 43.539062 1197.988281 43.71875 1198.507812 43.234375 Z M 1217.292969 33.320312 C 1217.148438 33.679688 1214.578125 33.761719 1213.246094 33.546875 C 1213.402344 33.097656 1215.917969 33.242188 1217.292969 33.320312 Z M 1189.933594 32.871094 C 1188.625 32.769531 1187.214844 33.097656 1185.976562 32.746094 C 1187.148438 32.140625 1191.714844 32.984375 1189.933594 32.871094 Z M 1188.777344 43.132812 C 1186.707031 43.179688 1184.679688 43 1182.652344 42.898438 C 1184.589844 42.539062 1189.886719 42.46875 1188.777344 43.132812 Z M 1178.183594 43.03125 C 1178.960938 42.671875 1180.46875 42.582031 1182.230469 42.796875 C 1180.84375 42.964844 1179.515625 42.976562 1178.183594 43.03125 Z M 1172.820312 45.035156 C 1174.230469 45.351562 1175.847656 44.742188 1177.242188 45.082031 C 1175.957031 45.363281 1172.457031 45.484375 1172.820312 45.035156 Z M 1171.957031 43.144531 C 1171.171875 43.300781 1170.4375 43.292969 1169.71875 43.210938 C 1171.257812 42.941406 1172.753906 42.875 1174.183594 43.078125 C 1173.417969 43.191406 1172.621094 43.425781 1171.914062 43.324219 C 1172.167969 43.269531 1172.390625 43.210938 1171.957031 43.144531 Z M 1164 31.992188 C 1166.417969 31.769531 1168.675781 32.195312 1171.082031 32.0625 C 1170.140625 32.636719 1166.171875 32.21875 1164 31.992188 Z M 1173.476562 42.355469 C 1174.304688 42.546875 1175.257812 42.246094 1176.078125 42.558594 C 1175.613281 42.648438 1175.160156 42.730469 1174.683594 42.820312 C 1173.574219 42.59375 1172.488281 42.683594 1173.476562 42.355469 Z M 1143.699219 44.5625 C 1147.730469 44.574219 1149.527344 44.609375 1152.953125 44.742188 C 1149.792969 45.023438 1146.722656 44.902344 1143.699219 44.5625 Z M 1138.613281 41.75 C 1136.640625 41.457031 1139.222656 40.984375 1140.484375 41.410156 C 1139.175781 41.636719 1140.25 41.738281 1138.613281 41.75 Z M 1124.171875 44.730469 C 1122.53125 44.449219 1121.910156 44.179688 1123.917969 43.921875 C 1125.28125 44.011719 1125.625 44.484375 1127.796875 44.417969 C 1126.519531 44.832031 1125.425781 44.417969 1124.171875 44.730469 Z M 1086.207031 44.179688 C 1088.035156 43.976562 1089.796875 44 1091.523438 44.238281 C 1089.695312 44.4375 1087.921875 44.417969 1086.207031 44.179688 Z M 1077.21875 41.0625 C 1078.539062 40.679688 1080.410156 40.859375 1080.453125 40.46875 C 1080.742188 40.523438 1081.019531 40.589844 1081.308594 40.648438 C 1081.605469 40.601562 1081.917969 40.566406 1082.195312 40.65625 C 1081.339844 41.074219 1079.089844 41.320312 1077.21875 41.0625 Z M 1010.839844 44.519531 C 1008.832031 44.257812 1011.4375 43.730469 1012.722656 44 C 1011.4375 44.167969 1012.488281 44.359375 1010.839844 44.519531 Z M 981.148438 44.496094 C 983.089844 43.855469 984.617188 44.84375 986.503906 44.371094 C 985.394531 44.148438 984.308594 44.238281 985.285156 43.910156 C 987.246094 43.921875 986.335938 44.304688 988.230469 44.5625 C 990.25 44.136719 992 44.832031 994.039062 44.347656 C 992.875 44.257812 991.675781 44.347656 990.582031 43.964844 C 991.535156 43.71875 992.363281 43.957031 993.328125 43.628906 C 994.902344 43.773438 992.808594 44.328125 994.96875 44.179688 C 996.300781 43.988281 993.695312 43.753906 995.554688 43.5625 C 996.453125 43.515625 997.320312 43.605469 998.171875 43.765625 C 998.003906 44.035156 996.132812 44.28125 996.640625 44.5625 C 997.695312 44.507812 998.671875 44.730469 999.679688 44.855469 C 993.460938 44.910156 987.257812 44.945312 981.148438 44.496094 Z M 976.363281 44.179688 C 976.792969 43.785156 979.023438 44.136719 978.710938 43.582031 C 980.871094 43.855469 977.636719 44.460938 976.363281 44.179688 Z M 971.476562 44.226562 C 971.5625 43.832031 973.792969 43.964844 975.1875 43.539062 C 975.609375 43.640625 976.03125 43.730469 976.441406 43.820312 C 974.746094 44.101562 973.039062 44.507812 971.476562 44.226562 Z M 947.152344 44.066406 C 948.589844 43.765625 948.835938 43.089844 951.273438 43.492188 C 949.886719 43.84375 948.902344 44.125 951.527344 44.292969 C 950.011719 44.472656 948.558594 44.371094 947.152344 44.066406 Z M 920.132812 44.078125 C 919.3125 43.785156 918.4375 43.773438 917.472656 44.054688 C 915.855469 43.492188 920.578125 42.886719 922.992188 43.210938 C 920.3125 43.5625 920.445312 43.59375 920.132812 44.078125 Z M 290.585938 29.789062 C 291.105469 29.574219 291.5625 29.417969 292.445312 29.449219 C 291.96875 29.5625 292.601562 29.6875 293.234375 29.808594 C 292.304688 30.011719 291.425781 30 290.585938 29.789062 Z M 146.964844 43.121094 C 144.703125 43.550781 140.050781 43.910156 136.515625 44.179688 C 135.152344 43.863281 136.226562 43.582031 137.613281 43.292969 C 139.75 43.078125 142.855469 43.121094 146.167969 42.75 C 146.589844 42.875 147.429688 43.011719 146.964844 43.121094 Z M 124.558594 44.148438 C 123.847656 43.964844 123.460938 43.785156 123.804688 43.605469 C 126.785156 43.539062 129.808594 43.246094 132.726562 43.335938 C 130 43.664062 127.304688 43.820312 124.558594 44.148438 Z M 111.09375 44.910156 C 114.984375 44.460938 118.328125 44.304688 120.28125 43.574219 C 120.832031 43.695312 121.398438 43.820312 121.953125 43.945312 C 119.28125 44.125 116.035156 45.28125 111.09375 44.910156 Z M 78.433594 44.417969 C 77.171875 44.167969 78.691406 43.945312 78.601562 43.695312 C 79.597656 43.84375 80.683594 43.628906 81.636719 44 C 80.550781 44.203125 79.554688 44.089844 78.433594 44.417969 Z M 1399.800781 40.648438 C 1399.777344 40.128906 1397.59375 40.277344 1396.675781 40.703125 C 1394.691406 40.445312 1398.757812 40.175781 1395.921875 40.152344 C 1397.339844 39.894531 1400.429688 39.835938 1398.324219 39.375 C 1397.039062 39.363281 1396.53125 39.578125 1397.773438 39.8125 C 1397.160156 39.902344 1396.617188 39.722656 1396.042969 39.621094 C 1394.324219 39.8125 1394.789062 40.027344 1393.683594 40.230469 C 1391.042969 40.183594 1388.429688 40.003906 1385.691406 40.320312 C 1382.667969 39.386719 1379.230469 40.152344 1376.050781 39.871094 C 1376.40625 39.160156 1381.058594 39.667969 1381.570312 39.039062 C 1376.59375 39.273438 1373.78125 38.609375 1368.238281 39.261719 C 1366.984375 38.859375 1366.1875 38.519531 1363.851562 39.039062 C 1362.753906 38.644531 1363.449219 38.203125 1365.414062 38.070312 C 1364.738281 37.824219 1363.925781 38.105469 1363.230469 37.957031 C 1364.027344 38.273438 1361.125 38.542969 1363.007812 38.859375 C 1360.027344 38.363281 1356.78125 38.992188 1353.710938 38.847656 C 1357.832031 38.507812 1360.492188 38.148438 1361.410156 38.125 C 1360.238281 37.460938 1354.875 38.328125 1352.027344 38.476562 C 1351.925781 38.015625 1348.835938 38.113281 1347.238281 38.160156 C 1346.828125 38.273438 1347.75 38.40625 1347.148438 38.519531 C 1346.683594 38.566406 1346.261719 38.507812 1345.796875 38.597656 C 1345.675781 38.441406 1346.429688 38.304688 1345.464844 38.148438 C 1341.785156 38.105469 1338.019531 38.429688 1334.316406 38.484375 C 1334.050781 38.394531 1334.351562 38.304688 1333.929688 38.214844 C 1337.90625 38.058594 1339.257812 37.765625 1342.9375 37.585938 C 1339.945312 37.148438 1336.765625 37.472656 1333.730469 37.226562 C 1332.609375 37.542969 1335.058594 37.339844 1335.402344 37.597656 C 1334.617188 37.824219 1333.894531 37.765625 1333.132812 37.84375 C 1331.148438 37.5625 1332.699219 37.125 1330.648438 37.101562 C 1329.761719 37.25 1330.183594 37.394531 1329.230469 37.542969 C 1329.640625 37.632812 1330.117188 37.507812 1330.558594 37.460938 C 1331.535156 37.675781 1331.148438 38.386719 1332.253906 37.832031 C 1334.761719 38.351562 1331.601562 38.53125 1329.894531 38.441406 C 1332.15625 38.183594 1327.425781 38.105469 1329.175781 37.722656 C 1328.035156 37.542969 1326.714844 38.160156 1325.550781 38.035156 C 1324.332031 37.6875 1327.546875 37.472656 1328.796875 37.441406 C 1329.949219 37.214844 1327.824219 36.96875 1328.976562 36.730469 C 1327.402344 36.496094 1325.683594 36.886719 1324.132812 36.597656 C 1324.300781 36.203125 1325.960938 36.335938 1326.957031 35.910156 C 1325.460938 35.378906 1323.679688 36.054688 1322.160156 35.59375 C 1321.285156 35.910156 1324.121094 35.773438 1324.675781 36.15625 C 1323.355469 36.132812 1322.015625 36.191406 1320.730469 36.023438 C 1322.625 36.40625 1321.515625 36.605469 1320.929688 37.011719 C 1320.488281 37.058594 1320.042969 37 1319.589844 37.089844 C 1317.648438 36.886719 1320.765625 36.742188 1318.835938 36.539062 C 1316.773438 37.113281 1306.523438 36.585938 1307.464844 35.898438 C 1306.214844 36.214844 1304.738281 36.023438 1304.683594 36.40625 C 1302.414062 36.113281 1304.019531 35.863281 1302.667969 35.582031 C 1304.863281 35.695312 1307.15625 35.347656 1309.316406 35.5625 C 1308.074219 35.15625 1302.945312 35.054688 1300.105469 35.199219 C 1299.277344 35.007812 1300.839844 34.851562 1299.355469 34.660156 C 1297.414062 34.917969 1295.410156 35.199219 1292.703125 34.683594 C 1292.351562 35.132812 1290.488281 35.054688 1291.597656 35.5625 C 1290.367188 35.167969 1288.582031 35.730469 1286.34375 35.335938 C 1287.496094 36 1282.664062 35.570312 1282.640625 36.011719 C 1279.496094 35.71875 1284.613281 35.492188 1282.386719 35.199219 C 1280.96875 35.5625 1279.640625 35.5625 1278.355469 35.4375 C 1278.230469 35.222656 1278.742188 35.019531 1278.929688 34.816406 C 1283.527344 34.625 1287.863281 34.996094 1291.398438 34.582031 C 1290.445312 34.234375 1289.292969 34.761719 1288.359375 34.277344 C 1282.375 35.246094 1277 33.601562 1271.074219 34.378906 C 1265.664062 33.433594 1255.179688 34.289062 1252.722656 33.308594 C 1250.96875 33.21875 1249.207031 33.199219 1247.457031 33.074219 C 1246.371094 33.75 1243.433594 33.230469 1241.183594 33.378906 C 1241.0625 33.21875 1241.816406 33.085938 1240.851562 32.925781 C 1240.585938 33.390625 1237.429688 33.378906 1237.738281 32.984375 C 1232.742188 33.480469 1228.074219 32.644531 1223.132812 32.925781 C 1224.472656 33.199219 1221.980469 33.332031 1221.238281 33.445312 C 1220.484375 33.230469 1223.167969 33.050781 1222.710938 32.835938 C 1218.6875 32.351562 1214.433594 32.894531 1210.300781 32.894531 C 1210.554688 32.21875 1205.601562 32.140625 1204.613281 32.566406 C 1203.816406 32.230469 1202.875 32.445312 1202.054688 32.183594 C 1199.640625 33.152344 1190.851562 31.667969 1185.597656 32.464844 C 1181.910156 31.441406 1174.394531 33.007812 1171.546875 31.972656 C 1172.832031 32.082031 1174.207031 31.960938 1175.535156 31.925781 C 1174.640625 31.429688 1170.085938 32.082031 1166.691406 31.835938 C 1165.308594 31.746094 1160.386719 31.148438 1160.089844 31.691406 C 1159.15625 31.882812 1158.394531 31.398438 1157.527344 31.308594 C 1154.347656 31.621094 1151.332031 31.285156 1148.140625 31.65625 C 1144.5625 31.285156 1136.714844 31.316406 1130.976562 31.21875 C 1092.742188 30.328125 1054.445312 29.710938 1016.113281 29.28125 L 307.949219 29.28125 C 307.1875 29.519531 306.6875 29.820312 305.191406 29.832031 C 304.9375 29.652344 304.570312 29.460938 304.648438 29.28125 L 303.796875 29.28125 C 303.972656 29.28125 304.195312 29.292969 304.4375 29.292969 C 304.027344 29.539062 303.195312 30.171875 301.191406 29.890625 C 304.304688 29.449219 300.480469 29.539062 300.105469 29.28125 L 296.667969 29.28125 C 295.925781 29.484375 295.527344 29.539062 294.542969 29.910156 C 293.699219 29.699219 293.875 29.484375 293.933594 29.28125 L 281.53125 29.28125 C 277.1875 29.347656 272.820312 29.539062 268.355469 30.101562 C 264.410156 29.96875 257.972656 30.371094 255.3125 30.957031 C 246.722656 30.574219 231.730469 32.816406 220.625 31.507812 C 223.296875 32.644531 213.953125 32.140625 214.476562 33.152344 C 212.136719 33.0625 209.523438 34.097656 207.316406 33.433594 C 197.773438 34.425781 188.457031 34.480469 179.367188 33.613281 C 178.136719 33.894531 176.796875 34.175781 177.382812 34.480469 C 175.886719 34.582031 174.449219 34.433594 173.050781 34.085938 C 171.621094 34.492188 170.347656 34.289062 169.019531 34.3125 C 168.363281 34.796875 167.132812 34.726562 166.148438 35.179688 C 166.980469 35.414062 167.953125 35.03125 168.796875 35.199219 C 162.890625 35.820312 153.304688 35.796875 146.289062 34.898438 C 145.359375 35.550781 142.796875 35.683594 139.929688 35.550781 C 134.277344 36.867188 127.019531 37.5625 119.835938 38.035156 C 118.996094 37.84375 118.152344 37.652344 117.308594 37.472656 C 118.007812 38.046875 113.34375 37.902344 111.382812 38.214844 C 111.214844 38.09375 111.027344 37.96875 111.46875 37.855469 C 105.066406 38.105469 99.070312 38.226562 93.90625 39.027344 C 87.191406 39.207031 78.167969 39.488281 72.726562 40.511719 C 68.183594 40.421875 59.695312 41.46875 56.015625 41.875 C 49.964844 42.539062 44.558594 43.078125 39.949219 43.964844 L 39.949219 44.054688 C 41.175781 44.113281 41.3125 44.371094 42.074219 44.597656 C 41.34375 44.753906 40.644531 44.765625 39.949219 44.789062 L 39.949219 44.96875 C 41.144531 44.96875 41.921875 44.867188 42.828125 45.136719 C 45.054688 44.519531 48.734375 45.40625 49.566406 44.753906 C 50.628906 44.585938 51.539062 45.113281 52.535156 45.226562 C 55.382812 45.101562 58.199219 45.058594 61.003906 45.046875 C 58.832031 45.40625 57.625 45.484375 55.230469 45.925781 L 68.152344 45.925781 C 75.621094 45.722656 83.554688 45.394531 90.769531 44.710938 C 91.976562 44.609375 93.117188 44.730469 94.257812 44.921875 C 94.382812 44.777344 94.191406 44.628906 93.925781 44.472656 C 95.257812 44.484375 96.609375 44.335938 97.972656 44.246094 C 99.8125 45.070312 105.042969 43.765625 107.523438 43.179688 C 108.765625 43.492188 106.835938 43.773438 105.539062 44.054688 C 106.78125 43.957031 108.644531 44.203125 108.523438 44.527344 C 106.285156 44.910156 105.90625 44.574219 104.398438 45.113281 C 105.375 45.382812 106.605469 44.550781 107.511719 45.058594 C 109.175781 44.890625 108.125 44.710938 109.410156 44.539062 C 110.007812 44.507812 110.605469 44.472656 111.183594 44.550781 C 111.125 44.855469 109.1875 45.136719 109.199219 45.429688 C 108.742188 45.484375 108.3125 45.417969 107.847656 45.507812 C 108.933594 44.96875 105.109375 45.375 103.433594 45.464844 C 102.617188 45.304688 103.101562 45.160156 102.207031 45 C 99.757812 45.171875 98.515625 45.585938 97.0625 45.925781 L 1044.4375 45.925781 C 1044.148438 45.765625 1044.09375 45.621094 1042.941406 45.464844 C 1041.589844 45.554688 1040.160156 45.957031 1038.941406 45.507812 C 1036.703125 46.417969 1031.40625 45.226562 1027.78125 45.84375 C 1028.171875 45.664062 1026.230469 45.472656 1027.027344 45.304688 C 1024.769531 45.472656 1022.484375 45.777344 1020.414062 45.148438 C 1019.480469 45.375 1018.574219 45.464844 1017.6875 45.472656 C 1017.597656 45.363281 1017.488281 45.238281 1016.890625 45.113281 C 1016.421875 45.394531 1014.019531 45.375 1015.117188 45.089844 C 1013.6875 45.339844 1011.382812 45.261719 1008.933594 45.035156 C 1009.417969 45.429688 1008.234375 45.441406 1006.617188 45.464844 C 1006.195312 45.339844 1007.105469 45.226562 1007.582031 45.113281 C 1005.40625 44.957031 1003.160156 45.113281 1000.976562 44.957031 C 1002.792969 44.539062 1003.257812 45.070312 1004.179688 44.539062 C 1002.882812 44.4375 1001.585938 44.292969 1000.222656 44.417969 C 999.800781 44.257812 1001.03125 44.125 1001.652344 43.976562 C 1003.269531 44 1004.753906 44.597656 1006.496094 44.113281 C 1004.523438 44.214844 1005.507812 43.503906 1003.511719 43.640625 C 1003.035156 43.234375 1004.742188 43.210938 1006.292969 43.132812 C 1007.027344 43.347656 1005.894531 43.550781 1005.695312 43.753906 C 1007.359375 44.011719 1008.046875 43.5625 1008.898438 43.335938 C 1010.371094 43.359375 1011.878906 43.210938 1013.277344 43.5625 C 1010.019531 43.4375 1010.714844 44.101562 1008.3125 43.957031 C 1007.414062 44.269531 1011.09375 44.136719 1008.179688 44.496094 C 1006.417969 44.765625 1008.667969 43.945312 1006.925781 44.214844 C 1004.53125 44.574219 1006.59375 44.417969 1007.667969 44.753906 C 1007.070312 44.789062 1006.472656 44.820312 1005.90625 44.742188 C 1007.746094 45.082031 1013.597656 44.617188 1016.933594 44.933594 C 1016.125 44.417969 1018.628906 44.84375 1018.828125 44.417969 C 1016.757812 44.417969 1014.683594 44.460938 1012.554688 44.710938 C 1011.746094 43.515625 1018.917969 43.957031 1021.234375 43.640625 C 1024.402344 44.113281 1021.199219 44.527344 1023.128906 45 C 1023.382812 44.40625 1026.019531 45.183594 1027.617188 44.6875 C 1026.230469 44.753906 1022.375 44.519531 1023.792969 44.023438 C 1026.132812 44.628906 1026.164062 43.730469 1029.523438 44.167969 C 1031.261719 44.449219 1028.914062 44.699219 1030.652344 44.980469 C 1031.417969 44.84375 1032.191406 44.699219 1032.96875 44.550781 C 1032.324219 44.429688 1031.695312 44.304688 1032.171875 44.191406 C 1036.402344 43.785156 1040.480469 44 1044.671875 43.773438 C 1043.453125 43.347656 1042.042969 43.652344 1040.757812 43.472656 C 1043.308594 43.191406 1047.785156 43 1048.660156 43.730469 C 1047.507812 43.652344 1046.3125 43.71875 1045.046875 44.046875 C 1044.472656 44.382812 1047.152344 44.179688 1046.265625 44.507812 C 1049.058594 44.4375 1051.574219 43.753906 1053.335938 44.574219 C 1054.457031 44.226562 1055.429688 44.449219 1056.460938 44.519531 C 1056.460938 44.371094 1057.46875 44.226562 1057.003906 44.078125 C 1060.175781 44.417969 1065.914062 43.832031 1067.53125 44.539062 C 1069.449219 44.519531 1071.390625 44.371094 1073.328125 44.328125 C 1073.382812 44.472656 1073.128906 44.617188 1072.785156 44.765625 C 1074.402344 44.96875 1074.027344 44.4375 1075.101562 44.335938 C 1076.820312 44.652344 1075.699219 44.945312 1074.890625 45.238281 C 1076.863281 45.40625 1079.414062 45.238281 1080.066406 45.824219 C 1080.71875 45.472656 1079.113281 45.089844 1081.1875 44.753906 C 1078.480469 44.460938 1080 45.53125 1076.699219 45.070312 C 1076.199219 44.71875 1076.929688 44.507812 1078.636719 44.382812 C 1082.070312 44.246094 1085.242188 45.148438 1088.6875 44.921875 C 1089.851562 45.429688 1087.167969 45.203125 1085.90625 45.429688 C 1087.324219 45.699219 1088.867188 45.417969 1090.371094 45.292969 C 1090.285156 45.183594 1090.171875 45.058594 1089.574219 44.933594 C 1090.761719 44.84375 1091.148438 45.148438 1091.382812 44.765625 C 1093.796875 45.160156 1096.535156 44.246094 1098.839844 45.113281 C 1099.203125 44.710938 1102.9375 44.6875 1103.25 45.160156 C 1104.867188 44.40625 1109.035156 44.472656 1111.75 44.789062 C 1112.625 44.675781 1112.160156 44.550781 1112.722656 44.4375 C 1114.964844 44.765625 1117.601562 44.519531 1117.433594 45.113281 C 1118.507812 44.910156 1119.59375 44.71875 1120.679688 44.519531 C 1123.628906 44.84375 1119.652344 45.101562 1121.347656 45.417969 C 1123.351562 45.070312 1125.246094 45.171875 1127.121094 45.382812 C 1127.464844 45.089844 1129.359375 44.808594 1129.980469 44.519531 C 1131.121094 44.890625 1127.695312 45.214844 1129.722656 45.597656 C 1129.933594 44.71875 1135.597656 44.820312 1138.234375 45.226562 C 1140.527344 45.082031 1140.375 44.539062 1142.765625 44.742188 C 1142.601562 45.058594 1140.851562 45.40625 1143.53125 45.28125 C 1143.851562 45.507812 1143.054688 45.710938 1141.925781 45.925781 L 1143.808594 45.925781 C 1143.929688 45.800781 1144.042969 45.675781 1144.796875 45.5625 C 1146.300781 45.40625 1146.644531 45.65625 1147.34375 45.925781 L 1148.542969 45.925781 C 1148.273438 45.753906 1147.488281 45.574219 1146.601562 45.394531 C 1148.496094 45.507812 1148.351562 45.101562 1150.558594 45.53125 C 1152.574219 45.375 1149.5625 45.160156 1151.578125 45 C 1153.394531 45.464844 1157.550781 45.382812 1160.742188 45.542969 C 1161.339844 45.316406 1158.203125 45.226562 1157.25 45.328125 C 1156.808594 44.628906 1161.140625 44.753906 1163.101562 44.933594 C 1164.332031 45.375 1160 44.933594 1161.242188 45.273438 C 1163.390625 45.753906 1163.058594 44.980469 1165.253906 45.226562 C 1162.605469 46.015625 1171.113281 45.25 1174.328125 45.925781 L 1175.257812 45.925781 C 1176.644531 45.632812 1179.527344 45.453125 1181.664062 45.113281 C 1181.253906 45.902344 1188.570312 45.28125 1189.65625 45.011719 C 1190.296875 45.148438 1190.941406 45.273438 1190.464844 45.382812 C 1191.226562 45.113281 1193.011719 45.441406 1194.964844 45.070312 C 1196.238281 45.734375 1198.03125 45.113281 1201.203125 44.957031 C 1201.800781 45.171875 1200.636719 45.363281 1202.367188 45.585938 C 1207.972656 45.171875 1210.84375 45.609375 1216.59375 45.375 C 1217.191406 45.609375 1216.03125 45.8125 1217.8125 45.835938 C 1218.035156 45.183594 1220.429688 45.484375 1221.804688 45.925781 L 1222.101562 45.925781 C 1221.902344 45.441406 1224.550781 45.160156 1226.777344 45.382812 C 1227.445312 45.835938 1223.996094 45.363281 1224.460938 45.800781 C 1224.75 45.878906 1225.0625 45.902344 1225.359375 45.925781 L 1226.890625 45.925781 C 1226.957031 45.765625 1226.734375 45.65625 1228.042969 45.664062 C 1228.339844 45.753906 1227.855469 45.835938 1227.554688 45.925781 L 1231.035156 45.925781 C 1231.078125 45.878906 1231.132812 45.835938 1231.121094 45.777344 C 1232.019531 45.722656 1232.164062 45.8125 1232.175781 45.925781 L 1233.617188 45.925781 C 1234.269531 45.734375 1235.589844 45.644531 1236.929688 45.574219 C 1237.484375 46.015625 1238.105469 45.765625 1239.210938 45.925781 L 1240.042969 45.925781 C 1240.542969 45.675781 1242.394531 45.746094 1243.492188 45.902344 C 1243.492188 45.914062 1243.480469 45.914062 1243.480469 45.925781 L 1249.496094 45.925781 C 1249.742188 45.84375 1249.894531 45.753906 1249.761719 45.609375 C 1251.324219 45.867188 1253.132812 45.089844 1254.683594 45.382812 C 1255.691406 45.734375 1253.886719 45.675781 1252.523438 45.925781 L 1257.1875 45.925781 C 1258.90625 45.214844 1263.757812 45.664062 1265.300781 45.484375 C 1265.167969 45.699219 1264.269531 45.824219 1263.40625 45.925781 L 1268.082031 45.925781 C 1267.726562 45.84375 1267.371094 45.765625 1267.015625 45.6875 C 1267.949219 45.464844 1268.867188 45.382812 1269.710938 45.53125 C 1268.246094 45.65625 1269.433594 45.789062 1269.421875 45.925781 L 1274.21875 45.925781 C 1274.363281 45.914062 1274.496094 45.914062 1274.640625 45.925781 L 1284.625 45.925781 C 1285.644531 45.8125 1286.578125 45.867188 1287.273438 45.925781 L 1288.292969 45.925781 C 1288.527344 45.878906 1288.683594 45.800781 1288.738281 45.632812 C 1289.246094 45.734375 1289.300781 45.824219 1289.191406 45.925781 L 1293.65625 45.925781 C 1293.914062 45.890625 1294.179688 45.855469 1294.457031 45.777344 C 1287.785156 45.273438 1281.011719 45.171875 1274.253906 45.046875 C 1272.335938 44.84375 1275.4375 44.699219 1273.5 44.496094 C 1271.828125 44.484375 1272.292969 44.699219 1271.195312 44.921875 C 1269.488281 44.550781 1272.4375 44.226562 1274.097656 43.875 C 1277.855469 43.945312 1281.910156 44.789062 1286.851562 44.269531 C 1288.171875 44.269531 1289.425781 44.640625 1290.765625 44.574219 C 1289.601562 44.167969 1289.957031 44.226562 1292.570312 44.417969 C 1294.144531 44.246094 1292.671875 44.054688 1293.582031 43.886719 C 1296.761719 44.609375 1297.648438 44.089844 1300.617188 44.136719 C 1301.8125 44.328125 1300.683594 44.496094 1302.246094 44.6875 C 1302.144531 44.304688 1303.597656 44.054688 1305.449219 44.28125 C 1306.644531 44.460938 1303.109375 44.609375 1305.328125 44.808594 C 1305.957031 44.628906 1306.535156 44.71875 1307.089844 44.820312 C 1307.175781 44.675781 1307.6875 44.539062 1308.53125 44.394531 C 1312.296875 44.640625 1314.160156 44.71875 1317.195312 45.191406 C 1318.117188 44.4375 1320.078125 45.40625 1322.105469 44.980469 C 1322.957031 45.316406 1320.398438 45.070312 1319.800781 45.394531 C 1321.429688 45.394531 1323.058594 45.328125 1324.632812 45.53125 C 1325.539062 45.464844 1326.546875 44.992188 1327.378906 45.203125 C 1326.914062 44.730469 1327.445312 44.789062 1329.773438 44.429688 C 1326.371094 44.496094 1325.085938 43.910156 1322.28125 44.257812 C 1320.730469 43.84375 1323.433594 43.957031 1321.992188 43.628906 C 1320.132812 43.886719 1319.964844 44.148438 1320.488281 44.429688 C 1319.410156 44.539062 1318.402344 44.4375 1317.316406 44.652344 C 1317.328125 44.066406 1314.445312 44.335938 1312.941406 44.4375 C 1311.898438 44.046875 1314.902344 44.125 1315.34375 43.664062 C 1313.671875 43.5625 1313.5625 43.71875 1312.609375 43.988281 C 1312.074219 43.84375 1310.84375 43.472656 1308.320312 43.414062 C 1308.308594 43.652344 1306.722656 43.863281 1305.492188 44.101562 C 1305.003906 43.796875 1305.738281 43.503906 1303.941406 43.191406 C 1302.699219 43.4375 1301.59375 43.132812 1300.40625 43.15625 C 1300.925781 42.953125 1299.898438 42.730469 1300.105469 42.527344 C 1295.351562 42.648438 1290.6875 42.449219 1286.023438 42.210938 C 1283.230469 42.75 1280.769531 41.929688 1278.019531 42.3125 C 1273.566406 41.332031 1266.550781 42.75 1263.59375 41.546875 C 1262.628906 41.863281 1261.785156 41.625 1260.84375 41.875 C 1259.746094 41.523438 1258.582031 41.503906 1257.441406 41.300781 C 1259.28125 41.109375 1260.679688 41.480469 1261.53125 40.894531 C 1260.667969 41.367188 1262.5625 41.128906 1264.089844 41.277344 C 1265.265625 40.90625 1263.546875 40.996094 1262.40625 40.90625 C 1264.578125 40.5 1266.585938 40.757812 1268.636719 40.792969 C 1269.398438 40.972656 1266.5625 41.0625 1265.941406 40.9375 C 1266.597656 41.410156 1271.238281 40.972656 1273.433594 41.109375 C 1272.492188 40.75 1271.359375 41.152344 1270.40625 40.804688 C 1274.453125 40.960938 1276.070312 40.535156 1279.792969 40.457031 C 1281.058594 40.667969 1276.800781 40.839844 1279.195312 41.074219 C 1279.816406 40.960938 1280.4375 40.847656 1281.058594 40.726562 C 1284.847656 41.128906 1289.46875 40.871094 1292.171875 40.566406 C 1289.523438 41.050781 1293.769531 40.9375 1296.039062 41.050781 C 1296.351562 40.828125 1297.503906 40.625 1295.707031 40.601562 C 1298.910156 39.960938 1299.164062 40.996094 1301.925781 40.488281 C 1303.132812 40.769531 1302.433594 41.03125 1302.179688 41.300781 C 1303.375 41.445312 1305.425781 40.859375 1305.425781 40.703125 C 1307.300781 40.5 1310.601562 41.332031 1311.1875 40.667969 C 1311.976562 40.679688 1314.890625 40.949219 1314.179688 41.140625 C 1315.964844 40.738281 1320.863281 40.679688 1324.832031 41.074219 C 1322.46875 41.242188 1322.738281 41.175781 1320.699219 41.660156 C 1322.117188 41.875 1323.566406 42.019531 1324.984375 42.234375 C 1326.316406 42.144531 1323.777344 41.59375 1325.539062 41.792969 C 1326.449219 41.332031 1323.535156 41.785156 1322.878906 41.773438 C 1322.625 41.175781 1327.890625 40.828125 1330.039062 41.480469 C 1332.976562 41.546875 1336.210938 40.410156 1339.015625 41.03125 C 1339.625 40.917969 1340.246094 40.804688 1340.867188 40.691406 C 1342.316406 40.882812 1340.710938 41.050781 1340.734375 41.222656 C 1342.472656 41.390625 1344.402344 40.703125 1346.085938 41.097656 C 1346.929688 41.445312 1344.347656 41.320312 1343.769531 41.523438 C 1348.777344 41.332031 1353.5 41.019531 1356.558594 41.738281 C 1358.042969 41.726562 1359.496094 41.816406 1361.058594 41.421875 C 1360.058594 41.265625 1359.839844 41.121094 1360.726562 40.972656 C 1362.410156 41.433594 1367.320312 40.894531 1370.367188 41.421875 C 1369.28125 41.648438 1368.195312 41.851562 1367.207031 41.660156 C 1368.027344 41.976562 1372.714844 42.03125 1375.074219 42.097656 C 1377.214844 41.671875 1373.546875 42.074219 1372.96875 41.636719 C 1374.523438 41.34375 1375.929688 41.648438 1377.46875 41.320312 C 1377.160156 41.164062 1377.214844 41.019531 1378.023438 40.871094 C 1376.914062 40.613281 1376.40625 40.828125 1376.351562 40.5 C 1376.9375 40.488281 1377.535156 40.46875 1378.15625 40.34375 C 1380.261719 41.039062 1380.9375 40.859375 1383.707031 41.199219 C 1382.136719 41.625 1380.828125 40.917969 1379.242188 41.332031 C 1380.195312 41.683594 1381.28125 41.46875 1382.234375 41.804688 C 1381.394531 41.445312 1385.527344 41.199219 1387.242188 41.230469 C 1387.664062 41.355469 1386.757812 41.46875 1386.28125 41.582031 C 1387.355469 42.019531 1388.617188 41.636719 1389.726562 41.976562 C 1390.511719 41.804688 1388.585938 41.601562 1388.972656 41.433594 C 1392.132812 41.140625 1395.121094 41.625 1398.269531 41.433594 C 1398.390625 40.960938 1396.007812 41.480469 1394.78125 41.222656 C 1394.523438 41.128906 1394.824219 41.039062 1394.402344 40.949219 C 1396.617188 41.140625 1397.296875 40.804688 1399.800781 40.648438 " fill-opacity="1" fill-rule="evenodd"/></g><path fill="#e54b4b" d="M 1162.582031 30.554688 C 1163.367188 30.371094 1161.441406 30.183594 1161.828125 30 C 1162.292969 29.921875 1162.703125 30.058594 1163.136719 30.101562 C 1163.855469 29.878906 1163.457031 29.777344 1162.328125 29.742188 C 1163.945312 29.40625 1165.496094 29.40625 1167.058594 29.28125 L 1157.550781 29.28125 C 1158.679688 29.496094 1159.898438 29.382812 1161.0625 29.460938 C 1161.363281 29.910156 1158.183594 29.335938 1157.03125 29.6875 C 1159.765625 30.304688 1155.765625 29.910156 1154.714844 30.113281 C 1158.859375 30.789062 1158.59375 30.058594 1162.582031 30.554688 " fill-opacity="1" fill-rule="evenodd"/><path fill="#e54b4b" d="M 1181.023438 29.394531 C 1181.488281 29.574219 1179.925781 29.730469 1181.777344 29.933594 C 1183.925781 29.269531 1190.730469 29.167969 1190.652344 29.84375 C 1192.582031 29.800781 1194.417969 30.136719 1196.457031 29.628906 C 1198.71875 30.371094 1202.453125 29.550781 1203.40625 30.238281 C 1205.957031 29.191406 1211.453125 30.867188 1215.410156 30.082031 C 1219.03125 30.351562 1222.777344 30.101562 1226.390625 30.464844 C 1227.566406 30.722656 1224.128906 30.464844 1226.300781 30.8125 C 1232.398438 30.035156 1238.003906 31.238281 1244.023438 30.8125 C 1243.324219 30.632812 1242.558594 30.722656 1241.882812 30.519531 C 1241.539062 30.394531 1242.515625 30.28125 1241.960938 30.160156 C 1244.597656 30.273438 1247.136719 30.722656 1249.796875 30.777344 C 1250.304688 30.554688 1249.097656 30.597656 1248.53125 30.496094 C 1247.8125 30.171875 1250.503906 30.585938 1251.269531 30.171875 C 1251.347656 30.40625 1251.78125 30.496094 1252.941406 30.542969 C 1255.449219 29.539062 1259.890625 30.957031 1263.636719 30.28125 C 1265.175781 30.542969 1265.109375 30.777344 1263.472656 31.003906 C 1264.566406 31.328125 1265.820312 31.015625 1266.960938 31.21875 C 1267.449219 31.070312 1266.285156 30.914062 1265.730469 30.753906 C 1267.007812 30.382812 1268.160156 30.496094 1269.355469 30.429688 C 1269.988281 30.621094 1269.519531 30.789062 1268.347656 30.957031 C 1271.515625 30.644531 1274.542969 30.980469 1277.644531 30.957031 C 1278.109375 31.136719 1276.546875 31.308594 1278.398438 31.5 C 1280.359375 30.597656 1289.644531 31.316406 1292.714844 30.925781 C 1293.625 31.375 1297.171875 31.296875 1294.3125 31.65625 C 1296.195312 31.769531 1296.40625 31.53125 1296.628906 31.238281 C 1298.5 31.195312 1298.777344 32.105469 1301.382812 31.722656 C 1300.574219 31.410156 1299.609375 31.710938 1298.777344 31.519531 C 1299.386719 31.441406 1299.507812 31.351562 1299.277344 31.261719 C 1303.699219 31.339844 1307.988281 31.890625 1312.574219 31.21875 C 1312.351562 31.710938 1312.730469 31.644531 1314.136719 32.117188 C 1315.554688 31.871094 1313.804688 31.578125 1313.007812 31.308594 C 1315.535156 30.597656 1317.617188 31.789062 1320.109375 31.195312 C 1322.746094 31.554688 1318.859375 31.835938 1320.320312 32.183594 C 1322.003906 31.871094 1321.207031 31.53125 1321.882812 31.21875 C 1323.644531 30.914062 1323.554688 31.578125 1324.488281 31.417969 C 1324.917969 31.578125 1323.679688 31.710938 1323.058594 31.847656 C 1324.574219 31.992188 1327.046875 31.757812 1326.25 31.429688 C 1329.230469 32.0625 1329.273438 31.519531 1331.390625 32.195312 C 1334.359375 31.871094 1334.605469 32.015625 1337.585938 32.261719 C 1338.019531 32.027344 1336.457031 31.769531 1338.640625 31.554688 C 1337.941406 31.398438 1337.230469 31.238281 1336.535156 31.09375 C 1334.914062 31.058594 1335.65625 31.542969 1333.886719 31.058594 C 1332.933594 31.171875 1333.332031 31.296875 1333.785156 31.417969 C 1331.058594 31.363281 1322.492188 31.488281 1324.242188 30.609375 C 1323.414062 30.394531 1322.402344 30.867188 1321.507812 30.945312 C 1320.078125 30.5625 1321.351562 30.28125 1323.023438 30.160156 C 1322.136719 30.035156 1317.605469 30.046875 1319.402344 30.472656 C 1317.449219 30.597656 1315.644531 30.183594 1313.59375 30.6875 C 1312.839844 30.472656 1315.523438 30.28125 1315.066406 30.082031 C 1313.617188 29.699219 1308.941406 30.351562 1310.324219 29.585938 C 1309.238281 29.359375 1308.683594 29.84375 1309.347656 29.933594 C 1307.730469 29.933594 1306.113281 29.890625 1304.550781 29.617188 C 1304.097656 29.765625 1304.5625 29.910156 1303.996094 30.058594 C 1302.933594 30.203125 1301.957031 29.96875 1300.882812 30.113281 C 1300.839844 29.96875 1301.09375 29.820312 1301.4375 29.675781 C 1297.515625 30 1293.703125 29.933594 1289.902344 29.742188 C 1288.9375 29.484375 1291.285156 29.71875 1291.75 29.40625 C 1290.789062 29.203125 1289.746094 29.371094 1288.757812 29.28125 L 1281.257812 29.28125 C 1281.222656 29.292969 1281.191406 29.28125 1281.144531 29.292969 C 1281.101562 29.292969 1281.078125 29.28125 1281.035156 29.28125 L 1178.640625 29.28125 C 1179.414062 29.382812 1180.179688 29.550781 1181.023438 29.394531 " fill-opacity="1" fill-rule="evenodd"/><path fill="#e54b4b" d="M 1127.828125 29.28125 C 1126.300781 30.171875 1133.324219 29.730469 1135.6875 30.011719 C 1136.605469 29.539062 1133.714844 29.910156 1133.125 29.628906 C 1132.417969 29.246094 1135.1875 29.382812 1135.851562 29.304688 C 1138.578125 30.484375 1144.652344 29.820312 1148.90625 30.328125 C 1150.636719 30.136719 1148.640625 29.898438 1150.378906 29.71875 C 1150.988281 29.640625 1151.523438 29.84375 1152.144531 29.730469 C 1152.574219 29.890625 1151.34375 30.023438 1150.714844 30.160156 C 1151.976562 30.40625 1153.316406 30.417969 1154.714844 30.113281 C 1154.8125 29.933594 1153.304688 29.742188 1154.835938 29.585938 C 1153.992188 29.394531 1153.039062 29.699219 1152.230469 29.371094 C 1152.53125 29.304688 1152.808594 29.292969 1153.097656 29.28125 L 1148.996094 29.28125 C 1147.808594 29.539062 1146.691406 29.484375 1145.582031 29.394531 C 1145.882812 29.347656 1146.179688 29.316406 1146.480469 29.28125 L 1127.828125 29.28125 " fill-opacity="1" fill-rule="evenodd"/></svg>