<svg xmlns="http://www.w3.org/2000/svg" xmlns:xlink="http://www.w3.org/1999/xlink" width="500" zoomAndPan="magnify" viewBox="0 0 375 374.999991" height="500" preserveAspectRatio="xMidYMid meet" version="1.0"><defs><clipPath id="2f74649c2e"><path d="M 36 64 L 314 64 L 314 270 L 36 270 Z M 36 64 " clip-rule="nonzero"/></clipPath><clipPath id="5d5aa79c19"><path d="M 0 185.941406 L 307.816406 49.378906 L 375.035156 200.886719 L 67.21875 337.453125 Z M 0 185.941406 " clip-rule="nonzero"/></clipPath><clipPath id="7f41b985dd"><path d="M 0 185.941406 L 307.816406 49.378906 L 375.035156 200.886719 L 67.21875 337.453125 Z M 0 185.941406 " clip-rule="nonzero"/></clipPath><clipPath id="b8cace8cde"><path d="M 64 121 L 342 121 L 342 327 L 64 327 Z M 64 121 " clip-rule="nonzero"/></clipPath><clipPath id="667030f7d9"><path d="M 0 185.941406 L 307.816406 49.378906 L 375.035156 200.886719 L 67.21875 337.453125 Z M 0 185.941406 " clip-rule="nonzero"/></clipPath><clipPath id="f557ad7461"><path d="M 0 185.941406 L 307.816406 49.378906 L 375.035156 200.886719 L 67.21875 337.453125 Z M 0 185.941406 " clip-rule="nonzero"/></clipPath></defs><g clip-path="url(#2f74649c2e)"><g clip-path="url(#5d5aa79c19)"><g clip-path="url(#7f41b985dd)"><path fill="#e54b4b" d="M 64.226562 269.140625 L 36.597656 268.4375 C 37.628906 229.863281 52.511719 209.167969 64.835938 198.585938 C 79.558594 185.960938 99.121094 180.4375 119.898438 183.0625 C 130.203125 184.367188 144.492188 185.679688 149.476562 182.105469 C 154.09375 178.828125 156.5 165.964844 157.898438 156.613281 C 159.160156 148.175781 165.226562 119.4375 190.421875 103.667969 C 201.890625 96.496094 221.570312 89.847656 250.183594 98.828125 C 258.460938 101.425781 269.6875 103.589844 276.226562 99.109375 C 284.398438 93.5 285.402344 77.886719 285.878906 70.378906 C 285.957031 68.488281 286.132812 66.609375 286.398438 64.734375 L 313.648438 69.320312 L 313.660156 69.214844 C 313.609375 69.65625 313.519531 71.023438 313.441406 72.132812 C 312.742188 83.058594 311.105469 108.664062 291.828125 121.882812 C 289.78125 123.292969 287.625 124.5 285.355469 125.511719 C 273.65625 130.699219 259.070312 130.59375 241.855469 125.171875 C 226.917969 120.472656 214.558594 121.128906 205.050781 127.078125 C 192.976562 134.625 186.816406 149.886719 185.210938 160.660156 C 183.5625 171.683594 181.738281 179.417969 179.289062 185.738281 C 176.074219 194.066406 171.574219 200.214844 165.550781 204.535156 C 153.574219 213.117188 137.863281 213.164062 116.402344 210.480469 C 103.289062 208.816406 91.675781 211.949219 82.828125 219.507812 C 71.253906 229.476562 64.816406 246.628906 64.226562 269.140625 Z M 64.226562 269.140625 " fill-opacity="1" fill-rule="nonzero"/></g></g></g><g clip-path="url(#b8cace8cde)"><g clip-path="url(#667030f7d9)"><g clip-path="url(#f557ad7461)"><path fill="#ffa987" d="M 92.507812 326.070312 L 64.882812 325.367188 C 65.914062 286.796875 80.796875 266.101562 93.117188 255.519531 C 107.832031 242.898438 127.402344 237.371094 148.179688 239.996094 C 165.378906 242.183594 177.304688 241.082031 184.628906 236.664062 C 189.082031 234 195.300781 228.34375 198.03125 210.054688 C 200.59375 192.898438 207.421875 179.457031 218.335938 170.144531 C 231.621094 158.78125 250.722656 153.734375 275.117188 155.140625 C 308.691406 157.070312 310.964844 143.769531 314.691406 121.65625 L 341.941406 126.242188 C 339.191406 142.46875 335.097656 166.625 310.820312 177.394531 C 301.625 181.472656 289.527344 183.636719 273.503906 182.710938 C 235.546875 180.527344 227.84375 197.371094 225.367188 214.113281 C 221.191406 242.070312 208.636719 256.355469 193.292969 263.164062 C 177.949219 269.972656 159.980469 269.304688 144.683594 267.359375 C 131.554688 265.710938 119.941406 268.84375 111.105469 276.429688 C 99.535156 286.410156 93.097656 303.5625 92.507812 326.070312 Z M 92.507812 326.070312 " fill-opacity="1" fill-rule="nonzero"/></g></g></g></svg>