<svg width="35" height="29" viewBox="0 0 35 29" fill="none" xmlns="http://www.w3.org/2000/svg">
<path d="M34.4782 4.18351C33.2076 4.74053 31.8474 5.12375 30.4138 5.29755C31.8766 4.41992 32.9949 3.03168 33.5282 1.37788C32.1562 2.17672 30.6384 2.75533 29.0245 3.08242C27.7378 1.70497 25.8983 0.838135 23.857 0.838135C19.9438 0.838135 16.7722 4.00863 16.7722 7.91642C16.7722 8.47884 16.8402 9.01859 16.9579 9.53027C11.0714 9.255 5.85305 6.42671 2.36303 2.15405C1.74987 3.19468 1.40119 4.40372 1.40119 5.71964C1.40119 8.18198 2.65449 10.341 4.54901 11.6105C3.39071 11.577 2.30042 11.2564 1.34506 10.7285V10.8138C1.34506 14.2477 3.78473 17.1105 7.02323 17.7625C6.43274 17.9191 5.80231 18.0097 5.16217 18.0097C4.7077 18.0097 4.27374 17.9655 3.84086 17.8856C4.75196 20.6966 7.36003 22.7434 10.469 22.8049C8.05199 24.6994 4.98837 25.8286 1.68726 25.8286C1.12484 25.8286 0.563499 25.8016 0 25.7336C3.1489 27.7414 6.86562 28.9159 10.8803 28.9159C23.9066 28.9159 31.0248 18.1263 31.0248 8.78218C31.0248 8.48424 31.0248 8.1809 31.0022 7.87648C32.3915 6.88658 33.594 5.6322 34.544 4.21049L34.4782 4.18351Z" fill="#FFA987"/>
</svg>
