<svg xmlns="http://www.w3.org/2000/svg" xmlns:xlink="http://www.w3.org/1999/xlink" width="500" zoomAndPan="magnify" viewBox="0 0 375 149.999998" height="200" preserveAspectRatio="xMidYMid meet" version="1.0"><defs><clipPath id="8afad4a647"><path d="M 50 0 L 325.25 0 L 325.25 150 L 50 150 Z M 50 0 " clip-rule="nonzero"/></clipPath></defs><g clip-path="url(#8afad4a647)"><path fill="#1e1e24" d="M 321.597656 146.347656 C 319.332031 148.609375 316.203125 150.023438 312.738281 150.023438 C 309.273438 150.023438 306.144531 148.621094 303.878906 146.347656 L 187.625 30.175781 L 71.371094 146.347656 C 69.105469 148.609375 65.964844 150.011719 62.511719 150.011719 C 55.59375 150.011719 49.988281 144.410156 49.988281 137.5 C 49.988281 134.046875 51.390625 130.910156 53.652344 128.648438 L 178.765625 3.652344 C 181.03125 1.390625 184.160156 -0.0234375 187.625 -0.0234375 C 191.089844 -0.0234375 194.21875 1.378906 196.484375 3.652344 L 321.597656 128.648438 C 323.859375 130.910156 325.273438 134.035156 325.273438 137.5 C 325.273438 140.960938 323.875 144.085938 321.597656 146.347656 Z M 321.597656 146.347656 " fill-opacity="1" fill-rule="nonzero"/></g></svg>