<svg width="35" height="25" viewBox="0 0 35 25" fill="none" xmlns="http://www.w3.org/2000/svg">
<path d="M34.2225 4.09683C33.8122 2.64014 32.6762 1.49767 31.213 1.09382C28.5189 0.37357 17.6882 0.37357 17.6882 0.37357C17.6882 0.37357 6.87797 0.356292 4.15571 1.09382C2.7001 1.49875 1.55872 2.64014 1.1527 4.09683C0.641939 6.85796 0.388179 9.65256 0.400057 12.4601C0.394657 15.2493 0.647338 18.0396 1.1527 20.7835C1.55872 22.2402 2.7001 23.3826 4.15571 23.793C6.84989 24.5132 17.6882 24.5132 17.6882 24.5132C17.6882 24.5132 28.4919 24.5132 31.213 23.793C32.6762 23.3826 33.8122 22.2412 34.2225 20.7835C34.7182 18.0396 34.9601 15.2493 34.9428 12.4601C34.9601 9.65256 34.7236 6.85796 34.2225 4.09683V4.09683ZM14.2284 17.6293V7.26829L23.2439 12.4601L14.2284 17.6293Z" fill="#FFA987"/>
</svg>
