<svg xmlns="http://www.w3.org/2000/svg" xmlns:xlink="http://www.w3.org/1999/xlink" width="500" zoomAndPan="magnify" viewBox="0 0 375 374.999991" height="500" preserveAspectRatio="xMidYMid meet" version="1.0"><path fill="#e54b4b" d="M 99.292969 43.667969 C 97.542969 44.5 96.726562 44.789062 96.011719 45.230469 C 35.527344 83.960938 6.320312 151.777344 19.890625 221.515625 C 37.074219 309.859375 122.980469 374.9375 223.238281 353.804688 C 310.21875 335.488281 368.550781 248.320312 353.140625 161.253906 C 335.496094 61.542969 239.875 0.0625 141.859375 25.234375 C 137.042969 26.480469 135.023438 28.160156 135.0625 33.429688 C 135.335938 59.933594 135.203125 86.433594 135.265625 112.9375 C 135.265625 114.714844 135.652344 116.492188 135.867188 118.300781 C 136.871094 118.125 137.101562 118.140625 137.289062 118.039062 C 138.4375 117.410156 139.585938 116.78125 140.710938 116.125 C 169.863281 99.324219 199.648438 98.191406 228.703125 115.109375 C 257.707031 132.011719 271.695312 158.152344 271.265625 192.042969 C 270.652344 240.320312 225.511719 279.699219 176.699219 274.164062 C 132.789062 269.1875 100.113281 232.539062 100.058594 188.445312 C 100.015625 142.664062 99.785156 96.890625 99.628906 51.109375 C 99.609375 48.972656 99.441406 46.832031 99.292969 43.667969 Z M 99.292969 43.667969 " fill-opacity="1" fill-rule="evenodd"/><path fill="#e54b4b" d="M 161.128906 188.976562 L 161.003906 188.976562 C 161.003906 195.757812 160.988281 202.519531 161.003906 209.300781 C 161.015625 211.695312 161.046875 214.105469 161.117188 216.511719 C 161.484375 228.941406 170.945312 234.332031 181.191406 227.316406 C 194.890625 217.945312 208.1875 207.992188 221.402344 197.964844 C 227.980469 192.972656 228.050781 185.21875 221.472656 180.117188 C 208.171875 169.828125 194.730469 159.691406 180.890625 150.171875 C 170.972656 143.351562 161.445312 148.738281 161.171875 160.785156 C 160.976562 170.183594 161.128906 179.570312 161.128906 188.976562 Z M 161.128906 188.976562 " fill-opacity="1" fill-rule="evenodd"/><path fill="#e54b4b" d="M 99.292969 43.667969 C 99.433594 46.839844 99.609375 48.972656 99.625 51.109375 C 99.785156 96.890625 100.007812 142.664062 100.050781 188.445312 C 100.105469 232.539062 132.785156 269.1875 176.691406 274.164062 C 225.496094 279.699219 270.644531 240.320312 271.257812 192.042969 C 271.6875 158.152344 257.707031 132.011719 228.695312 115.109375 C 199.648438 98.191406 169.855469 99.324219 140.703125 116.125 C 139.570312 116.78125 138.421875 117.410156 137.28125 118.039062 C 137.09375 118.140625 136.871094 118.125 135.863281 118.300781 C 135.644531 116.492188 135.261719 114.714844 135.261719 112.9375 C 135.203125 86.433594 135.332031 59.925781 135.058594 33.429688 C 135.015625 28.152344 137.039062 26.480469 141.851562 25.234375 C 239.875 0.0625 335.496094 61.542969 353.148438 161.253906 C 368.558594 248.320312 310.226562 335.488281 223.246094 353.804688 C 122.988281 374.929688 37.074219 309.851562 19.890625 221.515625 C 6.320312 151.777344 35.527344 83.960938 96.011719 45.230469 C 96.734375 44.789062 97.542969 44.5 99.292969 43.667969 Z M 99.292969 43.667969 " fill-opacity="1" fill-rule="evenodd"/><path fill="#e54b4b" d="M 161.128906 188.976562 C 161.128906 179.578125 160.96875 170.183594 161.171875 160.785156 C 161.445312 148.746094 170.972656 143.355469 180.890625 150.171875 C 194.730469 159.691406 208.171875 169.828125 221.472656 180.117188 C 228.050781 185.21875 227.980469 192.972656 221.402344 197.964844 C 208.191406 208 194.890625 217.945312 181.191406 227.316406 C 170.945312 234.332031 161.484375 228.933594 161.117188 216.511719 C 161.046875 214.105469 161.015625 211.695312 161.003906 209.300781 C 160.988281 202.519531 161.003906 195.757812 161.003906 188.976562 Z M 161.128906 188.976562 " fill-opacity="1" fill-rule="evenodd"/></svg>