<svg xmlns="http://www.w3.org/2000/svg" xmlns:xlink="http://www.w3.org/1999/xlink" width="500" zoomAndPan="magnify" viewBox="0 0 375 374.999991" height="500" preserveAspectRatio="xMidYMid meet" version="1.0"><path fill="#e54b4b" d="M 0 297.671875 C 0 339.84375 34.6875 375 77.328125 375 L 297.671875 375 C 340.296875 375 375 340.296875 375 297.671875 L 375 77.34375 C 375 35.15625 340.296875 0 297.671875 0 L 77.328125 0 C 35.15625 0 0 34.703125 0 77.34375 Z M 103.84375 74.3125 L 206.25 74.3125 C 255.953125 74.3125 294.40625 100.09375 294.40625 158.6875 C 294.40625 214.234375 251.75 247.03125 193.609375 247.03125 L 193.359375 247.03125 L 193.359375 247.046875 L 174.15625 247.046875 L 174.15625 290.625 C 174.15625 296.265625 169.453125 300.71875 164.0625 300.71875 L 103.84375 300.71875 Z M 103.84375 74.3125 " fill-opacity="1" fill-rule="nonzero"/></svg>