<svg xmlns="http://www.w3.org/2000/svg" xmlns:xlink="http://www.w3.org/1999/xlink" width="500" zoomAndPan="magnify" viewBox="0 0 375 374.999991" height="500" preserveAspectRatio="xMidYMid meet" version="1.0"><path fill="#e54b4b" d="M 98.375 182.433594 L 96.316406 182.425781 C 96 182.425781 95.78125 182.648438 95.503906 182.746094 L 95.789062 147.496094 C 95.863281 138.679688 89.753906 131.496094 82.140625 131.46875 C 74.53125 131.4375 68.304688 138.558594 68.230469 147.375 L 67.242188 268.683594 C 67.164062 277.5 73.277344 284.683594 80.890625 284.714844 C 88.5 284.742188 94.726562 277.621094 94.800781 268.804688 L 95.09375 233.328125 C 95.371094 233.433594 95.339844 233.875 95.65625 233.875 L 98.1875 233.882812 C 99.53125 233.890625 100.625 232.847656 100.640625 231.558594 L 101.023438 184.996094 C 101.039062 183.585938 99.847656 182.441406 98.375 182.433594 Z M 11.261719 182.050781 C 9.09375 187.402344 8.757812 228.132812 10.839844 233.507812 C 14.554688 243.074219 22.539062 247.304688 22.539062 247.304688 L 23.183594 168.359375 C 23.183594 168.359375 15.128906 172.511719 11.261719 182.050781 Z M 364.191406 183.59375 C 360.480469 174.019531 352.492188 169.800781 352.492188 169.800781 L 351.847656 248.742188 C 351.847656 248.742188 359.910156 244.589844 363.773438 235.054688 C 365.949219 229.699219 366.277344 188.96875 364.191406 183.59375 Z M 294.144531 132.390625 C 286.535156 132.359375 280.308594 139.480469 280.234375 148.296875 L 279.949219 183.550781 C 279.664062 183.453125 279.453125 183.226562 279.140625 183.226562 L 277.078125 183.21875 C 275.605469 183.210938 274.398438 184.351562 274.386719 185.769531 L 274.003906 232.332031 C 273.996094 233.621094 275.074219 234.671875 276.417969 234.679688 L 278.953125 234.6875 C 279.265625 234.6875 279.25 234.242188 279.527344 234.140625 L 279.238281 269.613281 C 279.160156 278.429688 285.273438 285.613281 292.886719 285.644531 C 300.496094 285.671875 306.71875 278.550781 306.796875 269.734375 L 307.785156 148.425781 C 307.867188 139.601562 301.757812 132.425781 294.144531 132.390625 Z M 331.421875 147.414062 L 331.542969 133.101562 C 331.566406 130.378906 329.277344 128.160156 326.441406 128.152344 L 325.394531 128.144531 C 318.1875 84.191406 300.953125 61.257812 289.667969 50.539062 C 291.648438 31.300781 255.140625 15.300781 242.890625 10.8125 C 214.054688 0.261719 189.226562 0.148438 189.226562 0.148438 C 189.226562 0.148438 164.398438 0.0390625 135.390625 10.347656 C 123.0625 14.722656 86.296875 30.40625 87.96875 49.660156 C 76.503906 60.285156 58.894531 83.066406 50.96875 126.945312 L 49.925781 126.9375 C 47.089844 126.925781 44.765625 129.121094 44.742188 131.84375 L 44.625 146.152344 C 41.265625 147.503906 37.964844 149.476562 35.160156 152.511719 C 25.425781 163.074219 24.699219 252.597656 34.253906 263.25 C 44.765625 274.96875 62.972656 272.097656 62.972656 272.097656 L 64.046875 141.332031 C 69.589844 97.320312 85.109375 74.070312 95.570312 63.042969 C 107.429688 73.199219 115.984375 53.070312 145.933594 42.1875 C 167.007812 34.53125 188.941406 33.691406 188.941406 33.691406 C 188.941406 33.691406 210.867188 34.71875 231.804688 42.558594 C 261.578125 53.707031 269.808594 73.914062 281.824219 63.851562 C 292.105469 74.984375 307.253906 98.382812 312.066406 142.488281 L 310.996094 273.183594 C 310.996094 273.183594 329.15625 276.210938 339.859375 264.589844 C 349.59375 254.019531 350.320312 164.507812 340.765625 153.851562 C 338.027344 150.792969 334.765625 148.792969 331.421875 147.414062 Z M 264.304688 94.738281 L 219.816406 94.738281 L 219.816406 328.632812 C 219.816406 333.59375 218.203125 333.59375 216.644531 333.59375 C 215.066406 333.59375 214.753906 333.121094 214.609375 332.90625 C 213.914062 331.847656 213.5625 330.242188 213.5625 328.121094 L 213.5625 291.394531 L 192.78125 291.394531 L 192.78125 286.984375 C 192.78125 286.65625 192.511719 286.386719 192.179688 286.386719 L 138.871094 286.386719 C 138.542969 286.386719 138.269531 286.65625 138.269531 286.984375 L 138.269531 291.714844 L 124.203125 295.570312 L 124.203125 296.5 L 138.269531 300.351562 L 138.269531 305.082031 C 138.269531 305.414062 138.542969 305.683594 138.871094 305.683594 L 192.179688 305.683594 C 192.511719 305.683594 192.78125 305.414062 192.78125 305.082031 L 192.78125 300.675781 L 204.261719 300.675781 L 204.261719 328.105469 C 204.261719 332.078125 205.132812 335.410156 206.855469 338.015625 C 208.328125 340.230469 211.214844 342.875 216.644531 342.875 C 224.449219 342.875 229.113281 337.546875 229.113281 328.617188 L 229.113281 104.027344 L 255.015625 104.027344 L 255.015625 325.167969 C 255.015625 333.578125 253.371094 340.925781 250.132812 346.992188 C 246.929688 352.945312 242.460938 357.597656 236.84375 360.824219 C 231.191406 364.0625 224.523438 365.703125 217.03125 365.703125 C 209.902344 365.703125 203.339844 364.316406 197.496094 361.574219 C 191.867188 358.949219 187.335938 354.984375 184.03125 349.773438 C 180.730469 344.578125 179.050781 337.996094 179.050781 330.214844 L 179.050781 314.777344 L 169.75 314.777344 L 169.75 330.214844 C 169.75 339.785156 171.910156 348.046875 176.179688 354.757812 C 180.453125 361.492188 186.300781 366.617188 193.5625 369.992188 C 200.625 373.3125 208.519531 375 217.03125 375 C 226.160156 375 234.378906 372.945312 241.472656 368.890625 C 248.617188 364.78125 254.289062 358.894531 258.328125 351.382812 C 262.296875 343.949219 264.3125 335.125 264.3125 325.175781 L 264.3125 214.585938 L 268.242188 214.585938 L 268.242188 205.289062 L 264.3125 205.289062 L 264.3125 94.738281 Z M 117.949219 261.742188 L 117.949219 278.46875 L 169.40625 278.46875 C 185.5 278.46875 197.03125 273.214844 203.667969 262.851562 C 209.921875 253.152344 213.097656 239.433594 213.097656 222.074219 L 213.097656 140.417969 C 213.097656 125.851562 209.480469 114.515625 202.371094 106.734375 C 195.160156 98.773438 184.457031 94.730469 170.570312 94.730469 L 117.949219 94.730469 L 117.949219 203.101562 L 105.652344 203.347656 L 105.839844 212.636719 L 127.246094 212.210938 L 127.246094 104.027344 L 170.570312 104.027344 C 181.71875 104.027344 190.105469 107.042969 195.496094 112.996094 C 201.007812 119.023438 203.804688 128.25 203.804688 140.417969 L 203.804688 222.070312 C 203.804688 237.609375 201.136719 249.636719 195.855469 257.820312 C 190.957031 265.460938 182.304688 269.171875 169.40625 269.171875 L 127.246094 269.171875 L 127.246094 261.742188 Z M 177.992188 233.679688 L 177.992188 143.703125 C 177.992188 136.394531 176.890625 131.945312 174.453125 129.324219 C 171.933594 126.558594 167.832031 125.265625 161.554688 125.265625 L 153.058594 125.265625 L 153.058594 247.640625 L 163.738281 247.640625 C 172.660156 247.640625 177.992188 242.421875 177.992188 233.679688 Z M 168.695312 233.679688 C 168.695312 236.90625 167.972656 238.34375 163.730469 238.34375 L 162.351562 238.34375 L 162.351562 134.570312 C 166.578125 134.675781 167.570312 135.574219 167.585938 135.589844 C 167.628906 135.652344 168.695312 137.128906 168.695312 143.703125 Z M 168.695312 233.679688 " fill-opacity="1" fill-rule="nonzero"/></svg>