<svg xmlns="http://www.w3.org/2000/svg" xmlns:xlink="http://www.w3.org/1999/xlink" width="500" zoomAndPan="magnify" viewBox="0 0 375 374.999991" height="500" preserveAspectRatio="xMidYMid meet" version="1.0"><path fill="#e54b4b" d="M 48.378906 137.855469 C 41.839844 144.921875 36.800781 149.578125 33.417969 151.730469 C 26.234375 156.453125 20.714844 159.488281 16.996094 160.652344 C 18.742188 164.335938 21.867188 165.914062 26.40625 165.460938 L 26.574219 165.449219 C 29.304688 165.175781 32.179688 164.316406 35.25 162.765625 L 35.726562 162.71875 L 5.105469 223.765625 C 1.976562 229.972656 0.175781 233.660156 0.175781 235.050781 L 0.175781 235.847656 C 0.175781 236.9375 0.488281 238.003906 1.078125 239.113281 C 5.613281 243.089844 9.417969 245.421875 12.542969 245.980469 L 12.800781 245.953125 L 23.363281 224.4375 C 24.011719 223.050781 41.757812 201.839844 76.265625 160.496094 C 76.265625 160.867188 66.773438 180.09375 47.445312 218.15625 C 43.671875 225.597656 41.589844 230.035156 41.589844 231.5 C 41.925781 232.859375 42.09375 233.5625 42.09375 233.785156 C 44.488281 237.40625 48.519531 240.0625 54.238281 241.828125 L 54.460938 241.808594 C 56.546875 237.296875 61.082031 228.089844 68.265625 214.195312 C 69.816406 212.371094 81.140625 200.601562 102.4375 178.957031 C 110.496094 170.714844 114.605469 166.601562 114.605469 166.378906 L 114.773438 166.359375 C 113.703125 168.132812 113.113281 168.988281 112.972656 169.003906 C 87.5625 206.871094 74.855469 236.492188 74.855469 257.707031 C 74.855469 272.929688 81.535156 282.6875 94.941406 287.09375 C 94.941406 286.945312 95.027344 286.863281 95.195312 286.847656 C 92.859375 281.035156 91.703125 274.734375 91.703125 267.96875 L 91.703125 267.746094 C 91.703125 248.867188 99.308594 226.273438 113.621094 199.332031 C 120.210938 186.9375 130.636719 171.195312 145.480469 152.359375 C 151.085938 146.925781 153.902344 142.789062 153.902344 139.953125 L 153.902344 138.933594 C 153.902344 135.054688 150.015625 131.585938 142.183594 128.511719 L 141.761719 128.550781 C 140.691406 129.230469 140.128906 129.664062 140.128906 129.734375 C 137.3125 130.957031 128.070312 139.316406 112.972656 155.171875 C 92.378906 176.816406 82.296875 187.949219 82.296875 188.246094 L 82.042969 188.273438 L 82.042969 188.050781 L 94.296875 165.339844 C 102.269531 150.464844 107.027344 142.929688 107.113281 142.125 L 107.113281 141.902344 C 107.113281 139.863281 101.449219 137.144531 90.042969 133.703125 C 89.648438 133.742188 87.085938 135.738281 83.027344 139.996094 C 71.054688 152.78125 57.703125 169.203125 42.265625 188.875 C 46.628906 180.503906 51.507812 171.488281 57.023438 161.835938 C 62.40625 152.394531 65.195312 147.242188 65.449219 146.273438 L 65.195312 145.28125 C 64.207031 143.488281 58.6875 140.980469 48.605469 137.828125 Z M 120.242188 215.363281 C 118.863281 218.136719 117.933594 220.195312 117.933594 221.636719 L 117.933594 222.308594 C 117.933594 224.347656 119.339844 226.398438 122.160156 228.429688 C 128.75 232.296875 133.199219 234.121094 135.511719 233.890625 L 136.835938 233.757812 C 138.074219 233.636719 139.734375 232.597656 141.707031 231.011719 C 146.074219 226.421875 151.117188 221.265625 156.722656 215.660156 C 156.5 216.652344 156.414062 217.382812 156.414062 218.027344 C 156.414062 220.292969 157.792969 222.492188 160.527344 224.484375 C 167.203125 228.394531 171.679688 230.289062 173.992188 230.058594 L 175.316406 229.925781 C 175.710938 229.882812 176.386719 229.667969 177.285156 229.207031 C 178.355469 229.101562 181.738281 225.429688 188.328125 218.65625 C 197.425781 209.214844 203.765625 202.742188 207.003906 198.789062 C 210.695312 194.195312 212.726562 190.410156 212.726562 187.277344 L 212.726562 186.40625 C 212.726562 185.109375 212.160156 184.074219 210.953125 183.296875 L 210.695312 183.324219 C 210.386719 185.46875 208.304688 188.8125 204.359375 193.15625 C 198.667969 199.324219 194.613281 203.230469 192.300781 204.902344 C 185.625 211.488281 180.921875 214.71875 178.609375 214.949219 C 178.1875 214.992188 177.539062 214.90625 176.609375 214.699219 C 182.808594 203.089844 190.242188 189.3125 199.398438 173.382812 C 203.117188 166.890625 205.175781 163.480469 205.175781 162.980469 L 205.175781 162.3125 C 205.175781 161.292969 204.191406 160.144531 201.964844 159.074219 C 200.046875 158.097656 195.289062 156.53125 187.765625 153.996094 L 187.679688 154.007812 L 166.46875 195.984375 C 166.46875 196.859375 161.847656 201.320312 152.777344 209.660156 C 146.328125 215.476562 142.296875 218.566406 140.296875 218.761719 C 139.648438 218.828125 138.972656 218.746094 138.242188 218.519531 L 138.15625 218.53125 C 146.070312 203.691406 154.410156 188.507812 163.34375 173.046875 C 165.480469 169.328125 166.71875 167.164062 166.71875 166.59375 C 166.71875 165.046875 165.480469 163.429688 162.492188 162.410156 L 149.3125 157.828125 L 149.058594 157.925781 Z M 244.699219 148.480469 C 243.066406 150.011719 241.742188 151.386719 240.898438 152.414062 C 239.6875 153.929688 238.753906 155.339844 238.023438 156.65625 C 237.292969 157.949219 236.613281 159.628906 235.96875 161.585938 C 234.558594 162.746094 233.488281 163.648438 232.5625 164.261719 C 228.953125 166.882812 224.8125 169.113281 220.195312 170.890625 C 218.703125 171.460938 217.972656 171.683594 217.972656 171.757812 C 219.773438 174.265625 222.335938 175.328125 225.71875 174.992188 C 228.109375 174.753906 230.757812 173.917969 233.660156 172.535156 L 233.746094 172.527344 C 233.746094 172.601562 233.746094 172.601562 233.746094 172.601562 C 233.746094 173.171875 233.746094 173.546875 233.660156 173.753906 L 232.648438 190.691406 C 232.335938 196.117188 231.914062 199.59375 231.574219 201.144531 C 230.757812 204.808594 229.347656 207.710938 227.464844 210.011719 C 227.042969 210.699219 225.886719 211.910156 223.996094 213.5625 C 221.265625 215.5 218.957031 216.628906 216.984375 216.824219 L 216.730469 216.851562 C 216.644531 216.859375 216.644531 216.859375 216.5625 216.917969 C 216.476562 216.878906 216.476562 216.878906 216.390625 216.886719 L 216.054688 216.871094 C 214.984375 216.976562 213.914062 216.808594 212.675781 216.410156 C 210.449219 215.238281 209.296875 213.832031 209.296875 212.019531 L 209.207031 211.53125 C 209.207031 209.144531 211.011719 205.980469 214.308594 201.773438 C 215.378906 200.449219 217.207031 198.425781 220.339844 195.796875 C 223.804688 192.820312 226.453125 191.238281 228.027344 190.878906 L 228.027344 190.804688 C 223.464844 184.46875 218.199219 181.5625 212.335938 182.21875 C 211.265625 182.324219 210.535156 182.472656 210.113281 182.589844 C 208.703125 182.953125 207.972656 183.175781 207.972656 183.25 C 205.578125 185.53125 203.859375 187.367188 202.789062 188.792969 C 196.957031 196.285156 194 202.625 194 207.75 L 194 208.023438 C 194 210.585938 194.847656 212.835938 196.566406 214.632812 C 197.128906 215.519531 198.621094 217.039062 200.988281 219.066406 C 202.5625 220.300781 204.113281 221.367188 205.578125 222.117188 C 211.101562 224.824219 216.792969 225.800781 222.484375 225.234375 L 223.664062 225.066406 C 228.03125 224.628906 232.566406 223.3125 237.132812 221.089844 C 242.484375 218.464844 246.371094 214.449219 248.765625 209.113281 C 249.5 207.347656 250.257812 204.808594 250.992188 201.53125 C 251.636719 198.328125 252.0625 191.796875 252.570312 181.996094 C 252.738281 178.097656 253.128906 175.074219 253.554688 173.066406 C 254.203125 169.941406 254.878906 167.6875 255.441406 166.386719 C 258.738281 162.203125 260.398438 158.832031 260.398438 156.417969 L 260.398438 155.921875 C 260.398438 155.273438 260.3125 154.757812 260.058594 154.289062 C 259.582031 152.867188 258.820312 151.996094 257.75 151.457031 C 256.03125 150.585938 254.199219 149.699219 252.480469 149.273438 C 249.242188 148.425781 246.707031 148.253906 244.707031 148.457031 L 244.707031 148.480469 Z M 286.363281 138.214844 C 291.492188 142.949219 297.601562 144.953125 304.703125 144.246094 L 305.351562 144.183594 C 311.914062 139.300781 317.832031 135.230469 323.042969 131.851562 L 323.042969 131.773438 C 317.914062 127.933594 312.054688 123.765625 305.691406 119.300781 L 305.605469 119.308594 L 286.363281 138.140625 Z M 255.011719 203.191406 C 254.023438 205.179688 253.347656 206.863281 253.347656 208.378906 L 253.347656 208.527344 C 253.347656 210.867188 254.671875 213.199219 257.660156 215.015625 C 264.082031 218.976562 268.535156 220.644531 270.929688 220.40625 L 271.773438 220.324219 C 274.25 220.078125 277.292969 217.808594 280.84375 213.523438 C 287.6875 206.652344 292.984375 201.523438 296.277344 197.839844 C 301.972656 191.675781 305.519531 187.246094 307.183594 184.664062 C 308.648438 182.179688 309.4375 179.914062 309.4375 177.875 L 309.4375 177.226562 C 309.4375 175.535156 308.816406 174.378906 307.492188 173.691406 L 307.40625 173.699219 L 307.40625 173.773438 C 307.40625 175.390625 305.691406 178.320312 302.054688 182.6875 C 299.746094 185.480469 295.546875 189.382812 289.914062 194.617188 C 282.503906 201.46875 277.882812 205.070312 275.800781 205.277344 L 275.238281 205.332031 C 274.734375 205.378906 274.167969 205.285156 273.40625 205.066406 C 281.914062 189.445312 290.421875 173.800781 299.410156 158.328125 C 300.988281 155.5625 302.058594 153.835938 302.058594 153.191406 C 302.058594 151.722656 300.648438 150.269531 297.691406 149.171875 L 284.476562 144.519531 Z M 335.015625 139.414062 C 329.15625 142.109375 321.972656 148.496094 313.800781 158.785156 C 309.773438 163.863281 306.535156 168.613281 304.140625 173.003906 C 296.394531 186.90625 292.757812 197.167969 292.757812 203.808594 L 292.757812 204.753906 C 292.757812 206.570312 293.011719 208.011719 293.578125 209.195312 C 294.253906 210.351562 295.832031 211.8125 298.226562 213.460938 C 302.929688 215.828125 306.398438 216.875 308.621094 216.652344 L 309.691406 216.550781 C 311.238281 216.394531 313.15625 215.484375 315.214844 213.8125 C 319.269531 209.902344 324.792969 205.074219 331.296875 198.878906 C 338.3125 192.285156 342.117188 188.027344 343.183594 186.402344 C 345.835938 183.425781 347.160156 180.683594 347.160156 178 C 347.160156 176.382812 346.425781 175.210938 344.933594 174.414062 L 344.679688 174.4375 C 344.425781 178.195312 337.160156 185.535156 323.128906 196.78125 C 318.199219 200.753906 314.789062 202.933594 312.820312 203.128906 C 312.085938 203.203125 311.101562 203.074219 310 202.8125 C 312.085938 192.632812 317.777344 181.492188 326.761719 169.234375 C 328.820312 166.390625 332.058594 162.4375 336.933594 157.5 C 340.398438 154.097656 343.441406 151.457031 346.175781 149.59375 L 346.429688 149.566406 C 347.976562 150.804688 349.046875 151.992188 349.640625 153.25 C 347.664062 157.179688 346.652344 160.539062 346.652344 163.394531 C 346.652344 165.289062 347.332031 166.960938 348.570312 168.378906 C 349.808594 169.925781 352.117188 170.9375 355.5 171.472656 C 357.386719 163.84375 361.101562 156.632812 366.484375 149.832031 C 368.289062 147.539062 371.019531 144.632812 374.824219 141.117188 C 371.328125 138.628906 367.132812 137.382812 362.089844 138.160156 L 358.707031 138.71875 C 356.484375 141.652344 355.078125 143.753906 354.34375 145.070312 L 354.175781 145.089844 C 351.300781 142.886719 348.484375 141.351562 345.667969 140.6875 C 340.875 139.550781 337.324219 139.183594 335.015625 139.414062 " fill-opacity="1" fill-rule="nonzero"/><path fill="#e54b4b" d="M 311.863281 94.613281 C 310.570312 96.1875 311.226562 95.253906 308.40625 92.265625 C 288.023438 71.019531 257.636719 56.542969 229.179688 49.941406 C 205.925781 44.730469 182.4375 45.804688 159.1875 50.554688 C 141.875 54.097656 120.824219 62.214844 107.367188 73.898438 C 89.320312 89.566406 81.496094 103.828125 72.917969 125.46875 C 71.90625 128.023438 70.523438 131.285156 69.867188 133.957031 C 68.484375 132.214844 68.867188 133.011719 69.296875 129.902344 C 70.710938 119.675781 72.644531 106.53125 78.976562 98.171875 C 100.199219 70.492188 115.417969 59.367188 147.949219 47.453125 C 171.007812 39.011719 203.078125 41.003906 226.976562 45.382812 C 258.433594 51.261719 288.042969 66.425781 310.949219 88.902344 C 312.808594 90.730469 314.5 92.535156 316.238281 94.476562 C 315.269531 94.460938 312.582031 94.203125 311.863281 94.613281 Z M 311.152344 296.425781 C 294.335938 312.269531 280.722656 320.324219 259.609375 329.378906 C 231.582031 341.40625 217.875 346.867188 186.402344 343.839844 C 167.570312 341.898438 134.242188 333.214844 118.378906 323.425781 C 99.589844 311.832031 72.808594 288.019531 63.402344 267.972656 C 62.132812 265.273438 61.0625 262.597656 59.992188 259.8125 C 61.082031 259.609375 63.003906 259.671875 63.34375 258.550781 C 63.546875 257.886719 65.972656 258.285156 66.757812 258.222656 C 68.613281 258.070312 67.722656 258.496094 69.019531 261.5625 C 80.296875 288.222656 110.828125 315.390625 137.460938 326.484375 C 158.398438 335.207031 177.910156 339.859375 200.597656 339.183594 C 225.460938 338.339844 241.621094 334.703125 263.34375 323.246094 C 281.679688 313.578125 310.210938 297.335938 320.234375 278.878906 C 328.308594 263.691406 333.148438 246.597656 340.261719 230.566406 C 340.796875 229.359375 343.589844 221.90625 344.460938 221.59375 C 348.292969 220.226562 347.835938 218.578125 345.710938 225.378906 C 337.128906 252.90625 333.0625 275.246094 311.152344 296.425781 " fill-opacity="1" fill-rule="nonzero"/><path fill="#e54b4b" d="M 240.371094 323.210938 C 217.597656 330.238281 194.101562 331.015625 170.550781 328.101562 C 153.007812 325.9375 130.878906 320.15625 117.050781 308.914062 C 98.449219 293.789062 89.507812 280.21875 78.648438 260.21875 C 77.339844 257.808594 76.832031 256.03125 75.964844 253.417969 C 74.722656 255.261719 75.042969 254.4375 75.71875 257.503906 C 77.933594 267.589844 79.867188 279.117188 86.839844 286.957031 C 110.175781 312.871094 126.222656 322.769531 159.589844 332.085938 C 183.238281 338.6875 215.050781 334.175781 238.53125 327.933594 C 267.367188 319.796875 282.246094 310.34375 303.820312 290.445312 C 315.132812 280.011719 323.039062 267.582031 327.164062 252.765625 C 327.691406 250.875 324.023438 260.878906 323.585938 261.9375 C 314.710938 283.527344 297.8125 293.078125 279.269531 305.253906 C 275.1875 307.933594 271.523438 310.097656 267.179688 312.324219 C 258.402344 316.710938 249.707031 320.199219 240.371094 323.210938 Z M 302.683594 71.039062 C 284.675781 56.570312 270.476562 49.613281 248.714844 42.242188 C 219.824219 32.460938 205.730469 28.097656 174.59375 33.589844 C 155.972656 37.007812 123.433594 48.289062 108.390625 59.292969 C 90.574219 72.332031 65.75 98.179688 57.949219 118.902344 C 56.894531 121.695312 56.042969 124.445312 55.191406 127.304688 C 56.296875 127.425781 58.207031 127.207031 58.632812 128.296875 C 58.890625 128.941406 61.273438 128.359375 62.0625 128.359375 C 63.925781 128.359375 63 128.007812 64.050781 124.847656 C 73.199219 97.378906 101.496094 67.898438 127.175781 54.742188 C 147.359375 44.398438 166.445312 38.226562 189.117188 37.109375 C 213.964844 36 230.363281 38.347656 252.921875 48.058594 C 274.710938 57.476562 298.652344 68.320312 313.164062 87.84375 C 318.332031 94.796875 322.855469 102.660156 327.824219 109.253906 C 331.308594 113.878906 329.324219 111.347656 328.03125 108.945312 C 325.417969 104.070312 323.414062 98.660156 320.539062 93.355469 C 314.992188 83.140625 311.5625 78.523438 302.683594 71.039062 " fill-opacity="1" fill-rule="nonzero"/></svg>