<svg xmlns="http://www.w3.org/2000/svg" xmlns:xlink="http://www.w3.org/1999/xlink" width="500" zoomAndPan="magnify" viewBox="0 0 375 374.999991" height="500" preserveAspectRatio="xMidYMid meet" version="1.0"><path fill="#e54b4b" d="M 187.574219 0 C 84.148438 0 0 84.148438 0 187.574219 C 0 290.925781 84.148438 375 187.574219 375 C 290.925781 375 375 290.925781 375 187.574219 C 375 84.148438 290.925781 0 187.574219 0 Z M 187.574219 363.148438 C 90.675781 363.148438 11.851562 284.398438 11.851562 187.574219 C 11.851562 90.675781 90.675781 11.851562 187.574219 11.851562 C 284.398438 11.851562 363.148438 90.675781 363.148438 187.574219 C 363.148438 284.398438 284.398438 363.148438 187.574219 363.148438 Z M 187.574219 363.148438 " fill-opacity="1" fill-rule="evenodd"/><path fill="#e54b4b" d="M 187.574219 18.976562 C 94.648438 18.976562 19.050781 94.574219 19.050781 187.5 C 19.050781 280.351562 94.648438 355.949219 187.574219 355.949219 C 280.425781 355.949219 356.023438 280.425781 356.023438 187.5 C 356.023438 94.648438 280.425781 18.976562 187.574219 18.976562 Z M 185.25 257.398438 L 159.523438 218.851562 L 133.648438 257.398438 L 102.226562 257.398438 C 130.648438 214.949219 159.148438 172.574219 187.5 130.125 L 241.5 210.898438 L 210.074219 210.898438 L 187.5 177.148438 L 175.199219 195.375 L 216.675781 257.324219 L 185.25 257.324219 Z M 241.273438 257.398438 L 223.800781 231.300781 L 279.824219 231.300781 C 249 185.398438 218.324219 139.5 187.574219 93.523438 C 150.976562 148.125 114.300781 202.800781 77.773438 257.398438 L 46.351562 257.398438 C 93.375 187.199219 140.398438 116.851562 187.574219 46.574219 C 234.601562 116.773438 281.773438 187.125 328.800781 257.398438 Z M 241.273438 257.398438 " fill-opacity="1" fill-rule="evenodd"/></svg>