<svg xmlns="http://www.w3.org/2000/svg" xmlns:xlink="http://www.w3.org/1999/xlink" width="500" zoomAndPan="magnify" viewBox="0 0 375 374.999991" height="500" preserveAspectRatio="xMidYMid meet" version="1.0"><defs><clipPath id="c6a16586d2"><path d="M 56.71875 0 L 182 0 L 182 375 L 56.71875 375 Z M 56.71875 0 " clip-rule="nonzero"/></clipPath><clipPath id="f679365033"><path d="M 204 62 L 318.46875 62 L 318.46875 375 L 204 375 Z M 204 62 " clip-rule="nonzero"/></clipPath><clipPath id="cb21374be8"><path d="M 282 62 L 318.46875 62 L 318.46875 239 L 282 239 Z M 282 62 " clip-rule="nonzero"/></clipPath></defs><path fill="#e54b4b" d="M 189.214844 190.671875 L 189.210938 191.046875 C 189.070312 204.9375 189.070312 204.8125 189.214844 190.671875 Z M 189.214844 190.671875 " fill-opacity="1" fill-rule="nonzero"/><path fill="#e54b4b" d="M 189.222656 189.925781 L 189.21875 190.210938 L 189.214844 190.582031 L 189.214844 190.671875 C 189.214844 190.421875 189.21875 190.175781 189.222656 189.925781 Z M 189.222656 189.925781 " fill-opacity="1" fill-rule="nonzero"/><path fill="#e54b4b" d="M 154.574219 199.859375 L 154.773438 200.027344 L 154.972656 200.191406 C 154.839844 200.082031 154.707031 199.972656 154.574219 199.859375 Z M 154.574219 199.859375 " fill-opacity="1" fill-rule="nonzero"/><g clip-path="url(#c6a16586d2)"><path fill="#e54b4b" d="M 147.609375 68.460938 L 147.175781 153.414062 L 129.382812 175.199219 L 140.261719 175.449219 L 129.382812 175.199219 L 127.558594 177.4375 L 124.730469 175.09375 L 90.941406 174.316406 C 92.039062 152.582031 97.804688 132.613281 108.226562 114.414062 C 117.066406 98.859375 130.195312 83.539062 147.609375 68.460938 M 112.582031 208.769531 L 112.652344 208.769531 C 112.675781 208.773438 112.699219 208.773438 112.722656 208.773438 L 112.675781 208.773438 C 112.667969 208.773438 112.65625 208.769531 112.644531 208.769531 C 112.636719 208.769531 112.625 208.769531 112.613281 208.769531 L 112.582031 208.769531 M 181.933594 0.0390625 L 175.816406 4.316406 C 143.621094 27.246094 123.601562 42.984375 115.757812 51.539062 C 103.214844 63.390625 93.453125 74.652344 86.46875 85.316406 C 77.117188 98.867188 69.914062 113.457031 64.859375 129.089844 C 59.773438 143.625 57.085938 161.371094 56.804688 182.332031 C 57.148438 198.375 58.910156 213.777344 62.085938 228.542969 C 65.066406 243.878906 71.414062 265.878906 81.136719 294.546875 L 117.503906 295.632812 C 107.179688 265.390625 101.109375 246.296875 99.300781 238.351562 C 95.96875 226 93.859375 215.992188 92.96875 208.320312 L 112.128906 208.757812 L 146.742188 237.488281 L 146.152344 352.4375 L 180.011719 374.71875 L 180.796875 221.621094 L 153.691406 199.125 L 181.082031 165.582031 Z M 181.933594 0.0390625 " fill-opacity="1" fill-rule="nonzero"/></g><path fill="#e54b4b" d="M 124.730469 175.09375 L 127.554688 177.4375 L 129.382812 175.199219 L 140.261719 175.449219 L 129.382812 175.199219 Z M 124.730469 175.09375 " fill-opacity="1" fill-rule="nonzero"/><path fill="#e54b4b" d="M 124.730469 175.09375 L 129.382812 175.199219 L 140.261719 175.449219 L 129.382812 175.199219 Z M 124.730469 175.09375 " fill-opacity="1" fill-rule="nonzero"/><path fill="#e54b4b" d="M 124.730469 175.09375 L 125.035156 175.34375 L 124.96875 175.289062 Z M 124.730469 175.09375 " fill-opacity="1" fill-rule="nonzero"/><path fill="#e54b4b" d="M 204.554688 0 L 204.539062 38.695312 L 204.441406 335.597656 L 204.441406 335.601562 L 204.429688 374.996094 C 215.996094 368.082031 227.398438 361.03125 238.058594 353.871094 L 238.0625 347.851562 L 238.058594 353.871094 L 238.074219 312.511719 L 238.070312 312.511719 L 238.074219 312.511719 L 238.15625 63.640625 L 238.15625 63.351562 L 238.171875 20.625 C 227.375 12.964844 216.074219 6.1875 204.554688 0 Z M 204.554688 0 " fill-opacity="1" fill-rule="nonzero"/><g clip-path="url(#f679365033)"><path fill="#e54b4b" d="M 282.550781 62.242188 L 283.34375 129.992188 L 283.34375 129.996094 L 284.714844 247.414062 L 284.710938 247.414062 C 276.765625 267.066406 269.191406 284.207031 250.945312 301.523438 C 247.105469 305.167969 242.789062 308.828125 238.074219 312.511719 L 238.074219 312.515625 L 238.070312 312.515625 C 228.359375 320.09375 216.941406 327.769531 204.441406 335.601562 L 204.429688 374.996094 C 215.996094 368.082031 227.398438 361.03125 238.058594 353.871094 L 238.0625 347.851562 L 238.058594 353.871094 C 251.695312 344.707031 264.117188 335.363281 274.101562 325.886719 C 299.039062 302.21875 308.625 278.0625 317.164062 256.839844 C 317.988281 254.785156 318.402344 252.589844 318.375 250.375 L 318.230469 238.113281 L 318.113281 228.003906 L 317.414062 167.960938 L 316.886719 122.976562 L 316.890625 122.976562 C 307.726562 101.160156 296.980469 81 283.804688 63.851562 C 283.390625 63.3125 282.972656 62.773438 282.554688 62.242188 Z M 282.550781 62.242188 " fill-opacity="1" fill-rule="nonzero"/></g><g clip-path="url(#cb21374be8)"><path fill="#e54b4b" d="M 282.550781 62.242188 L 283.34375 129.992188 L 283.34375 129.996094 C 297.234375 161.472656 307.738281 198.695312 318.230469 238.101562 L 318.058594 223.171875 L 316.886719 122.976562 L 316.890625 122.976562 C 307.726562 101.160156 296.980469 81 283.804688 63.851562 C 283.390625 63.3125 282.972656 62.773438 282.554688 62.242188 Z M 282.550781 62.242188 " fill-opacity="1" fill-rule="nonzero"/></g><path fill="#e54b4b" d="M 204.554688 0 L 204.539062 38.695312 C 216.664062 46.09375 227.945312 54.246094 238.15625 63.640625 L 238.164062 42.296875 L 238.171875 20.625 C 227.375 12.964844 216.074219 6.1875 204.554688 0 Z M 204.554688 0 " fill-opacity="1" fill-rule="nonzero"/></svg>