<svg xmlns="http://www.w3.org/2000/svg" xmlns:xlink="http://www.w3.org/1999/xlink" width="1600" zoomAndPan="magnify" viewBox="0 0 1200 959.999988" height="1280" preserveAspectRatio="xMidYMid meet" version="1.0"><defs><clipPath id="03d2650254"><path d="M 325.296875 142 L 874.554688 142 L 874.554688 818 L 325.296875 818 Z M 325.296875 142 " clip-rule="nonzero"/></clipPath><clipPath id="b7419a654c"><path d="M 489 178.835938 L 519 178.835938 L 519 203 L 489 203 Z M 489 178.835938 " clip-rule="nonzero"/></clipPath><clipPath id="029abb1c7e"><path d="M 347 766 L 362 766 L 362 780.882812 L 347 780.882812 Z M 347 766 " clip-rule="nonzero"/></clipPath></defs><rect x="-120" width="1440" fill="#ffffff" y="-95.999999" height="1151.999986" fill-opacity="1"/><rect x="-120" width="1440" fill="#ffffff" y="-95.999999" height="1151.999986" fill-opacity="1"/><rect x="-120" width="1440" fill="#ffa987" y="-95.999999" height="1151.999986" fill-opacity="1"/><g clip-path="url(#03d2650254)"><path fill="#1e1e24" d="M 701.035156 142.105469 C 704.222656 142.105469 707.40625 142.105469 710.589844 142.105469 C 710.589844 142.636719 710.589844 143.175781 710.589844 143.699219 C 717.949219 147.148438 719.96875 161.652344 718.5625 178.75 C 716.375 205.503906 702.0625 239.605469 699.464844 275.925781 C 696.464844 317.800781 709.519531 359.503906 697.851562 390.613281 C 685.335938 424.023438 661.011719 443.78125 658.050781 473.445312 C 654.84375 505.585938 672.109375 559.597656 694.667969 578.585938 C 705.683594 587.847656 729.949219 591.574219 747.207031 588.148438 C 764.824219 584.65625 771.859375 565.300781 794.988281 565.851562 C 808.996094 566.175781 821.328125 578.503906 834.789062 584.964844 C 848.871094 591.707031 861.570312 596.902344 874.59375 604.085938 C 850.96875 612.0625 817.738281 619.988281 804.558594 640.714844 C 797.125 652.367188 796.3125 671.253906 787.03125 682.136719 C 775.976562 695.105469 752.003906 707.367188 732.894531 717.1875 C 679.109375 744.804688 607.4375 747.90625 545.003906 718.78125 C 500.707031 756.246094 472.109375 817.890625 395.324219 817.539062 C 392.953125 804.796875 412.394531 797.835938 406.472656 792.0625 C 386.0625 794.609375 352.230469 809.96875 334.816406 795.242188 C 337.660156 777.363281 353.636719 772.65625 363.472656 761.789062 C 356.652344 762.976562 342.761719 765.441406 336.410156 761.789062 C 343.484375 743.230469 362.835938 732.96875 379.394531 723.550781 C 429.8125 694.90625 491.804688 674.800781 545.003906 648.6875 C 510.035156 626.359375 421.421875 593.757812 443.089844 529.214844 C 406.011719 509.453125 373.46875 476.808594 380.988281 417.703125 C 365.289062 396.828125 341.011719 378.609375 341.1875 349.203125 C 341.242188 341.964844 347.800781 333.988281 347.566406 326.902344 C 347.265625 318.210938 338.039062 305.878906 334.816406 296.636719 C 331.007812 285.730469 328.554688 276.0625 325.261719 264.777344 C 325.261719 256.820312 325.261719 248.851562 325.261719 240.882812 C 335.1875 216.480469 351.074219 247.394531 360.304688 263.183594 C 396.269531 324.726562 430.902344 378.519531 479.726562 424.074219 C 494.765625 438.109375 509.769531 449.394531 525.898438 462.308594 C 529.398438 465.101562 532.433594 473.320312 538.636719 470.273438 C 537.886719 432.464844 540.0625 401.410156 551.367188 373.097656 C 558.324219 355.65625 573.847656 341.339844 576.847656 326.898438 C 578.664062 318.261719 576.039062 310.152344 576.847656 301.410156 C 581.078125 256.09375 605.148438 228.558594 642.132812 212.203125 C 644.519531 188.03125 657.480469 174.449219 678.75 169.1875 C 684.292969 158.273438 691.742188 149.246094 701.035156 142.105469 Z M 419.210938 803.195312 C 441.773438 802.484375 457.609375 785.476562 471.757812 772.929688 C 516.8125 733.019531 554.730469 689.570312 608.699219 659.824219 C 592.457031 678.621094 571.03125 692.230469 556.15625 712.398438 C 588.28125 723.164062 619.582031 732.324219 653.273438 731.507812 C 687.308594 730.683594 750.761719 700.789062 769.507812 683.722656 C 785.265625 669.386719 785.171875 646.003906 796.578125 629.554688 C 807.609375 613.664062 834.253906 608.9375 850.71875 600.878906 C 823.359375 602.050781 816.933594 575.660156 793.394531 576.988281 C 783.46875 577.554688 776.453125 587.476562 767.914062 591.332031 C 698.917969 622.457031 651.601562 560.371094 645.308594 503.707031 C 637.441406 432.703125 689.664062 418.261719 694.667969 357.152344 C 696.964844 329.324219 687.253906 303.261719 688.316406 277.507812 C 690.019531 235.078125 714.800781 197.273438 704.222656 153.253906 C 684.945312 153.941406 686.441406 177.871094 681.945312 191.480469 C 676.535156 207.8125 669.253906 222.640625 662.828125 234.496094 C 667.164062 216.007812 672.261719 198.265625 675.558594 178.746094 C 656.808594 182.394531 657.238281 208.816406 651.679688 228.125 C 645.738281 248.792969 638.566406 270.589844 632.570312 287.0625 C 635.03125 266.683594 637.933594 246.765625 640.53125 226.53125 C 565.28125 247.542969 591.613281 372.554688 584.800781 457.519531 C 573.75 428.234375 579.136719 382.484375 575.246094 346.003906 C 540.984375 391.402344 546.003906 491.324219 559.320312 549.914062 C 556.78125 538.664062 551.667969 529.964844 549.777344 518.050781 C 486.933594 517.535156 557.621094 594.640625 560.933594 612.039062 C 549.542969 592.875 514.574219 565.921875 513.152344 535.570312 C 512.519531 521.785156 519.152344 504.902344 540.226562 505.304688 C 540.226562 499.996094 540.226562 494.6875 540.226562 489.382812 C 478.390625 442.574219 417.769531 384.886719 379.390625 315.738281 C 366.765625 292.957031 357.507812 265.535156 334.8125 252.03125 C 341.738281 303.503906 365.246094 346.898438 382.578125 382.648438 C 373.730469 368.675781 365.320312 354.261719 355.523438 341.234375 C 356.761719 391.511719 402.859375 419.171875 420.800781 452.738281 C 409.671875 444.214844 402.480469 431.753906 388.949219 425.660156 C 388.09375 507.230469 461.605469 522.894531 501.992188 557.878906 C 485.996094 549.46875 469.230469 541.8125 452.636719 533.984375 C 445.796875 552.253906 450.390625 569.253906 457.414062 578.585938 C 480.070312 608.703125 537.910156 628.871094 565.6875 650.273438 C 511.480469 674.523438 454.136719 700.550781 401.691406 725.140625 C 383.898438 733.492188 362.648438 739.320312 350.742188 755.40625 C 384.945312 754.058594 411.277344 736.328125 438.304688 733.105469 C 406.617188 749.183594 371.347656 761.691406 350.742188 788.867188 C 402.082031 797.195312 434.078125 763.941406 468.570312 755.40625 C 450.734375 769.949219 429.53125 781.125 419.210938 803.195312 Z M 419.210938 803.195312 " fill-opacity="1" fill-rule="evenodd"/></g><path fill="#f7ebe8" d="M 454.320312 294.464844 C 456.234375 291.546875 457.738281 288.953125 459.515625 286.628906 C 465.707031 278.707031 469.582031 277.523438 478.917969 280.390625 C 497.136719 286.3125 503.5625 303.160156 491.945312 321.105469 C 491.625 321.570312 491.28125 322.015625 490.914062 322.441406 C 490.546875 322.867188 490.15625 323.273438 489.746094 323.65625 C 489.332031 324.042969 488.902344 324.402344 488.449219 324.738281 C 488 325.078125 487.53125 325.386719 487.042969 325.671875 C 486.558594 325.957031 486.058594 326.21875 485.546875 326.449219 C 485.03125 326.679688 484.507812 326.882812 483.96875 327.054688 C 483.433594 327.226562 482.890625 327.371094 482.339844 327.484375 C 481.785156 327.597656 481.230469 327.683594 480.667969 327.734375 C 480.109375 327.789062 479.546875 327.8125 478.984375 327.804688 C 478.421875 327.792969 477.859375 327.753906 477.300781 327.683594 C 476.742188 327.617188 476.1875 327.515625 475.640625 327.386719 C 475.089844 327.253906 474.550781 327.09375 474.019531 326.90625 C 473.492188 326.714844 472.972656 326.496094 472.464844 326.25 C 471.957031 326.003906 471.464844 325.730469 470.988281 325.433594 C 470.511719 325.132812 470.054688 324.804688 469.613281 324.457031 C 469.171875 324.105469 468.75 323.734375 468.351562 323.335938 C 464.660156 319.257812 461.699219 314.703125 459.46875 309.675781 C 457.4375 304.710938 455.722656 299.640625 454.320312 294.464844 Z M 481.652344 289.910156 C 477.960938 292.960938 475.183594 295.554688 472.039062 297.789062 C 471.292969 298.253906 470.640625 298.828125 470.082031 299.507812 C 469.523438 300.1875 469.089844 300.9375 468.777344 301.757812 C 468.464844 302.582031 468.289062 303.433594 468.257812 304.3125 C 468.222656 305.191406 468.328125 306.050781 468.578125 306.894531 C 468.675781 308.019531 468.925781 309.101562 469.335938 310.152344 C 469.746094 311.199219 470.296875 312.167969 470.988281 313.058594 C 471.679688 313.945312 472.484375 314.71875 473.398438 315.375 C 474.3125 316.03125 475.304688 316.546875 476.367188 316.914062 C 476.941406 317.15625 477.53125 317.339844 478.144531 317.464844 C 478.753906 317.589844 479.371094 317.65625 479.992188 317.65625 C 480.617188 317.660156 481.234375 317.601562 481.84375 317.484375 C 482.457031 317.363281 483.050781 317.183594 483.625 316.949219 C 484.203125 316.710938 484.75 316.417969 485.265625 316.074219 C 485.785156 315.726562 486.265625 315.335938 486.707031 314.894531 C 487.144531 314.453125 487.539062 313.972656 487.882812 313.457031 C 488.230469 312.9375 488.519531 312.390625 488.757812 311.8125 C 492.855469 302.933594 491.488281 298.472656 481.421875 289.773438 Z M 481.652344 289.910156 " fill-opacity="1" fill-rule="nonzero"/><path fill="#f7ebe8" d="M 784.921875 493.613281 L 780.960938 487.875 C 771.851562 475.304688 779.230469 464.648438 790.800781 461.324219 C 797.632812 459.8125 804.496094 459.660156 811.386719 460.871094 C 818.585938 461.824219 821.773438 467.746094 821.136719 475.125 C 820.875 477.234375 820.394531 479.296875 819.691406 481.308594 C 818.992188 483.316406 818.089844 485.230469 816.980469 487.046875 C 815.875 488.867188 814.589844 490.546875 813.125 492.089844 C 811.660156 493.636719 810.046875 495.007812 808.289062 496.207031 C 807.402344 496.804688 806.472656 497.316406 805.496094 497.746094 C 804.519531 498.175781 803.511719 498.519531 802.472656 498.773438 C 801.4375 499.027344 800.386719 499.1875 799.320312 499.257812 C 798.257812 499.324219 797.191406 499.300781 796.132812 499.183594 C 795.070312 499.066406 794.027344 498.855469 793.003906 498.554688 C 791.980469 498.253906 790.988281 497.867188 790.035156 497.390625 C 789.078125 496.914062 788.171875 496.359375 787.3125 495.726562 C 786.453125 495.09375 785.65625 494.386719 784.921875 493.613281 Z M 791.617188 472.890625 C 785.425781 477.71875 785.652344 483.546875 791.027344 487.375 C 791.652344 487.871094 792.324219 488.300781 793.03125 488.667969 C 793.742188 489.039062 794.480469 489.335938 795.246094 489.5625 C 796.011719 489.789062 796.792969 489.941406 797.589844 490.019531 C 798.386719 490.097656 799.179688 490.101562 799.976562 490.027344 C 800.773438 489.953125 801.554688 489.804688 802.324219 489.582031 C 803.089844 489.359375 803.832031 489.066406 804.542969 488.703125 C 805.253906 488.339844 805.925781 487.914062 806.554688 487.421875 C 807.1875 486.929688 807.765625 486.382812 808.289062 485.78125 C 810.332031 483.003906 811.851562 479.96875 812.84375 476.671875 C 812.933594 476.351562 813 476.027344 813.046875 475.699219 C 813.089844 475.371094 813.117188 475.042969 813.121094 474.710938 C 813.121094 474.378906 813.105469 474.050781 813.066406 473.722656 C 813.027344 473.390625 812.96875 473.066406 812.886719 472.746094 C 812.804688 472.421875 812.707031 472.109375 812.585938 471.800781 C 812.464844 471.492188 812.324219 471.191406 812.164062 470.902344 C 812.003906 470.613281 811.828125 470.332031 811.632812 470.066406 C 811.4375 469.796875 811.222656 469.542969 810.996094 469.304688 C 810.769531 469.0625 810.527344 468.835938 810.269531 468.628906 C 810.011719 468.417969 809.742188 468.226562 809.460938 468.050781 C 809.179688 467.878906 808.886719 467.722656 808.585938 467.582031 C 808.285156 467.445312 807.976562 467.328125 807.660156 467.230469 C 807.34375 467.132812 807.019531 467.054688 806.695312 467 C 806.367188 466.945312 806.039062 466.910156 805.707031 466.894531 C 805.378906 466.878906 805.046875 466.886719 804.714844 466.914062 C 804.386719 466.945312 804.058594 466.992188 803.734375 467.0625 C 799.558594 468.722656 795.523438 470.667969 791.617188 472.890625 Z M 791.617188 472.890625 " fill-opacity="1" fill-rule="nonzero"/><path fill="#f7ebe8" d="M 653.101562 483.140625 C 652.328125 481.636719 650.824219 479.039062 649.683594 476.351562 C 643.535156 462.234375 643.261719 460.367188 659.339844 453.035156 C 666.265625 449.894531 678.699219 456.726562 679.203125 465.695312 C 679.324219 467.433594 679.273438 469.167969 679.042969 470.894531 C 678.808594 472.621094 678.40625 474.308594 677.832031 475.953125 C 677.253906 477.597656 676.519531 479.167969 675.621094 480.660156 C 674.726562 482.15625 673.6875 483.542969 672.503906 484.824219 C 666.128906 492.019531 660.253906 491.699219 653.101562 483.140625 Z M 668.496094 463.191406 C 667.449219 463.191406 665.445312 462.554688 664.851562 463.191406 C 662.511719 465.691406 660.597656 468.484375 659.113281 471.570312 C 659.042969 472.515625 659.199219 473.421875 659.589844 474.285156 C 659.976562 475.148438 660.546875 475.871094 661.300781 476.445312 C 662.117188 476.890625 662.988281 477.113281 663.917969 477.113281 C 664.847656 477.113281 665.722656 476.890625 666.539062 476.445312 C 667.359375 475.878906 668.074219 475.203125 668.6875 474.421875 C 669.300781 473.636719 669.785156 472.777344 670.132812 471.84375 C 670.484375 470.914062 670.6875 469.949219 670.742188 468.953125 C 670.796875 467.960938 670.703125 466.980469 670.457031 466.015625 C 670.320312 465.105469 669.363281 464.375 668.496094 463.191406 Z M 668.496094 463.191406 " fill-opacity="1" fill-rule="nonzero"/><path fill="#f7ebe8" d="M 416.925781 398.523438 C 426.035156 410.226562 423.664062 418.289062 411.09375 424.027344 C 407.585938 425.621094 404.398438 427.945312 401.027344 429.902344 C 400.53125 430.289062 400 430.617188 399.4375 430.894531 C 398.871094 431.171875 398.285156 431.386719 397.675781 431.542969 C 397.066406 431.695312 396.445312 431.789062 395.816406 431.8125 C 395.1875 431.839844 394.566406 431.804688 393.945312 431.699219 C 393.324219 431.597656 392.71875 431.433594 392.132812 431.203125 C 391.546875 430.976562 390.992188 430.691406 390.464844 430.347656 C 389.9375 430.007812 389.449219 429.613281 389.003906 429.167969 C 388.558594 428.726562 388.164062 428.242188 387.816406 427.714844 C 384.511719 423.347656 381.945312 418.582031 380.121094 413.414062 C 379.941406 412.820312 379.792969 412.214844 379.675781 411.601562 C 379.558594 410.988281 379.472656 410.371094 379.421875 409.75 C 379.367188 409.128906 379.347656 408.507812 379.359375 407.886719 C 379.371094 407.261719 379.417969 406.640625 379.496094 406.023438 C 379.570312 405.402344 379.679688 404.792969 379.820312 404.183594 C 379.960938 403.578125 380.136719 402.976562 380.339844 402.390625 C 380.542969 401.800781 380.773438 401.222656 381.039062 400.65625 C 381.300781 400.09375 381.59375 399.542969 381.914062 399.007812 C 382.234375 398.472656 382.582031 397.957031 382.957031 397.460938 C 383.332031 396.960938 383.730469 396.484375 384.15625 396.027344 C 384.582031 395.570312 385.027344 395.136719 385.496094 394.726562 C 385.964844 394.316406 386.457031 393.933594 386.964844 393.574219 C 387.476562 393.214844 388.003906 392.882812 388.546875 392.578125 C 389.089844 392.273438 389.648438 392 390.222656 391.753906 C 390.796875 391.507812 391.378906 391.292969 391.976562 391.105469 C 392.570312 390.921875 393.171875 390.769531 393.785156 390.644531 C 403.167969 389.1875 412.003906 390.644531 416.925781 398.523438 Z M 389.59375 418.5625 C 397.15625 418.5625 402.621094 418.5625 408.042969 418.0625 C 414.417969 417.695312 417.152344 414.007812 415.738281 408.179688 C 413.097656 398.207031 407.449219 394.878906 396.289062 397.429688 C 395.605469 397.511719 394.933594 397.652344 394.273438 397.859375 C 393.617188 398.066406 392.984375 398.332031 392.375 398.65625 C 391.765625 398.980469 391.195312 399.359375 390.65625 399.792969 C 390.121094 400.226562 389.628906 400.707031 389.183594 401.230469 C 388.738281 401.757812 388.34375 402.320312 388.003906 402.921875 C 387.664062 403.519531 387.382812 404.148438 387.160156 404.800781 C 386.9375 405.453125 386.777344 406.121094 386.683594 406.804688 C 386.585938 407.488281 386.554688 408.171875 386.589844 408.863281 C 387.054688 412.207031 387.933594 415.441406 389.230469 418.5625 Z M 389.59375 418.5625 " fill-opacity="1" fill-rule="nonzero"/><path fill="#f7ebe8" d="M 578.125 336.132812 C 596.347656 330.53125 609.101562 339.683594 608.1875 356.308594 C 608.179688 357.066406 608.109375 357.820312 607.980469 358.570312 C 607.851562 359.316406 607.667969 360.050781 607.425781 360.769531 C 607.179688 361.492188 606.882812 362.1875 606.53125 362.859375 C 606.175781 363.53125 605.773438 364.171875 605.320312 364.78125 C 604.867188 365.390625 604.371094 365.960938 603.828125 366.492188 C 603.285156 367.023438 602.703125 367.511719 602.085938 367.949219 C 601.46875 368.390625 600.816406 368.78125 600.136719 369.121094 C 599.457031 369.457031 598.753906 369.742188 598.03125 369.96875 C 597.359375 370.136719 596.679688 370.242188 595.988281 370.296875 C 595.296875 370.347656 594.609375 370.339844 593.917969 370.273438 C 593.230469 370.207031 592.550781 370.085938 591.882812 369.902344 C 591.214844 369.722656 590.566406 369.488281 589.9375 369.199219 C 589.308594 368.910156 588.707031 368.570312 588.136719 368.179688 C 587.566406 367.789062 587.03125 367.351562 586.535156 366.871094 C 586.035156 366.390625 585.582031 365.871094 585.171875 365.3125 C 584.765625 364.753906 584.402344 364.167969 584.09375 363.546875 C 581.3125 358.585938 577.078125 353.894531 580.449219 346.925781 C 581.585938 344.332031 579.128906 340.230469 578.125 336.132812 Z M 589.648438 343.191406 C 591.425781 349.476562 592.703125 353.847656 594.207031 358.585938 C 599.445312 355.167969 600.035156 354.394531 599.851562 352.210938 C 599.488281 347.335938 597.210938 344.148438 589.648438 343.191406 Z M 589.648438 343.191406 " fill-opacity="1" fill-rule="nonzero"/><path fill="#f7ebe8" d="M 526.746094 572.308594 C 525.261719 569.796875 523.910156 567.214844 522.691406 564.566406 C 522.390625 563.949219 522.144531 563.3125 521.945312 562.65625 C 521.746094 562 521.601562 561.332031 521.511719 560.652344 C 521.421875 559.972656 521.382812 559.289062 521.402344 558.601562 C 521.417969 557.917969 521.492188 557.238281 521.617188 556.5625 C 521.742188 555.890625 521.921875 555.230469 522.152344 554.582031 C 522.386719 553.9375 522.667969 553.316406 523 552.714844 C 523.328125 552.113281 523.707031 551.542969 524.128906 551.003906 C 524.550781 550.460938 525.011719 549.957031 525.515625 549.492188 C 528.691406 546.355469 532.304688 543.851562 536.355469 541.976562 C 537.253906 541.527344 538.191406 541.207031 539.171875 541.007812 C 540.15625 540.8125 541.148438 540.75 542.148438 540.816406 C 543.144531 540.886719 544.117188 541.085938 545.066406 541.414062 C 546.011719 541.746094 546.898438 542.195312 547.722656 542.761719 C 548.546875 543.328125 549.285156 543.996094 549.929688 544.761719 C 550.578125 545.523438 551.113281 546.359375 551.535156 547.269531 C 551.957031 548.175781 552.253906 549.125 552.421875 550.113281 C 552.589844 551.101562 552.625 552.09375 552.527344 553.089844 C 552.191406 559.101562 550.898438 564.898438 548.65625 570.484375 C 544.375 581.007812 535.308594 582.191406 526.746094 572.308594 Z M 541.230469 548.078125 C 538.382812 552.605469 535.769531 557.269531 533.394531 562.0625 C 533.226562 562.96875 533.285156 563.863281 533.570312 564.742188 C 533.851562 565.621094 534.324219 566.382812 534.988281 567.023438 C 535.796875 567.492188 536.667969 567.746094 537.597656 567.796875 C 538.53125 567.84375 539.421875 567.675781 540.273438 567.296875 C 541.136719 566.792969 541.90625 566.171875 542.585938 565.4375 C 543.265625 564.703125 543.824219 563.886719 544.261719 562.984375 C 544.699219 562.085938 544.996094 561.144531 545.15625 560.15625 C 545.3125 559.167969 545.328125 558.179688 545.191406 557.1875 C 544.269531 553.976562 542.949219 550.941406 541.230469 548.078125 Z M 541.230469 548.078125 " fill-opacity="1" fill-rule="nonzero"/><path fill="#f7ebe8" d="M 529.207031 450.167969 C 530.191406 448.28125 531.386719 446.539062 532.789062 444.9375 C 534.191406 443.335938 535.761719 441.921875 537.5 440.695312 C 539.238281 439.46875 541.097656 438.460938 543.074219 437.675781 C 545.050781 436.890625 547.09375 436.347656 549.203125 436.050781 C 549.691406 435.96875 550.183594 435.921875 550.683594 435.898438 C 551.179688 435.878906 551.675781 435.886719 552.167969 435.925781 C 552.664062 435.964844 553.15625 436.03125 553.644531 436.128906 C 554.128906 436.226562 554.609375 436.351562 555.082031 436.503906 C 555.554688 436.65625 556.015625 436.839844 556.46875 437.046875 C 556.917969 437.257812 557.355469 437.492188 557.777344 437.75 C 558.199219 438.011719 558.605469 438.296875 558.996094 438.605469 C 559.382812 438.914062 559.753906 439.246094 560.105469 439.597656 C 560.453125 439.953125 560.78125 440.324219 561.085938 440.714844 C 561.390625 441.109375 561.671875 441.515625 561.929688 441.941406 C 562.1875 442.367188 562.417969 442.804688 562.621094 443.257812 C 562.824219 443.710938 563.003906 444.175781 563.152344 444.648438 C 563.300781 445.121094 563.421875 445.601562 563.511719 446.089844 C 563.605469 446.578125 563.667969 447.070312 563.703125 447.566406 C 563.734375 448.0625 563.738281 448.558594 563.714844 449.054688 C 563.6875 449.550781 563.632812 450.042969 563.550781 450.53125 C 563.476562 451.523438 563.324219 452.5 563.085938 453.46875 C 562.847656 454.433594 562.535156 455.371094 562.140625 456.285156 C 561.746094 457.199219 561.28125 458.074219 560.742188 458.90625 C 560.203125 459.742188 559.597656 460.527344 558.925781 461.261719 C 558.253906 461.996094 557.527344 462.667969 556.746094 463.28125 C 555.960938 463.894531 555.132812 464.4375 554.257812 464.914062 C 553.386719 465.386719 552.476562 465.785156 551.539062 466.109375 C 550.597656 466.429688 549.636719 466.671875 548.65625 466.835938 C 547.917969 466.972656 547.175781 467.007812 546.429688 466.945312 C 545.679688 466.882812 544.957031 466.722656 544.25 466.46875 C 543.546875 466.210938 542.886719 465.867188 542.273438 465.433594 C 541.660156 465.003906 541.117188 464.5 540.636719 463.921875 C 537.175781 459.820312 533.804688 455.675781 529.207031 450.167969 Z M 548.152344 455.222656 C 552.710938 458.136719 554.121094 454.859375 555.214844 452.171875 C 556.308594 449.484375 557.265625 445.386719 551.753906 443.5625 Z M 548.152344 455.222656 " fill-opacity="1" fill-rule="nonzero"/><path fill="#f7ebe8" d="M 616.523438 272.785156 C 615.101562 268.882812 613.992188 264.886719 613.199219 260.808594 C 613.246094 259.570312 613.457031 258.359375 613.832031 257.175781 C 614.207031 255.992188 614.734375 254.882812 615.410156 253.84375 C 616.089844 252.804688 616.894531 251.875 617.824219 251.054688 C 618.757812 250.234375 619.78125 249.554688 620.898438 249.011719 C 627.410156 247.191406 636.203125 249.011719 638.617188 253.566406 C 640.46875 257.089844 641.742188 260.808594 642.441406 264.726562 C 642.550781 265.203125 642.632812 265.6875 642.679688 266.179688 C 642.726562 266.667969 642.742188 267.160156 642.726562 267.652344 C 642.710938 268.140625 642.664062 268.632812 642.585938 269.117188 C 642.507812 269.601562 642.398438 270.082031 642.261719 270.554688 C 642.121094 271.023438 641.949219 271.484375 641.753906 271.933594 C 641.554688 272.386719 641.324219 272.820312 641.070312 273.242188 C 640.816406 273.660156 640.535156 274.0625 640.226562 274.449219 C 639.921875 274.832031 639.589844 275.195312 639.238281 275.539062 C 638.882812 275.882812 638.507812 276.199219 638.113281 276.492188 C 637.71875 276.789062 637.308594 277.054688 636.878906 277.296875 C 636.449219 277.535156 636.007812 277.75 635.550781 277.933594 C 635.097656 278.117188 634.628906 278.273438 634.152344 278.394531 C 633.675781 278.519531 633.195312 278.613281 632.707031 278.675781 C 632.21875 278.738281 631.730469 278.769531 631.238281 278.769531 C 630.746094 278.769531 630.253906 278.734375 629.765625 278.671875 C 629.28125 278.609375 628.796875 278.511719 628.320312 278.386719 C 624.1875 276.941406 620.257812 275.074219 616.523438 272.785156 Z M 622.035156 263.449219 C 624.269531 264.863281 625.363281 266.089844 626.589844 266.273438 C 628.328125 266.347656 630.042969 266.195312 631.738281 265.816406 C 631.675781 264.082031 631.3125 262.414062 630.644531 260.808594 C 628.503906 256.890625 627.046875 257.300781 622.035156 263.449219 Z M 622.035156 263.449219 " fill-opacity="1" fill-rule="nonzero"/><path fill="#f7ebe8" d="M 694.414062 527.496094 C 695.046875 526.066406 695.851562 524.738281 696.824219 523.511719 C 697.796875 522.289062 698.910156 521.207031 700.164062 520.273438 C 701.417969 519.335938 702.769531 518.570312 704.21875 517.980469 C 705.667969 517.390625 707.167969 516.996094 708.71875 516.792969 C 709.269531 516.703125 709.824219 516.660156 710.382812 516.660156 C 710.941406 516.660156 711.496094 516.707031 712.046875 516.800781 C 712.601562 516.890625 713.140625 517.027344 713.667969 517.207031 C 714.199219 517.386719 714.707031 517.609375 715.203125 517.871094 C 715.695312 518.136719 716.160156 518.4375 716.605469 518.777344 C 717.046875 519.117188 717.460938 519.492188 717.84375 519.902344 C 718.226562 520.308594 718.570312 520.746094 718.882812 521.207031 C 719.191406 521.671875 719.464844 522.160156 719.695312 522.667969 C 720.28125 524.175781 720.695312 525.726562 720.933594 527.324219 C 721.171875 528.925781 721.230469 530.53125 721.109375 532.140625 C 720.988281 533.753906 720.6875 535.332031 720.210938 536.875 C 719.734375 538.421875 719.089844 539.894531 718.285156 541.292969 C 717.839844 542.199219 717.277344 543.023438 716.597656 543.765625 C 715.917969 544.507812 715.144531 545.140625 714.28125 545.660156 C 713.417969 546.179688 712.5 546.566406 711.523438 546.820312 C 710.546875 547.078125 709.558594 547.1875 708.550781 547.15625 C 707.542969 547.125 706.558594 546.953125 705.601562 546.636719 C 704.644531 546.324219 703.75 545.878906 702.921875 545.308594 C 702.09375 544.734375 701.363281 544.058594 700.726562 543.273438 C 700.09375 542.488281 699.585938 541.632812 699.199219 540.703125 C 697.308594 536.40625 695.714844 532.003906 694.414062 527.496094 Z M 709.21875 533.597656 C 709.675781 533.597656 710.265625 534.007812 710.539062 533.597656 C 710.8125 533.1875 710.769531 532.777344 710.859375 532.367188 L 708.898438 532.367188 Z M 709.21875 533.597656 " fill-opacity="1" fill-rule="nonzero"/><path fill="#f7ebe8" d="M 462.109375 468.976562 C 467.257812 468.246094 472.085938 467.152344 476.960938 466.925781 C 477.421875 466.863281 477.886719 466.824219 478.351562 466.816406 C 478.820312 466.804688 479.285156 466.820312 479.75 466.863281 C 480.214844 466.90625 480.671875 466.976562 481.128906 467.074219 C 481.585938 467.171875 482.035156 467.292969 482.476562 467.441406 C 482.921875 467.589844 483.351562 467.761719 483.773438 467.960938 C 484.199219 468.160156 484.605469 468.382812 485.003906 468.628906 C 485.398438 468.871094 485.78125 469.140625 486.148438 469.429688 C 486.511719 469.71875 486.859375 470.03125 487.191406 470.359375 C 487.519531 470.6875 487.828125 471.039062 488.121094 471.402344 C 488.410156 471.769531 488.675781 472.148438 488.921875 472.546875 C 489.167969 472.941406 489.390625 473.351562 489.589844 473.773438 C 489.789062 474.195312 489.960938 474.628906 490.109375 475.070312 C 490.257812 475.511719 490.378906 475.960938 490.476562 476.417969 C 490.574219 476.875 490.644531 477.335938 490.6875 477.800781 C 490.730469 478.265625 490.746094 478.730469 490.734375 479.195312 C 490.726562 479.664062 490.6875 480.125 490.625 480.589844 C 490.691406 482.082031 490.59375 483.5625 490.335938 485.035156 C 490.074219 486.503906 489.660156 487.929688 489.089844 489.3125 C 488.519531 490.691406 487.808594 491.996094 486.953125 493.21875 C 486.097656 494.445312 485.121094 495.5625 484.019531 496.574219 C 477.914062 501.628906 470.355469 501.808594 465.800781 495.480469 C 465.050781 494.574219 464.371094 493.621094 463.753906 492.617188 C 463.136719 491.617188 462.59375 490.578125 462.121094 489.503906 C 461.648438 488.425781 461.25 487.324219 460.929688 486.191406 C 460.609375 485.0625 460.367188 483.914062 460.207031 482.75 C 460.042969 481.585938 459.964844 480.414062 459.960938 479.238281 C 459.960938 478.066406 460.042969 476.894531 460.203125 475.730469 C 460.363281 474.566406 460.605469 473.417969 460.921875 472.289062 C 461.242188 471.15625 461.636719 470.050781 462.109375 468.976562 Z M 480.328125 490.0625 C 480.851562 489.636719 481.324219 489.164062 481.753906 488.644531 C 482.179688 488.125 482.554688 487.570312 482.878906 486.980469 C 483.199219 486.390625 483.457031 485.773438 483.660156 485.132812 C 483.859375 484.492188 484 483.835938 484.070312 483.167969 C 484.144531 482.5 484.15625 481.832031 484.097656 481.160156 C 484.042969 480.492188 483.921875 479.832031 483.738281 479.1875 C 483.554688 478.539062 483.308594 477.917969 483.003906 477.316406 C 482.699219 476.71875 482.339844 476.152344 481.925781 475.625 C 481.625 475.324219 481.300781 475.054688 480.949219 474.820312 C 480.597656 474.585938 480.226562 474.386719 479.835938 474.222656 C 479.445312 474.058594 479.042969 473.9375 478.628906 473.855469 C 478.210938 473.773438 477.792969 473.730469 477.371094 473.730469 C 476.945312 473.730469 476.527344 473.773438 476.113281 473.855469 C 475.695312 473.9375 475.292969 474.058594 474.902344 474.222656 C 474.511719 474.386719 474.140625 474.585938 473.789062 474.820312 C 473.4375 475.054688 473.113281 475.324219 472.8125 475.625 C 468.257812 479.859375 467.03125 485.460938 469.855469 488.511719 C 470.160156 488.886719 470.5 489.230469 470.871094 489.542969 C 471.242188 489.855469 471.640625 490.132812 472.0625 490.371094 C 472.484375 490.609375 472.925781 490.808594 473.382812 490.964844 C 473.84375 491.125 474.3125 491.238281 474.792969 491.308594 C 475.273438 491.378906 475.753906 491.40625 476.242188 491.386719 C 476.726562 491.371094 477.203125 491.308594 477.675781 491.199219 C 478.152344 491.09375 478.609375 490.945312 479.054688 490.753906 C 479.503906 490.5625 479.925781 490.332031 480.328125 490.0625 Z M 480.328125 490.0625 " fill-opacity="1" fill-rule="nonzero"/><path fill="#f7ebe8" d="M 606.6875 438.054688 C 605.886719 437.257812 605.203125 436.375 604.636719 435.402344 C 604.070312 434.425781 603.640625 433.398438 603.347656 432.308594 C 603.054688 431.222656 602.90625 430.113281 602.90625 428.988281 C 602.902344 427.863281 603.050781 426.753906 603.339844 425.667969 C 603.632812 424.578125 604.058594 423.546875 604.621094 422.570312 C 605.1875 421.59375 605.867188 420.710938 606.664062 419.914062 C 607.460938 419.117188 608.347656 418.441406 609.328125 417.878906 C 610.304688 417.316406 611.335938 416.890625 612.425781 416.605469 C 624.269531 412.050781 630.328125 415.464844 631.101562 428.171875 C 631.230469 428.839844 631.308594 429.515625 631.339844 430.195312 C 631.367188 430.875 631.347656 431.554688 631.273438 432.230469 C 631.199219 432.90625 631.078125 433.574219 630.90625 434.234375 C 630.734375 434.894531 630.511719 435.535156 630.246094 436.160156 C 629.976562 436.789062 629.660156 437.390625 629.304688 437.96875 C 628.945312 438.546875 628.542969 439.097656 628.105469 439.617188 C 627.664062 440.136719 627.1875 440.617188 626.671875 441.066406 C 626.160156 441.515625 625.617188 441.921875 625.042969 442.289062 C 618.484375 446.113281 612.0625 444.609375 606.6875 438.054688 Z M 623.175781 435.09375 C 623.476562 432.15625 623.566406 429.210938 623.449219 426.257812 C 621.929688 425.710938 620.410156 425.710938 618.894531 426.257812 C 616.523438 427.988281 614.929688 430.8125 617.207031 433.542969 C 618.074219 434.410156 620.351562 434.320312 623.175781 435.09375 Z M 623.175781 435.09375 " fill-opacity="1" fill-rule="nonzero"/><path fill="#f7ebe8" d="M 668.496094 331.03125 C 673.917969 331.398438 678.382812 331.578125 682.800781 332.035156 C 683.492188 332.03125 684.175781 332.09375 684.855469 332.222656 C 685.53125 332.347656 686.195312 332.539062 686.835938 332.789062 C 687.480469 333.039062 688.09375 333.347656 688.679688 333.714844 C 689.265625 334.082031 689.8125 334.5 690.316406 334.96875 C 690.824219 335.4375 691.285156 335.949219 691.695312 336.503906 C 692.105469 337.058594 692.460938 337.648438 692.761719 338.269531 C 693.058594 338.890625 693.300781 339.535156 693.476562 340.203125 C 693.65625 340.871094 693.773438 341.546875 693.824219 342.234375 C 693.957031 343.101562 694.023438 343.972656 694.011719 344.847656 C 694 345.726562 693.917969 346.59375 693.765625 347.457031 C 693.609375 348.320312 693.382812 349.164062 693.089844 349.992188 C 692.792969 350.816406 692.429688 351.609375 692 352.375 C 691.574219 353.140625 691.082031 353.863281 690.535156 354.546875 C 689.984375 355.230469 689.382812 355.863281 688.726562 356.445312 C 688.074219 357.027344 687.375 357.550781 686.632812 358.019531 C 685.890625 358.484375 685.113281 358.886719 684.304688 359.222656 C 683.144531 359.570312 681.957031 359.703125 680.75 359.617188 C 679.539062 359.53125 678.386719 359.230469 677.289062 358.722656 C 667.085938 353.710938 664.535156 345.515625 668.496094 331.03125 Z M 679.746094 346.425781 C 680.613281 346.835938 681.523438 347.699219 682.253906 347.5625 C 682.980469 347.425781 683.210938 346.152344 683.710938 345.378906 C 682.84375 344.921875 681.933594 344.101562 681.207031 344.238281 C 680.476562 344.375 680.203125 345.652344 679.746094 346.425781 Z M 679.746094 346.425781 " fill-opacity="1" fill-rule="nonzero"/><path fill="#f7ebe8" d="M 384.675781 565.933594 C 390.367188 564.929688 395.195312 563.929688 400.070312 563.199219 C 400.496094 563.136719 400.925781 563.113281 401.359375 563.136719 C 401.789062 563.15625 402.214844 563.222656 402.632812 563.328125 C 403.050781 563.4375 403.453125 563.582031 403.84375 563.769531 C 404.230469 563.957031 404.597656 564.183594 404.941406 564.445312 C 405.285156 564.707031 405.601562 564.996094 405.886719 565.320312 C 406.171875 565.644531 406.421875 565.996094 406.636719 566.367188 C 406.851562 566.742188 407.027344 567.136719 407.164062 567.542969 C 407.300781 567.953125 407.398438 568.371094 407.449219 568.800781 C 407.894531 572.542969 407.792969 576.269531 407.152344 579.984375 C 406.507812 583.695312 405.347656 587.242188 403.667969 590.613281 C 403.230469 591.398438 402.679688 592.089844 402.015625 592.691406 C 401.351562 593.292969 400.605469 593.773438 399.78125 594.132812 C 398.960938 594.492188 398.101562 594.707031 397.207031 594.785156 C 396.3125 594.859375 395.429688 594.789062 394.558594 594.578125 C 393.320312 594.355469 392.125 593.980469 390.980469 593.457031 C 389.835938 592.929688 388.773438 592.269531 387.796875 591.472656 C 386.820312 590.675781 385.960938 589.769531 385.214844 588.75 C 384.46875 587.734375 383.863281 586.640625 383.398438 585.46875 C 381.625 581.007812 381.941406 574.675781 384.675781 565.933594 Z M 399.480469 573.808594 C 397.765625 574.777344 396.125 575.855469 394.558594 577.042969 C 394.296875 577.214844 394.058594 577.410156 393.835938 577.632812 C 393.613281 577.851562 393.417969 578.09375 393.246094 578.351562 C 393.074219 578.613281 392.933594 578.890625 392.816406 579.179688 C 392.703125 579.46875 392.617188 579.769531 392.566406 580.074219 C 392.511719 580.382812 392.492188 580.691406 392.5 581.003906 C 392.511719 581.316406 392.554688 581.625 392.625 581.925781 C 392.699219 582.230469 392.804688 582.523438 392.9375 582.804688 C 393.070312 583.085938 393.230469 583.351562 393.421875 583.601562 C 394.035156 584.425781 394.855469 584.882812 395.878906 584.96875 C 399.160156 584.96875 399.707031 582.417969 400.023438 579.957031 C 399.953125 577.875 399.722656 575.8125 399.34375 573.765625 Z M 399.480469 573.808594 " fill-opacity="1" fill-rule="nonzero"/><path fill="#f7ebe8" d="M 397.746094 664.027344 C 405.21875 657.789062 410 658.425781 414.375 664.710938 C 414.988281 665.421875 415.539062 666.179688 416.027344 666.980469 C 416.515625 667.785156 416.933594 668.621094 417.28125 669.496094 C 417.628906 670.367188 417.90625 671.261719 418.105469 672.179688 C 418.304688 673.097656 418.425781 674.027344 418.472656 674.964844 C 418.515625 675.90625 418.484375 676.839844 418.371094 677.773438 C 418.261719 678.707031 418.074219 679.625 417.8125 680.527344 C 417.546875 681.429688 417.210938 682.300781 416.804688 683.148438 C 416.394531 683.996094 415.917969 684.800781 415.375 685.566406 C 414.847656 686.332031 414.25 687.039062 413.59375 687.695312 C 412.933594 688.351562 412.222656 688.941406 411.457031 689.46875 C 410.6875 689.996094 409.882812 690.449219 409.035156 690.828125 C 408.183594 691.207031 407.308594 691.507812 406.40625 691.726562 C 405.503906 691.949219 404.589844 692.085938 403.660156 692.140625 C 402.730469 692.191406 401.808594 692.164062 400.882812 692.050781 C 399.960938 691.9375 399.058594 691.738281 398.171875 691.460938 C 397.285156 691.183594 396.429688 690.828125 395.605469 690.394531 C 394.933594 689.953125 394.308594 689.453125 393.726562 688.894531 C 393.148438 688.335938 392.628906 687.730469 392.164062 687.070312 C 391.699219 686.414062 391.304688 685.71875 390.972656 684.984375 C 390.636719 684.253906 390.378906 683.496094 390.191406 682.714844 C 390 681.933594 389.886719 681.140625 389.847656 680.335938 C 389.808594 679.53125 389.847656 678.730469 389.960938 677.933594 C 390.074219 677.136719 390.257812 676.359375 390.519531 675.597656 C 390.78125 674.835938 391.109375 674.105469 391.507812 673.40625 C 393.410156 670.164062 395.492188 667.035156 397.746094 664.027344 Z M 409.089844 668.214844 C 403.304688 668.214844 402.304688 672.222656 400.753906 675.867188 C 399.890625 677.871094 399.617188 680.421875 401.757812 680.875 C 402.871094 681.214844 404.003906 681.304688 405.160156 681.144531 C 406.3125 680.984375 407.378906 680.59375 408.359375 679.964844 C 408.761719 679.597656 409.125 679.195312 409.449219 678.761719 C 409.773438 678.324219 410.054688 677.859375 410.289062 677.367188 C 410.523438 676.878906 410.707031 676.371094 410.84375 675.84375 C 410.980469 675.316406 411.066406 674.78125 411.101562 674.238281 C 411.132812 673.695312 411.117188 673.15625 411.046875 672.613281 C 410.972656 672.074219 410.851562 671.546875 410.679688 671.03125 C 410.507812 670.515625 410.289062 670.019531 410.019531 669.546875 C 409.753906 669.074219 409.441406 668.628906 409.089844 668.214844 Z M 409.089844 668.214844 " fill-opacity="1" fill-rule="nonzero"/><path fill="#f7ebe8" d="M 968.898438 502.765625 C 967.179688 503.9375 965.328125 504.832031 963.34375 505.453125 C 959.199219 506.273438 954.777344 509.007812 950.769531 504.90625 C 949.761719 503.8125 948.917969 502.597656 948.238281 501.269531 C 947.558594 499.945312 947.070312 498.550781 946.773438 497.089844 C 946.476562 495.628906 946.382812 494.152344 946.488281 492.667969 C 946.59375 491.179688 946.898438 489.734375 947.398438 488.332031 C 947.683594 487.710938 948.011719 487.117188 948.394531 486.554688 C 948.773438 485.988281 949.195312 485.457031 949.660156 484.960938 C 950.128906 484.46875 950.632812 484.011719 951.171875 483.601562 C 951.714844 483.1875 952.285156 482.820312 952.886719 482.5 C 953.488281 482.183594 954.113281 481.914062 954.757812 481.699219 C 955.402344 481.480469 956.0625 481.320312 956.734375 481.210938 C 957.40625 481.101562 958.082031 481.050781 958.761719 481.050781 C 959.445312 481.054688 960.121094 481.113281 960.792969 481.226562 C 968.71875 481.636719 972.363281 484.277344 974.09375 490.652344 C 975.503906 496.074219 974.503906 498.851562 968.898438 502.765625 Z M 968.898438 502.765625 " fill-opacity="1" fill-rule="nonzero"/><path fill="#f7ebe8" d="M 537.859375 331.945312 C 536.859375 333.007812 535.980469 334.160156 535.21875 335.40625 C 534.035156 337.816406 532.347656 339.957031 529.660156 339.320312 C 525.105469 338.136719 521.007812 336.132812 520.050781 331.078125 C 519.578125 327.628906 519.46875 324.167969 519.730469 320.695312 C 519.734375 320.070312 519.789062 319.453125 519.890625 318.835938 C 519.992188 318.21875 520.140625 317.617188 520.339844 317.023438 C 520.539062 316.433594 520.78125 315.859375 521.070312 315.308594 C 521.359375 314.753906 521.691406 314.226562 522.0625 313.726562 C 522.433594 313.226562 522.84375 312.757812 523.292969 312.324219 C 523.738281 311.886719 524.214844 311.488281 524.726562 311.128906 C 525.234375 310.769531 525.769531 310.453125 526.332031 310.179688 C 526.890625 309.902344 527.46875 309.675781 528.066406 309.492188 C 531.359375 308.453125 534.730469 307.832031 538.179688 307.625 C 539.175781 307.484375 540.171875 307.503906 541.160156 307.679688 C 542.152344 307.855469 543.09375 308.183594 543.980469 308.65625 C 544.867188 309.132812 545.660156 309.734375 546.359375 310.457031 C 547.054688 311.183594 547.625 312 548.0625 312.90625 C 548.503906 313.808594 548.808594 314.75 548.976562 315.738281 C 549.140625 316.726562 549.164062 317.71875 549.042969 318.710938 C 548.921875 319.707031 548.660156 320.664062 548.261719 321.582031 C 547.863281 322.5 547.339844 323.34375 546.695312 324.109375 C 544.167969 327.117188 541.417969 329.910156 538.453125 332.488281 Z M 540.320312 324.566406 C 541.269531 321.941406 541.878906 319.238281 542.140625 316.460938 C 542.140625 314.089844 538.496094 313.363281 534.625 314.867188 C 532.265625 315.570312 530.125 316.691406 528.203125 318.234375 C 527.625 318.984375 527.242188 319.824219 527.050781 320.75 C 526.859375 321.679688 526.878906 322.601562 527.109375 323.519531 C 527.484375 324.347656 528.03125 325.042969 528.75 325.605469 C 529.464844 326.167969 530.269531 326.535156 531.164062 326.707031 C 534.296875 326.335938 537.347656 325.621094 540.320312 324.566406 Z M 540.320312 324.566406 " fill-opacity="1" fill-rule="nonzero"/><path fill="#f7ebe8" d="M 787.0625 549.492188 C 788.742188 548.289062 790.535156 547.289062 792.4375 546.484375 C 802.960938 543.390625 810.660156 550.21875 808.519531 560.648438 C 808.519531 561.605469 807.925781 562.5625 807.652344 563.519531 C 805.238281 571.988281 801.003906 576.542969 796.675781 575.449219 C 795.824219 575.105469 795.007812 574.703125 794.21875 574.234375 C 793.429688 573.769531 792.679688 573.246094 791.972656 572.664062 C 791.261719 572.085938 790.601562 571.457031 789.988281 570.777344 C 789.371094 570.097656 788.8125 569.375 788.308594 568.609375 C 787.800781 567.847656 787.355469 567.050781 786.972656 566.21875 C 786.585938 565.386719 786.265625 564.53125 786.011719 563.652344 C 785.753906 562.773438 785.566406 561.878906 785.445312 560.972656 C 785.324219 560.0625 785.269531 559.152344 785.289062 558.234375 C 785.730469 555.289062 786.324219 552.375 787.0625 549.492188 Z M 800.730469 556.734375 C 796.175781 561.285156 796.175781 561.285156 798.269531 565.476562 Z M 800.730469 556.734375 " fill-opacity="1" fill-rule="nonzero"/><path fill="#f7ebe8" d="M 415.011719 482.773438 C 417.5625 475.941406 421.753906 471.980469 428.675781 473.121094 C 430.421875 473.402344 432.097656 473.914062 433.703125 474.652344 C 435.3125 475.390625 436.789062 476.332031 438.136719 477.476562 C 439.484375 478.621094 440.65625 479.925781 441.648438 481.390625 C 442.640625 482.851562 443.417969 484.421875 443.980469 486.097656 C 444.144531 486.707031 444.253906 487.328125 444.304688 487.953125 C 444.359375 488.582031 444.355469 489.210938 444.296875 489.839844 C 444.238281 490.464844 444.125 491.082031 443.957031 491.691406 C 443.785156 492.296875 443.566406 492.886719 443.292969 493.453125 C 443.019531 494.023438 442.695312 494.5625 442.328125 495.070312 C 441.957031 495.582031 441.542969 496.054688 441.089844 496.492188 C 440.636719 496.929688 440.148438 497.324219 439.621094 497.675781 C 439.097656 498.023438 438.546875 498.324219 437.96875 498.578125 C 437.480469 498.867188 436.972656 499.109375 436.441406 499.300781 C 435.90625 499.496094 435.363281 499.636719 434.804688 499.730469 C 434.246094 499.824219 433.683594 499.863281 433.117188 499.851562 C 432.550781 499.835938 431.988281 499.773438 431.4375 499.65625 C 430.882812 499.539062 430.34375 499.371094 429.820312 499.152344 C 429.296875 498.9375 428.800781 498.671875 428.324219 498.363281 C 427.851562 498.050781 427.410156 497.699219 427.003906 497.308594 C 426.59375 496.914062 426.226562 496.488281 425.898438 496.027344 C 422.4375 491.972656 419.109375 487.738281 415.011719 482.773438 Z M 430.910156 486.691406 L 434.324219 488.46875 C 434.734375 486.972656 435.023438 485.453125 435.191406 483.914062 C 435.191406 483.59375 433.09375 482.773438 433.003906 482.910156 C 432.230469 484.128906 431.53125 485.390625 430.910156 486.691406 Z M 430.910156 486.691406 " fill-opacity="1" fill-rule="nonzero"/><g clip-path="url(#b7419a654c)"><path fill="#f7ebe8" d="M 493.675781 196.414062 C 492.855469 194.867188 491.582031 192.679688 490.578125 190.402344 C 490.363281 190.015625 490.191406 189.609375 490.0625 189.183594 C 489.9375 188.757812 489.859375 188.324219 489.832031 187.882812 C 489.800781 187.441406 489.820312 187 489.890625 186.5625 C 489.957031 186.125 490.074219 185.699219 490.238281 185.285156 C 490.402344 184.875 490.609375 184.484375 490.859375 184.117188 C 491.109375 183.753906 491.398438 183.417969 491.722656 183.117188 C 492.046875 182.816406 492.402344 182.550781 492.785156 182.328125 C 493.167969 182.105469 493.570312 181.929688 493.996094 181.796875 C 498.660156 180.246094 503.445312 179.257812 508.34375 178.835938 C 509.574219 178.917969 510.742188 179.226562 511.855469 179.761719 C 512.964844 180.296875 513.933594 181.019531 514.765625 181.933594 C 520.140625 187.441406 520.050781 193.273438 515.128906 197.507812 C 507.660156 203.835938 499.277344 203.609375 493.675781 196.414062 Z M 508.527344 191.585938 L 509.390625 188.445312 C 508.144531 188.011719 506.871094 187.707031 505.566406 187.535156 C 505.070312 188.265625 504.78125 189.070312 504.699219 189.949219 C 505.9375 190.585938 507.210938 191.132812 508.527344 191.585938 Z M 508.527344 191.585938 " fill-opacity="1" fill-rule="nonzero"/></g><path fill="#f7ebe8" d="M 542.003906 512.875 C 541.128906 511.542969 540.449219 510.113281 539.953125 508.597656 C 537.175781 498.03125 542.640625 492.566406 553.621094 494.933594 L 555.078125 495.207031 C 561.910156 496.890625 565.417969 500.535156 565.507812 505.910156 C 565.515625 506.585938 565.46875 507.261719 565.375 507.933594 C 565.28125 508.605469 565.136719 509.265625 564.941406 509.917969 C 564.75 510.566406 564.507812 511.199219 564.222656 511.8125 C 563.933594 512.429688 563.601562 513.019531 563.226562 513.582031 C 562.851562 514.148438 562.4375 514.683594 561.980469 515.183594 C 561.527344 515.6875 561.035156 516.15625 560.511719 516.585938 C 559.988281 517.015625 559.433594 517.40625 558.851562 517.753906 C 558.269531 518.101562 557.664062 518.402344 557.035156 518.660156 C 551.980469 520.390625 546.832031 518.84375 542.003906 512.875 Z M 556.582031 507.046875 C 556.53125 506.21875 556.40625 505.398438 556.214844 504.589844 C 556.214844 504.589844 555.03125 504.589844 554.941406 504.589844 C 554.691406 505.363281 554.492188 506.152344 554.347656 506.957031 Z M 556.582031 507.046875 " fill-opacity="1" fill-rule="nonzero"/><path fill="#f7ebe8" d="M 779.730469 639.800781 C 779.730469 647.949219 773.898438 651.546875 770.074219 657.058594 C 767.058594 656.304688 764.160156 655.242188 761.375 653.871094 C 754.769531 649.316406 752.582031 643.304688 755.496094 638.84375 C 755.722656 638.433594 755.96875 638.035156 756.234375 637.652344 C 756.503906 637.269531 756.792969 636.902344 757.097656 636.546875 C 757.40625 636.195312 757.734375 635.863281 758.078125 635.546875 C 758.421875 635.226562 758.78125 634.929688 759.160156 634.652344 C 759.535156 634.375 759.925781 634.121094 760.328125 633.886719 C 760.734375 633.648438 761.152344 633.4375 761.578125 633.25 C 762.003906 633.058594 762.441406 632.890625 762.886719 632.75 C 763.332031 632.609375 763.785156 632.492188 764.242188 632.398438 C 764.703125 632.304688 765.164062 632.238281 765.628906 632.195312 C 766.097656 632.152344 766.5625 632.132812 767.03125 632.140625 C 767.5 632.152344 767.964844 632.183594 768.429688 632.242188 C 768.890625 632.300781 769.351562 632.386719 769.808594 632.496094 C 770.261719 632.601562 770.710938 632.738281 771.148438 632.894531 C 771.589844 633.050781 772.019531 633.234375 772.441406 633.4375 C 772.863281 633.640625 773.269531 633.867188 773.667969 634.117188 C 774.0625 634.367188 774.445312 634.636719 774.8125 634.925781 C 776.585938 636.414062 778.226562 638.039062 779.730469 639.800781 Z M 779.730469 639.800781 " fill-opacity="1" fill-rule="nonzero"/><path fill="#f7ebe8" d="M 350.011719 473.164062 C 353.292969 468.609375 355.433594 465.195312 357.984375 462.144531 C 358.335938 461.703125 358.734375 461.304688 359.179688 460.953125 C 359.621094 460.601562 360.097656 460.304688 360.609375 460.058594 C 361.121094 459.8125 361.652344 459.628906 362.203125 459.503906 C 362.757812 459.378906 363.316406 459.3125 363.882812 459.3125 C 364.449219 459.3125 365.007812 459.378906 365.558594 459.503906 C 366.109375 459.628906 366.640625 459.8125 367.152344 460.058594 C 367.664062 460.304688 368.140625 460.601562 368.582031 460.953125 C 369.027344 461.304688 369.425781 461.703125 369.78125 462.144531 C 370.792969 463.089844 371.65625 464.152344 372.375 465.335938 C 373.09375 466.519531 373.636719 467.78125 374.003906 469.113281 C 374.375 470.449219 374.558594 471.808594 374.550781 473.191406 C 374.546875 474.574219 374.351562 475.933594 373.972656 477.265625 C 371.511719 486.691406 362.582031 489.46875 355.75 482.59375 C 353.480469 479.667969 351.566406 476.527344 350.011719 473.164062 Z M 350.011719 473.164062 " fill-opacity="1" fill-rule="nonzero"/><path fill="#f7ebe8" d="M 408.496094 251.199219 C 402.484375 243.503906 402.710938 239.449219 408.042969 234.851562 C 411.066406 232.246094 414.285156 229.910156 417.699219 227.835938 C 418.082031 227.628906 418.484375 227.457031 418.898438 227.316406 C 419.3125 227.175781 419.734375 227.070312 420.167969 227.003906 C 420.601562 226.9375 421.035156 226.90625 421.472656 226.910156 C 421.910156 226.917969 422.34375 226.960938 422.773438 227.042969 C 423.203125 227.121094 423.625 227.238281 424.035156 227.390625 C 424.445312 227.539062 424.839844 227.726562 425.214844 227.945312 C 425.59375 228.164062 425.953125 228.414062 426.289062 228.695312 C 426.625 228.972656 426.933594 229.28125 427.21875 229.613281 C 427.621094 230.089844 427.996094 230.585938 428.339844 231.101562 C 428.6875 231.621094 429.003906 232.15625 429.289062 232.707031 C 429.578125 233.261719 429.832031 233.828125 430.054688 234.410156 C 430.277344 234.992188 430.464844 235.582031 430.621094 236.183594 C 430.777344 236.789062 430.898438 237.398438 430.988281 238.015625 C 431.074219 238.628906 431.128906 239.25 431.144531 239.871094 C 431.164062 240.492188 431.148438 241.117188 431.09375 241.734375 C 431.042969 242.355469 430.957031 242.972656 430.835938 243.582031 C 430.714844 244.191406 430.558594 244.796875 430.371094 245.386719 C 430.183594 245.980469 429.960938 246.5625 429.707031 247.132812 C 429.453125 247.699219 429.167969 248.25 428.851562 248.789062 C 428.535156 249.324219 428.191406 249.839844 427.816406 250.339844 C 427.441406 250.835938 427.039062 251.3125 426.613281 251.765625 C 426.1875 252.21875 425.734375 252.644531 425.257812 253.046875 C 424.78125 253.449219 424.285156 253.820312 423.769531 254.167969 C 423.25 254.515625 422.714844 254.832031 422.164062 255.117188 C 421.289062 255.558594 420.363281 255.824219 419.386719 255.910156 C 418.410156 255.996094 417.453125 255.898438 416.515625 255.617188 C 413.730469 254.347656 411.058594 252.875 408.496094 251.199219 Z M 423.121094 235.761719 C 421.433594 234.078125 418.152344 234.757812 415.421875 237.308594 C 415.128906 237.519531 414.859375 237.757812 414.613281 238.023438 C 414.367188 238.289062 414.152344 238.578125 413.964844 238.890625 C 413.78125 239.199219 413.628906 239.527344 413.507812 239.867188 C 413.390625 240.207031 413.308594 240.558594 413.261719 240.917969 C 413.214844 241.277344 413.203125 241.636719 413.230469 241.996094 C 413.257812 242.359375 413.320312 242.710938 413.417969 243.058594 C 413.519531 243.40625 413.652344 243.742188 413.820312 244.0625 C 413.988281 244.382812 414.1875 244.679688 414.417969 244.960938 C 414.683594 245.289062 414.980469 245.582031 415.3125 245.84375 C 415.644531 246.105469 416 246.328125 416.378906 246.507812 C 416.757812 246.691406 417.15625 246.828125 417.566406 246.921875 C 417.976562 247.015625 418.394531 247.0625 418.816406 247.0625 C 419.234375 247.0625 419.652344 247.015625 420.0625 246.921875 C 420.476562 246.828125 420.871094 246.691406 421.25 246.507812 C 421.632812 246.328125 421.988281 246.105469 422.316406 245.84375 C 422.648438 245.582031 422.945312 245.289062 423.210938 244.960938 C 423.730469 244.304688 424.125 243.578125 424.394531 242.789062 C 424.664062 241.996094 424.796875 241.179688 424.789062 240.34375 C 424.777344 239.507812 424.632812 238.695312 424.34375 237.910156 C 424.058594 237.125 423.652344 236.40625 423.121094 235.761719 Z M 423.121094 235.761719 " fill-opacity="1" fill-rule="nonzero"/><path fill="#f7ebe8" d="M 258.910156 757.203125 C 258.386719 756.652344 257.917969 756.0625 257.496094 755.433594 C 257.074219 754.800781 256.710938 754.136719 256.402344 753.445312 C 256.097656 752.75 255.851562 752.035156 255.671875 751.296875 C 255.488281 750.5625 255.367188 749.816406 255.316406 749.058594 C 255.261719 748.300781 255.273438 747.546875 255.351562 746.792969 C 255.425781 746.039062 255.570312 745.292969 255.773438 744.5625 C 255.980469 743.835938 256.246094 743.125 256.574219 742.441406 C 256.902344 741.757812 257.285156 741.109375 257.726562 740.488281 C 258.242188 739.949219 258.800781 739.453125 259.398438 739.003906 C 259.992188 738.558594 260.625 738.160156 261.285156 737.8125 C 261.949219 737.46875 262.632812 737.179688 263.34375 736.945312 C 264.054688 736.710938 264.777344 736.539062 265.515625 736.421875 C 266.253906 736.308594 266.996094 736.253906 267.742188 736.261719 C 268.492188 736.269531 269.234375 736.339844 269.96875 736.46875 C 270.703125 736.597656 271.425781 736.785156 272.128906 737.03125 C 272.835938 737.277344 273.515625 737.582031 274.171875 737.9375 C 274.699219 738.144531 275.203125 738.390625 275.683594 738.6875 C 276.167969 738.980469 276.621094 739.316406 277.042969 739.691406 C 277.464844 740.070312 277.847656 740.480469 278.195312 740.925781 C 278.542969 741.371094 278.847656 741.84375 279.109375 742.34375 C 279.371094 742.847656 279.585938 743.367188 279.753906 743.90625 C 279.921875 744.445312 280.039062 744.996094 280.109375 745.558594 C 280.175781 746.117188 280.195312 746.679688 280.160156 747.246094 C 280.128906 747.808594 280.042969 748.367188 279.910156 748.914062 C 279.628906 750.386719 279.230469 751.828125 278.726562 753.242188 C 277.175781 757.386719 276.355469 762.347656 271.390625 763.804688 C 265.242188 765.355469 262.511719 759.9375 258.910156 757.203125 Z M 267.203125 751.511719 C 268 751.972656 268.832031 752.355469 269.707031 752.648438 C 269.980469 752.648438 270.527344 752.195312 270.753906 751.828125 C 270.988281 751.546875 271.191406 751.246094 271.363281 750.921875 C 271.535156 750.597656 271.671875 750.261719 271.773438 749.910156 C 271.875 749.554688 271.941406 749.199219 271.96875 748.832031 C 271.996094 748.46875 271.988281 748.101562 271.941406 747.738281 C 271.894531 747.375 271.808594 747.023438 271.691406 746.675781 C 271.570312 746.328125 271.414062 746 271.226562 745.6875 C 271.039062 745.371094 270.820312 745.078125 270.570312 744.808594 C 270.324219 744.542969 270.050781 744.300781 269.753906 744.085938 C 269.28125 743.878906 268.8125 743.878906 268.339844 744.085938 C 265.289062 745.453125 266.792969 748.140625 266.699219 750.371094 C 266.65625 750.507812 267.019531 750.964844 267.203125 751.417969 Z M 267.203125 751.511719 " fill-opacity="1" fill-rule="nonzero"/><path fill="#f7ebe8" d="M 505.109375 423.570312 C 504.429688 424.113281 503.6875 424.535156 502.875 424.84375 C 502.0625 425.148438 501.222656 425.320312 500.355469 425.363281 C 499.488281 425.402344 498.636719 425.308594 497.796875 425.082031 C 496.960938 424.855469 496.179688 424.5 495.453125 424.027344 C 494.695312 423.316406 494.007812 422.542969 493.382812 421.714844 C 492.757812 420.886719 492.207031 420.007812 491.734375 419.085938 C 491.257812 418.160156 490.867188 417.203125 490.554688 416.214844 C 490.246094 415.222656 490.023438 414.210938 489.882812 413.183594 C 489.746094 412.152344 489.695312 411.121094 489.734375 410.082031 C 489.773438 409.046875 489.902344 408.019531 490.113281 407.003906 C 490.328125 405.988281 490.628906 404.996094 491.011719 404.03125 C 491.394531 403.066406 491.859375 402.140625 492.402344 401.257812 C 492.730469 400.808594 493.09375 400.390625 493.492188 400.007812 C 493.894531 399.621094 494.324219 399.273438 494.785156 398.960938 C 495.242188 398.652344 495.726562 398.382812 496.234375 398.15625 C 496.742188 397.929688 497.265625 397.746094 497.804688 397.613281 C 498.34375 397.476562 498.886719 397.386719 499.441406 397.34375 C 499.996094 397.304688 500.550781 397.308594 501.101562 397.363281 C 501.65625 397.417969 502.199219 397.519531 502.734375 397.667969 C 503.269531 397.820312 503.789062 398.011719 504.289062 398.25 C 505.460938 398.65625 506.542969 399.222656 507.542969 399.957031 C 508.539062 400.691406 509.40625 401.554688 510.144531 402.550781 C 510.878906 403.546875 511.449219 404.628906 511.859375 405.796875 C 512.265625 406.96875 512.492188 408.171875 512.535156 409.410156 C 512.121094 412.117188 511.277344 414.683594 510.003906 417.109375 C 508.734375 419.535156 507.101562 421.691406 505.109375 423.570312 Z M 505.609375 405.71875 C 502.285156 406.21875 500.144531 405.71875 498.960938 406.8125 C 498.761719 406.96875 498.589844 407.144531 498.4375 407.34375 C 498.285156 407.542969 498.15625 407.757812 498.058594 407.988281 C 497.957031 408.21875 497.886719 408.457031 497.847656 408.703125 C 497.804688 408.949219 497.792969 409.199219 497.816406 409.449219 C 497.835938 409.699219 497.886719 409.941406 497.964844 410.179688 C 498.046875 410.417969 498.152344 410.640625 498.289062 410.851562 C 498.425781 411.0625 498.585938 411.253906 498.765625 411.425781 C 498.949219 411.597656 499.152344 411.746094 499.371094 411.867188 C 500.328125 412.550781 502.695312 412.734375 503.242188 411.867188 C 504.324219 409.929688 505.113281 407.882812 505.609375 405.71875 Z M 505.609375 405.71875 " fill-opacity="1" fill-rule="nonzero"/><path fill="#f7ebe8" d="M 287.378906 547.714844 C 281.824219 552.269531 277.632812 552.269531 274.078125 548.214844 C 269.070312 542.296875 269.296875 534.964844 274.898438 531.320312 C 277.382812 529.65625 280.101562 528.578125 283.054688 528.085938 C 284.046875 527.949219 285.039062 527.964844 286.027344 528.125 C 287.019531 528.289062 287.960938 528.59375 288.859375 529.039062 C 289.757812 529.484375 290.570312 530.054688 291.296875 530.746094 C 292.023438 531.4375 292.628906 532.222656 293.121094 533.097656 C 293.363281 533.527344 293.566406 533.976562 293.734375 534.445312 C 293.902344 534.910156 294.027344 535.386719 294.109375 535.875 C 294.195312 536.363281 294.238281 536.855469 294.238281 537.351562 C 294.238281 537.847656 294.195312 538.339844 294.109375 538.828125 C 294.027344 539.316406 293.902344 539.792969 293.734375 540.257812 C 293.570312 540.726562 293.363281 541.175781 293.121094 541.605469 C 292.875 542.035156 292.597656 542.445312 292.285156 542.828125 C 291.96875 543.210938 291.625 543.566406 291.25 543.890625 C 289.929688 545.210938 288.429688 546.53125 287.378906 547.714844 Z M 285.46875 536.695312 L 285.832031 535.648438 C 285.46875 535.648438 285.011719 535.648438 284.785156 535.648438 C 284.554688 535.648438 284.511719 536.332031 284.375 536.648438 Z M 285.46875 536.695312 " fill-opacity="1" fill-rule="nonzero"/><path fill="#f7ebe8" d="M 290.523438 618.53125 C 290.164062 618.957031 289.765625 619.34375 289.332031 619.695312 C 288.898438 620.042969 288.4375 620.347656 287.945312 620.613281 C 287.453125 620.875 286.941406 621.085938 286.410156 621.253906 C 285.878906 621.417969 285.335938 621.53125 284.78125 621.597656 C 284.226562 621.660156 283.671875 621.667969 283.117188 621.628906 C 282.5625 621.585938 282.015625 621.492188 281.476562 621.347656 C 280.941406 621.199219 280.421875 621.007812 279.917969 620.761719 C 279.417969 620.519531 278.945312 620.230469 278.496094 619.898438 C 277.996094 619.53125 277.53125 619.125 277.105469 618.671875 C 276.683594 618.21875 276.304688 617.730469 275.972656 617.203125 C 275.640625 616.679688 275.359375 616.128906 275.132812 615.550781 C 274.902344 614.972656 274.730469 614.378906 274.617188 613.769531 C 274.5 613.160156 274.445312 612.542969 274.445312 611.921875 C 274.445312 611.300781 274.503906 610.683594 274.625 610.074219 C 274.742188 609.464844 274.914062 608.871094 275.144531 608.296875 C 275.375 607.71875 275.660156 607.167969 275.992188 606.644531 C 276.816406 604.839844 277.960938 603.269531 279.433594 601.941406 C 280.90625 600.609375 282.585938 599.628906 284.464844 598.996094 C 284.816406 598.871094 285.171875 598.769531 285.535156 598.695312 C 285.898438 598.617188 286.265625 598.5625 286.632812 598.53125 C 287.003906 598.503906 287.375 598.496094 287.746094 598.515625 C 288.117188 598.53125 288.484375 598.574219 288.847656 598.636719 C 289.214844 598.703125 289.574219 598.789062 289.929688 598.902344 C 290.28125 599.011719 290.628906 599.144531 290.964844 599.300781 C 291.300781 599.457031 291.628906 599.632812 291.941406 599.832031 C 292.257812 600.027344 292.554688 600.246094 292.84375 600.480469 C 293.128906 600.71875 293.398438 600.972656 293.652344 601.242188 C 293.90625 601.511719 294.140625 601.800781 294.359375 602.101562 C 294.574219 602.402344 294.773438 602.714844 294.949219 603.042969 C 295.125 603.367188 295.28125 603.703125 295.414062 604.050781 C 295.546875 604.398438 295.65625 604.75 295.746094 605.109375 C 295.832031 605.472656 295.898438 605.835938 295.9375 606.203125 C 295.980469 606.574219 295.996094 606.941406 295.988281 607.3125 C 295.984375 607.683594 295.953125 608.054688 295.898438 608.421875 C 295.851562 609.410156 295.699219 610.382812 295.4375 611.339844 C 295.179688 612.292969 294.816406 613.207031 294.351562 614.082031 C 293.886719 614.957031 293.332031 615.769531 292.683594 616.519531 C 292.039062 617.269531 291.316406 617.941406 290.523438 618.53125 Z M 290.523438 618.53125 " fill-opacity="1" fill-rule="nonzero"/><path fill="#f7ebe8" d="M 831.476562 677.1875 C 830.738281 676.382812 830.136719 675.488281 829.667969 674.503906 C 829.195312 673.519531 828.875 672.492188 828.710938 671.414062 C 828.542969 670.335938 828.539062 669.257812 828.691406 668.175781 C 828.84375 667.097656 829.148438 666.0625 829.609375 665.074219 C 831.109375 661.15625 834.710938 660.839844 838.308594 660.882812 C 839.292969 660.816406 840.28125 660.816406 841.269531 660.882812 C 842.386719 660.914062 843.476562 661.113281 844.53125 661.480469 C 845.589844 661.851562 846.566406 662.371094 847.460938 663.042969 C 848.355469 663.71875 849.125 664.511719 849.769531 665.425781 C 850.417969 666.339844 850.90625 667.332031 851.242188 668.398438 C 851.421875 669.238281 851.480469 670.089844 851.414062 670.945312 C 851.351562 671.800781 851.171875 672.632812 850.875 673.4375 C 850.574219 674.246094 850.171875 674.992188 849.660156 675.683594 C 849.152344 676.375 848.554688 676.984375 847.875 677.507812 C 847.074219 678.269531 846.179688 678.90625 845.195312 679.410156 C 844.210938 679.914062 843.175781 680.269531 842.085938 680.46875 C 840.996094 680.671875 839.902344 680.714844 838.804688 680.597656 C 837.703125 680.480469 836.640625 680.210938 835.621094 679.785156 C 834.140625 679.074219 832.761719 678.207031 831.476562 677.1875 Z M 831.476562 677.1875 " fill-opacity="1" fill-rule="nonzero"/><path fill="#f7ebe8" d="M 454.503906 412.277344 C 455.367188 414.507812 457.601562 417.332031 457.191406 419.699219 C 456.492188 424.101562 454.882812 428.140625 452.363281 431.8125 C 449.902344 435.367188 442.523438 433.816406 439.199219 429.765625 C 438.804688 429.371094 438.457031 428.9375 438.15625 428.464844 C 437.855469 427.992188 437.613281 427.492188 437.421875 426.964844 C 437.234375 426.441406 437.101562 425.902344 437.03125 425.347656 C 436.960938 424.792969 436.953125 424.234375 437.003906 423.679688 C 437.058594 423.121094 437.167969 422.578125 437.34375 422.046875 C 437.515625 421.515625 437.742188 421.007812 438.027344 420.527344 C 438.308594 420.042969 438.644531 419.597656 439.027344 419.191406 C 439.40625 418.785156 439.828125 418.421875 440.292969 418.105469 C 444.527344 415.648438 447.988281 411.503906 454.503906 412.277344 Z M 454.503906 412.277344 " fill-opacity="1" fill-rule="nonzero"/><path fill="#f7ebe8" d="M 349.601562 550.8125 C 347.53125 553.148438 345.238281 555.246094 342.722656 557.097656 C 336.621094 560.46875 332.339844 558.644531 330.105469 552.179688 C 329.789062 551.269531 329.605469 550.265625 329.332031 549.308594 C 327.691406 543.570312 328.96875 540.203125 333.339844 538.378906 C 333.894531 538.121094 334.46875 537.917969 335.0625 537.769531 C 335.65625 537.617188 336.257812 537.527344 336.867188 537.492188 C 337.480469 537.457031 338.089844 537.484375 338.695312 537.566406 C 339.300781 537.648438 339.894531 537.785156 340.472656 537.980469 C 341.054688 538.175781 341.609375 538.425781 342.140625 538.726562 C 342.675781 539.027344 343.175781 539.378906 343.640625 539.773438 C 344.105469 540.171875 344.53125 540.609375 344.910156 541.085938 C 345.292969 541.5625 345.628906 542.074219 345.910156 542.613281 C 347.300781 545.277344 348.53125 548.007812 349.601562 550.8125 Z M 349.601562 550.8125 " fill-opacity="1" fill-rule="nonzero"/><path fill="#f7ebe8" d="M 453.457031 540.382812 C 457.328125 538.898438 461.289062 537.714844 465.34375 536.832031 C 465.851562 536.75 466.359375 536.71875 466.871094 536.738281 C 467.382812 536.753906 467.886719 536.820312 468.386719 536.933594 C 468.886719 537.050781 469.371094 537.210938 469.839844 537.417969 C 470.304688 537.625 470.75 537.875 471.171875 538.167969 C 471.589844 538.457031 471.980469 538.789062 472.335938 539.15625 C 472.695312 539.519531 473.015625 539.917969 473.296875 540.347656 C 473.578125 540.773438 473.816406 541.226562 474.007812 541.699219 C 474.203125 542.171875 474.351562 542.660156 474.453125 543.160156 C 474.5625 543.644531 474.628906 544.132812 474.652344 544.628906 C 474.679688 545.125 474.660156 545.617188 474.597656 546.109375 C 474.535156 546.601562 474.433594 547.082031 474.285156 547.558594 C 474.140625 548.03125 473.957031 548.488281 473.730469 548.929688 C 473.507812 549.371094 473.246094 549.789062 472.945312 550.1875 C 472.648438 550.582031 472.320312 550.949219 471.957031 551.289062 C 471.597656 551.628906 471.207031 551.933594 470.792969 552.207031 C 470.378906 552.476562 469.945312 552.710938 469.488281 552.90625 C 467.625 553.660156 465.699219 554.160156 463.703125 554.410156 C 457.507812 555.367188 455.09375 553.589844 453.457031 546.621094 C 453.269531 544.542969 453.269531 542.464844 453.457031 540.382812 Z M 453.457031 540.382812 " fill-opacity="1" fill-rule="nonzero"/><path fill="#f7ebe8" d="M 654.511719 622.539062 C 654.511719 620.761719 653.964844 617.4375 655.289062 615.433594 C 655.605469 614.976562 655.957031 614.546875 656.339844 614.144531 C 656.726562 613.742188 657.144531 613.375 657.585938 613.039062 C 658.03125 612.703125 658.503906 612.40625 658.996094 612.148438 C 659.488281 611.886719 660 611.667969 660.527344 611.492188 C 661.054688 611.3125 661.59375 611.179688 662.144531 611.089844 C 662.695312 611 663.246094 610.953125 663.804688 610.949219 C 664.363281 610.949219 664.914062 610.992188 665.464844 611.078125 C 666.015625 611.167969 666.554688 611.296875 667.085938 611.472656 C 668.0625 611.652344 668.992188 611.980469 669.871094 612.449219 C 670.746094 612.917969 671.53125 613.511719 672.226562 614.226562 C 672.917969 614.9375 673.488281 615.742188 673.933594 616.632812 C 674.375 617.523438 674.675781 618.460938 674.828125 619.441406 C 675.039062 620.429688 675.042969 621.417969 674.847656 622.40625 C 674.648438 623.394531 674.261719 624.304688 673.691406 625.136719 C 673.339844 625.421875 672.976562 625.695312 672.601562 625.945312 C 672.222656 626.195312 671.832031 626.429688 671.433594 626.640625 C 671.03125 626.851562 670.621094 627.039062 670.199219 627.207031 C 669.78125 627.378906 669.351562 627.523438 668.914062 627.648438 C 668.480469 627.773438 668.039062 627.875 667.59375 627.953125 C 667.144531 628.03125 666.695312 628.089844 666.242188 628.121094 C 665.792969 628.152344 665.339844 628.164062 664.886719 628.148438 C 664.433594 628.132812 663.980469 628.097656 663.53125 628.035156 C 663.082031 627.976562 662.640625 627.890625 662.199219 627.785156 C 661.757812 627.679688 661.324219 627.546875 660.898438 627.398438 C 660.46875 627.246094 660.050781 627.074219 659.640625 626.878906 C 659.234375 626.683594 658.835938 626.46875 658.449219 626.230469 C 658.058594 625.996094 657.6875 625.742188 657.324219 625.464844 C 656.964844 625.191406 656.621094 624.898438 656.289062 624.589844 C 655.957031 624.277344 655.644531 623.953125 655.347656 623.609375 C 655.050781 623.265625 654.773438 622.910156 654.511719 622.539062 Z M 654.511719 622.539062 " fill-opacity="1" fill-rule="nonzero"/><path fill="#f7ebe8" d="M 743.246094 427.625 C 740.328125 430.082031 734.910156 428.582031 731.628906 424.4375 C 728.351562 420.292969 727.804688 413.507812 731.628906 411.230469 C 732.128906 410.875 732.660156 410.570312 733.214844 410.316406 C 733.773438 410.058594 734.347656 409.859375 734.945312 409.710938 C 735.539062 409.5625 736.140625 409.46875 736.753906 409.433594 C 737.367188 409.394531 737.976562 409.417969 738.585938 409.492188 C 739.191406 409.570312 739.789062 409.703125 740.371094 409.890625 C 740.957031 410.082031 741.515625 410.320312 742.054688 410.613281 C 742.59375 410.90625 743.101562 411.246094 743.578125 411.632812 C 744.054688 412.019531 744.488281 412.445312 744.882812 412.914062 C 745.277344 413.464844 745.617188 414.050781 745.902344 414.664062 C 746.1875 415.277344 746.414062 415.910156 746.585938 416.566406 C 746.753906 417.222656 746.863281 417.886719 746.910156 418.5625 C 746.960938 419.234375 746.945312 419.910156 746.871094 420.582031 C 746.796875 421.253906 746.660156 421.914062 746.464844 422.5625 C 746.269531 423.210938 746.015625 423.835938 745.707031 424.4375 C 745.398438 425.039062 745.035156 425.609375 744.621094 426.144531 C 744.207031 426.679688 743.75 427.171875 743.246094 427.625 Z M 743.246094 427.625 " fill-opacity="1" fill-rule="nonzero"/><path fill="#f7ebe8" d="M 575.984375 470.886719 C 576.738281 471.792969 577.371094 472.773438 577.882812 473.832031 C 578.394531 474.890625 578.769531 475.996094 579.007812 477.148438 C 579.246094 478.300781 579.339844 479.464844 579.289062 480.640625 C 579.242188 481.816406 579.050781 482.96875 578.71875 484.09375 C 578.441406 484.757812 578.050781 485.34375 577.546875 485.855469 C 577.042969 486.367188 576.460938 486.765625 575.804688 487.054688 C 574.417969 487.597656 572.992188 487.765625 571.519531 487.554688 C 565.371094 487.007812 561.820312 484.1875 562.09375 480.316406 C 562.148438 479.703125 562.253906 479.101562 562.402344 478.503906 C 562.554688 477.910156 562.753906 477.332031 562.996094 476.765625 C 563.242188 476.203125 563.527344 475.664062 563.855469 475.144531 C 564.1875 474.625 564.554688 474.136719 564.960938 473.675781 C 565.367188 473.21875 565.808594 472.792969 566.285156 472.402344 C 566.757812 472.011719 567.261719 471.664062 567.789062 471.351562 C 568.320312 471.042969 568.871094 470.773438 569.445312 470.550781 C 570.015625 470.328125 570.601562 470.152344 571.203125 470.023438 C 572.847656 470.03125 574.441406 470.320312 575.984375 470.886719 Z M 575.984375 470.886719 " fill-opacity="1" fill-rule="nonzero"/><path fill="#f7ebe8" d="M 560.863281 407.132812 C 559.632812 404.855469 558.8125 403.625 558.265625 402.257812 C 558.042969 401.832031 557.867188 401.386719 557.742188 400.921875 C 557.621094 400.457031 557.550781 399.980469 557.535156 399.5 C 557.519531 399.019531 557.558594 398.542969 557.652344 398.070312 C 557.746094 397.597656 557.890625 397.140625 558.089844 396.703125 C 558.289062 396.265625 558.53125 395.851562 558.824219 395.46875 C 559.117188 395.085938 559.445312 394.738281 559.816406 394.433594 C 560.1875 394.125 560.585938 393.863281 561.019531 393.644531 C 561.449219 393.429688 561.898438 393.265625 562.367188 393.148438 C 564.175781 392.328125 566.074219 391.992188 568.058594 392.148438 C 569.699219 392.511719 572.25 394.0625 572.386719 395.335938 C 572.910156 398.714844 572.667969 402.042969 571.65625 405.308594 C 571.144531 406.390625 570.417969 407.300781 569.484375 408.042969 C 568.546875 408.789062 567.496094 409.289062 566.328125 409.542969 C 564.414062 409.636719 562.320312 407.722656 560.863281 407.132812 Z M 560.863281 407.132812 " fill-opacity="1" fill-rule="nonzero"/><path fill="#f7ebe8" d="M 323.5 413.824219 C 321.359375 410.773438 322.816406 406.8125 327.054688 404.035156 C 327.484375 403.691406 327.945312 403.390625 328.433594 403.140625 C 328.921875 402.890625 329.433594 402.691406 329.964844 402.542969 C 330.496094 402.398438 331.035156 402.304688 331.585938 402.269531 C 332.132812 402.230469 332.683594 402.25 333.226562 402.324219 C 333.773438 402.398438 334.304688 402.527344 334.824219 402.710938 C 335.34375 402.894531 335.839844 403.128906 336.3125 403.410156 C 336.78125 403.695312 337.222656 404.023438 337.625 404.398438 C 338.03125 404.769531 338.394531 405.179688 338.714844 405.628906 C 338.945312 406.058594 339.136719 406.507812 339.285156 406.972656 C 339.4375 407.4375 339.546875 407.914062 339.613281 408.398438 C 339.679688 408.882812 339.703125 409.367188 339.683594 409.855469 C 339.667969 410.34375 339.605469 410.828125 339.503906 411.304688 C 339.398438 411.78125 339.253906 412.246094 339.070312 412.699219 C 338.882812 413.152344 338.660156 413.585938 338.398438 414 C 338.136719 414.410156 337.84375 414.796875 337.511719 415.160156 C 337.183594 415.519531 336.824219 415.851562 336.4375 416.148438 C 335.941406 416.507812 335.414062 416.816406 334.855469 417.070312 C 334.296875 417.324219 333.71875 417.519531 333.117188 417.65625 C 332.519531 417.792969 331.914062 417.871094 331.300781 417.882812 C 330.6875 417.898438 330.078125 417.851562 329.472656 417.742188 C 328.871094 417.632812 328.28125 417.46875 327.714844 417.238281 C 327.144531 417.011719 326.601562 416.730469 326.085938 416.394531 C 325.574219 416.058594 325.101562 415.671875 324.664062 415.242188 C 324.230469 414.808594 323.839844 414.335938 323.5 413.824219 Z M 323.5 413.824219 " fill-opacity="1" fill-rule="nonzero"/><path fill="#f7ebe8" d="M 610.101562 532.734375 C 609.675781 532.96875 609.230469 533.164062 608.769531 533.316406 C 608.308594 533.472656 607.835938 533.585938 607.355469 533.65625 C 606.875 533.726562 606.390625 533.75 605.902344 533.734375 C 605.414062 533.71875 604.933594 533.65625 604.457031 533.554688 C 603.984375 533.449219 603.519531 533.304688 603.070312 533.117188 C 602.621094 532.929688 602.191406 532.703125 601.785156 532.4375 C 601.375 532.175781 600.992188 531.875 600.636719 531.542969 C 600.28125 531.210938 599.960938 530.847656 599.671875 530.457031 C 599.449219 530.023438 599.265625 529.574219 599.121094 529.109375 C 598.976562 528.648438 598.871094 528.175781 598.804688 527.691406 C 598.742188 527.210938 598.71875 526.726562 598.738281 526.242188 C 598.753906 525.753906 598.816406 525.273438 598.917969 524.800781 C 599.015625 524.324219 599.15625 523.859375 599.339844 523.410156 C 599.519531 522.957031 599.734375 522.523438 599.988281 522.109375 C 600.246094 521.695312 600.53125 521.304688 600.851562 520.941406 C 601.175781 520.574219 601.523438 520.242188 601.902344 519.9375 C 602.675781 519.59375 603.484375 519.386719 604.328125 519.3125 C 605.171875 519.238281 606.003906 519.296875 606.828125 519.496094 C 607.648438 519.691406 608.417969 520.015625 609.136719 520.464844 C 609.851562 520.914062 610.476562 521.46875 611.011719 522.121094 C 611.308594 522.511719 611.566406 522.921875 611.785156 523.359375 C 612.007812 523.792969 612.183594 524.246094 612.320312 524.714844 C 612.457031 525.183594 612.546875 525.660156 612.597656 526.144531 C 612.644531 526.632812 612.648438 527.117188 612.605469 527.601562 C 612.566406 528.089844 612.480469 528.566406 612.347656 529.039062 C 612.21875 529.507812 612.046875 529.960938 611.832031 530.402344 C 611.617188 530.839844 611.367188 531.253906 611.074219 531.648438 C 610.785156 532.039062 610.460938 532.402344 610.101562 532.734375 Z M 610.101562 532.734375 " fill-opacity="1" fill-rule="nonzero"/><g clip-path="url(#029abb1c7e)"><path fill="#f7ebe8" d="M 358.894531 778.46875 C 358.558594 778.738281 358.199219 778.972656 357.820312 779.175781 C 357.445312 779.378906 357.050781 779.546875 356.644531 779.679688 C 356.234375 779.816406 355.816406 779.910156 355.394531 779.96875 C 354.96875 780.03125 354.539062 780.050781 354.113281 780.035156 C 353.683594 780.019531 353.257812 779.964844 352.839844 779.871094 C 352.421875 779.78125 352.011719 779.652344 351.617188 779.488281 C 351.21875 779.320312 350.839844 779.125 350.480469 778.890625 C 350.117188 778.660156 349.78125 778.398438 349.464844 778.105469 C 348.867188 777.488281 348.378906 776.796875 347.996094 776.027344 C 347.613281 775.257812 347.359375 774.449219 347.226562 773.601562 C 347.097656 772.753906 347.097656 771.90625 347.230469 771.058594 C 347.363281 770.210938 347.625 769.402344 348.007812 768.632812 C 348.421875 768.269531 348.863281 767.949219 349.335938 767.667969 C 349.8125 767.390625 350.304688 767.15625 350.824219 766.972656 C 351.34375 766.789062 351.871094 766.652344 352.417969 766.566406 C 352.960938 766.484375 353.507812 766.449219 354.054688 766.46875 C 354.605469 766.488281 355.148438 766.558594 355.683594 766.679688 C 356.222656 766.800781 356.742188 766.972656 357.246094 767.191406 C 357.75 767.414062 358.226562 767.679688 358.679688 767.992188 C 359.132812 768.300781 359.554688 768.652344 359.941406 769.042969 C 360.398438 769.773438 360.71875 770.558594 360.910156 771.398438 C 361.101562 772.238281 361.148438 773.082031 361.054688 773.9375 C 360.960938 774.792969 360.726562 775.609375 360.355469 776.386719 C 359.984375 777.164062 359.5 777.859375 358.894531 778.46875 Z M 358.894531 778.46875 " fill-opacity="1" fill-rule="nonzero"/></g><path fill="#f7ebe8" d="M 570.382812 242.046875 C 570.097656 242.296875 569.792969 242.519531 569.464844 242.707031 C 569.136719 242.894531 568.789062 243.050781 568.429688 243.167969 C 568.070312 243.285156 567.703125 243.367188 567.324219 243.410156 C 566.949219 243.453125 566.570312 243.457031 566.195312 243.421875 C 565.816406 243.390625 565.445312 243.316406 565.082031 243.207031 C 564.71875 243.097656 564.371094 242.953125 564.039062 242.769531 C 563.707031 242.589844 563.394531 242.375 563.105469 242.132812 C 562.816406 241.886719 562.554688 241.617188 562.320312 241.316406 C 561.808594 240.613281 561.425781 239.84375 561.171875 239.011719 C 560.914062 238.179688 560.800781 237.328125 560.832031 236.457031 C 560.859375 235.589844 561.03125 234.746094 561.339844 233.933594 C 561.648438 233.117188 562.082031 232.378906 562.640625 231.707031 C 562.917969 231.46875 563.21875 231.257812 563.542969 231.082031 C 563.863281 230.902344 564.203125 230.761719 564.554688 230.65625 C 564.910156 230.550781 565.269531 230.480469 565.636719 230.453125 C 566.003906 230.421875 566.371094 230.429688 566.734375 230.476562 C 567.101562 230.527344 567.457031 230.609375 567.804688 230.734375 C 568.152344 230.855469 568.480469 231.011719 568.796875 231.203125 C 569.109375 231.398438 569.402344 231.621094 569.667969 231.875 C 569.9375 232.128906 570.175781 232.40625 570.382812 232.710938 C 570.6875 233.019531 570.957031 233.351562 571.195312 233.714844 C 571.433594 234.074219 571.636719 234.457031 571.800781 234.855469 C 571.964844 235.253906 572.085938 235.667969 572.171875 236.09375 C 572.253906 236.515625 572.296875 236.945312 572.296875 237.378906 C 572.296875 237.8125 572.253906 238.238281 572.171875 238.664062 C 572.085938 239.089844 571.964844 239.5 571.800781 239.902344 C 571.636719 240.300781 571.433594 240.679688 571.195312 241.042969 C 570.957031 241.402344 570.6875 241.738281 570.382812 242.046875 Z M 570.382812 242.046875 " fill-opacity="1" fill-rule="nonzero"/><path fill="#f7ebe8" d="M 637.84375 320.695312 C 633.925781 316.734375 633.742188 311.90625 636.566406 309.355469 C 638.523438 307.578125 641.578125 308.078125 644.265625 310.628906 C 646.953125 313.179688 647.726562 317.371094 644.675781 319.28125 C 642.484375 320.175781 640.207031 320.648438 637.84375 320.695312 Z M 637.84375 320.695312 " fill-opacity="1" fill-rule="nonzero"/><path fill="#f7ebe8" d="M 407.449219 312.769531 C 405.476562 312.726562 403.59375 312.285156 401.800781 311.449219 C 398.703125 309.21875 399.617188 304.074219 403.304688 301.476562 C 403.527344 301.261719 403.769531 301.070312 404.027344 300.902344 C 404.289062 300.734375 404.5625 300.59375 404.847656 300.476562 C 405.136719 300.363281 405.429688 300.273438 405.734375 300.214844 C 406.039062 300.15625 406.34375 300.128906 406.652344 300.128906 C 406.960938 300.128906 407.269531 300.15625 407.570312 300.214844 C 407.875 300.273438 408.171875 300.363281 408.457031 300.476562 C 408.746094 300.59375 409.019531 300.734375 409.277344 300.902344 C 409.535156 301.070312 409.777344 301.261719 410 301.476562 C 412.597656 304.253906 412.003906 309.082031 407.449219 312.769531 Z M 407.449219 312.769531 " fill-opacity="1" fill-rule="nonzero"/><path fill="#f7ebe8" d="M 716.871094 644.761719 C 716.511719 645.082031 716.117188 645.355469 715.695312 645.582031 C 715.269531 645.808594 714.824219 645.988281 714.359375 646.113281 C 713.894531 646.238281 713.421875 646.308594 712.941406 646.320312 C 712.460938 646.335938 711.984375 646.296875 711.511719 646.203125 C 711.039062 646.109375 710.585938 645.960938 710.144531 645.761719 C 709.707031 645.5625 709.300781 645.3125 708.917969 645.019531 C 708.539062 644.722656 708.195312 644.390625 707.894531 644.015625 C 707.589844 643.640625 707.332031 643.238281 707.125 642.804688 C 706.957031 642.539062 706.816406 642.257812 706.707031 641.964844 C 706.597656 641.667969 706.515625 641.367188 706.46875 641.054688 C 706.421875 640.746094 706.40625 640.433594 706.425781 640.117188 C 706.441406 639.804688 706.492188 639.496094 706.574219 639.191406 C 706.652344 638.886719 706.765625 638.597656 706.90625 638.316406 C 707.050781 638.035156 707.21875 637.773438 707.414062 637.527344 C 707.609375 637.28125 707.832031 637.058594 708.074219 636.859375 C 708.316406 636.65625 708.574219 636.484375 708.855469 636.339844 C 709.222656 636.117188 709.613281 635.9375 710.019531 635.800781 C 710.425781 635.664062 710.84375 635.570312 711.269531 635.523438 C 711.699219 635.472656 712.125 635.46875 712.554688 635.511719 C 712.980469 635.554688 713.398438 635.640625 713.808594 635.773438 C 714.21875 635.90625 714.609375 636.078125 714.980469 636.292969 C 715.355469 636.507812 715.699219 636.757812 716.019531 637.046875 C 716.339844 637.335938 716.625 637.652344 716.875 638 C 717.125 638.351562 717.335938 638.722656 717.507812 639.117188 C 717.71875 641.046875 717.507812 642.929688 716.871094 644.761719 Z M 716.871094 644.761719 " fill-opacity="1" fill-rule="nonzero"/><path fill="#f7ebe8" d="M 523.875 379.214844 C 521.34375 378.558594 518.976562 377.523438 516.769531 376.117188 C 514.628906 374.34375 515.8125 369.46875 518.089844 368.238281 C 518.445312 368.117188 518.808594 368.027344 519.179688 367.976562 C 519.550781 367.921875 519.921875 367.902344 520.296875 367.917969 C 520.671875 367.929688 521.039062 367.980469 521.40625 368.066406 C 521.769531 368.148438 522.125 368.269531 522.46875 368.417969 C 522.808594 368.570312 523.136719 368.75 523.445312 368.960938 C 523.753906 369.171875 524.042969 369.410156 524.308594 369.675781 C 524.570312 369.941406 524.808594 370.230469 525.019531 370.539062 C 525.230469 370.847656 525.410156 371.175781 525.5625 371.519531 C 525.773438 371.820312 525.949219 372.144531 526.09375 372.484375 C 526.238281 372.824219 526.347656 373.175781 526.417969 373.539062 C 526.492188 373.902344 526.527344 374.269531 526.523438 374.636719 C 526.519531 375.007812 526.476562 375.371094 526.398438 375.734375 C 526.320312 376.09375 526.203125 376.445312 526.050781 376.78125 C 525.902344 377.121094 525.71875 377.4375 525.5 377.738281 C 525.28125 378.035156 525.039062 378.3125 524.765625 378.558594 C 524.492188 378.808594 524.195312 379.027344 523.875 379.214844 Z M 523.875 379.214844 " fill-opacity="1" fill-rule="nonzero"/><path fill="#f7ebe8" d="M 234.359375 611.152344 C 234.480469 613.695312 234.234375 616.199219 233.632812 618.667969 C 232.855469 620.671875 229.074219 620.625 227.164062 619.03125 C 225.25 617.4375 224.429688 612.339844 226.753906 611.472656 C 229.269531 610.9375 231.804688 610.832031 234.359375 611.152344 Z M 234.359375 611.152344 " fill-opacity="1" fill-rule="nonzero"/><path fill="#f7ebe8" d="M 386.90625 313.589844 C 384.3125 311.039062 382.351562 309.992188 382.078125 308.671875 C 382.089844 307.796875 382.277344 306.964844 382.640625 306.171875 C 383.007812 305.378906 383.515625 304.695312 384.175781 304.117188 C 384.675781 303.664062 387.679688 304.617188 387.726562 305.074219 C 387.691406 307.9375 387.417969 310.773438 386.90625 313.589844 Z M 386.90625 313.589844 " fill-opacity="1" fill-rule="nonzero"/><path fill="#f7ebe8" d="M 667.585938 398.113281 C 665.21875 397.75 663.578125 398.113281 663.03125 397.292969 C 660.753906 395.289062 661.484375 392.742188 663.441406 391.191406 C 664.59375 390.71875 665.75 390.71875 666.902344 391.191406 C 667.300781 393.484375 667.527344 395.789062 667.585938 398.113281 Z M 667.585938 398.113281 " fill-opacity="1" fill-rule="nonzero"/></svg>