<svg xmlns="http://www.w3.org/2000/svg" xmlns:xlink="http://www.w3.org/1999/xlink" width="2070" zoomAndPan="magnify" viewBox="0 0 1552.5 510.750002" height="681" preserveAspectRatio="xMidYMid meet" version="1.0"><defs><g/><clipPath id="1884acec06"><path d="M 81.71875 3.542969 L 367 3.542969 L 367 507.457031 L 81.71875 507.457031 Z M 81.71875 3.542969 " clip-rule="nonzero"/></clipPath><clipPath id="5ede67764b"><path d="M 81.71875 320 L 280 320 L 280 507.457031 L 81.71875 507.457031 Z M 81.71875 320 " clip-rule="nonzero"/></clipPath><clipPath id="2466d74f80"><path d="M 81.71875 3.542969 L 306 3.542969 L 306 234 L 81.71875 234 Z M 81.71875 3.542969 " clip-rule="nonzero"/></clipPath><clipPath id="a81e9c3302"><path d="M 237 165 L 610.382812 165 L 610.382812 507.457031 L 237 507.457031 Z M 237 165 " clip-rule="nonzero"/></clipPath><clipPath id="1431385e5b"><path d="M 218 170 L 605 170 L 605 507.457031 L 218 507.457031 Z M 218 170 " clip-rule="nonzero"/></clipPath><clipPath id="ca106757db"><path d="M 346 3.542969 L 610.382812 3.542969 L 610.382812 154 L 346 154 Z M 346 3.542969 " clip-rule="nonzero"/></clipPath></defs><g fill="#ffa987" fill-opacity="1"><g transform="translate(488.438045, 359.577334)"><g><path d="M 13.21875 0 L 13.21875 -298.703125 L 132.828125 -298.703125 L 132.828125 -240.984375 L 74.0625 -240.984375 L 74.0625 -182.90625 L 130.40625 -182.90625 L 130.40625 -126.578125 L 74.0625 -126.578125 L 74.0625 -58.078125 L 136.65625 -58.078125 L 136.65625 0 Z M 13.21875 0 "/></g></g></g><g fill="#ffa987" fill-opacity="1"><g transform="translate(618.489421, 359.577334)"><g><path d="M 49.375 0 L 49.375 -98.40625 L 1.734375 -298.703125 L 60.859375 -298.703125 L 77.546875 -197.515625 L 94.234375 -298.703125 L 153.34375 -298.703125 L 105.71875 -98.40625 L 105.71875 0 Z M 49.375 0 "/></g></g></g><g fill="#ffa987" fill-opacity="1"><g transform="translate(760.363653, 359.577334)"><g><path d="M 84.15625 2.78125 C 57.03125 2.78125 37.4375 -3.941406 25.375 -17.390625 C 13.320312 -30.835938 7.296875 -52.507812 7.296875 -82.40625 L 7.296875 -111.625 L 66.0625 -111.625 L 66.0625 -74.421875 C 66.0625 -59.578125 70.816406 -52.15625 80.328125 -52.15625 C 85.660156 -52.15625 89.367188 -53.71875 91.453125 -56.84375 C 93.535156 -59.976562 94.578125 -65.253906 94.578125 -72.671875 C 94.578125 -82.410156 93.414062 -90.46875 91.09375 -96.84375 C 88.78125 -103.21875 85.828125 -108.546875 82.234375 -112.828125 C 78.640625 -117.117188 72.207031 -123.785156 62.9375 -132.828125 L 37.203125 -158.5625 C 17.265625 -178.039062 7.296875 -199.601562 7.296875 -223.25 C 7.296875 -248.75 13.148438 -268.160156 24.859375 -281.484375 C 36.566406 -294.816406 53.664062 -301.484375 76.15625 -301.484375 C 103.039062 -301.484375 122.394531 -294.351562 134.21875 -280.09375 C 146.039062 -265.84375 151.953125 -243.53125 151.953125 -213.15625 L 91.109375 -213.15625 L 90.765625 -233.671875 C 90.765625 -237.617188 89.660156 -240.75 87.453125 -243.0625 C 85.253906 -245.382812 82.179688 -246.546875 78.234375 -246.546875 C 73.597656 -246.546875 70.117188 -245.269531 67.796875 -242.71875 C 65.484375 -240.164062 64.328125 -236.6875 64.328125 -232.28125 C 64.328125 -222.550781 69.890625 -212.46875 81.015625 -202.03125 L 115.796875 -168.65625 C 123.910156 -160.769531 130.632812 -153.289062 135.96875 -146.21875 C 141.300781 -139.144531 145.585938 -130.796875 148.828125 -121.171875 C 152.078125 -111.554688 153.703125 -100.144531 153.703125 -86.9375 C 153.703125 -57.488281 148.3125 -35.171875 137.53125 -19.984375 C 126.75 -4.804688 108.957031 2.78125 84.15625 2.78125 Z M 84.15625 2.78125 "/></g></g></g><g fill="#ffa987" fill-opacity="1"><g transform="translate(907.453892, 359.577334)"><g><path d="M 38.953125 0 L 38.953125 -241.328125 L 3.484375 -241.328125 L 3.484375 -298.703125 L 134.21875 -298.703125 L 134.21875 -241.328125 L 98.75 -241.328125 L 98.75 0 Z M 38.953125 0 "/></g></g></g><g fill="#ffa987" fill-opacity="1"><g transform="translate(1031.941645, 359.577334)"><g><path d="M 84.5 2.78125 C 60.382812 2.78125 42.066406 -4.578125 29.546875 -19.296875 C 17.035156 -34.015625 10.78125 -54.707031 10.78125 -81.375 L 10.78125 -223.59375 C 10.78125 -249.320312 17.035156 -268.734375 29.546875 -281.828125 C 42.066406 -294.929688 60.382812 -301.484375 84.5 -301.484375 C 108.601562 -301.484375 126.914062 -294.929688 139.4375 -281.828125 C 151.957031 -268.734375 158.21875 -249.320312 158.21875 -223.59375 L 158.21875 -81.375 C 158.21875 -54.476562 151.957031 -33.726562 139.4375 -19.125 C 126.914062 -4.519531 108.601562 2.78125 84.5 2.78125 Z M 84.5 -52.15625 C 89.832031 -52.15625 93.425781 -54.472656 95.28125 -59.109375 C 97.132812 -63.742188 98.0625 -70.238281 98.0625 -78.59375 L 98.0625 -224.640625 C 98.0625 -231.128906 97.191406 -236.398438 95.453125 -240.453125 C 93.710938 -244.515625 90.175781 -246.546875 84.84375 -246.546875 C 74.875 -246.546875 69.890625 -239.007812 69.890625 -223.9375 L 69.890625 -78.234375 C 69.890625 -69.660156 70.929688 -63.171875 73.015625 -58.765625 C 75.109375 -54.359375 78.9375 -52.15625 84.5 -52.15625 Z M 84.5 -52.15625 "/></g></g></g><g fill="#ffa987" fill-opacity="1"><g transform="translate(1187.725118, 359.577334)"><g><path d="M 13.21875 0 L 13.21875 -298.703125 L 74.765625 -298.703125 L 102.234375 -155.78125 L 102.234375 -298.703125 L 159.953125 -298.703125 L 159.953125 0 L 101.53125 0 L 71.640625 -149.53125 L 71.640625 0 Z M 13.21875 0 "/></g></g></g><g fill="#ffa987" fill-opacity="1"><g transform="translate(1347.681416, 359.577334)"><g><path d="M 13.21875 0 L 13.21875 -298.703125 L 132.828125 -298.703125 L 132.828125 -240.984375 L 74.0625 -240.984375 L 74.0625 -182.90625 L 130.40625 -182.90625 L 130.40625 -126.578125 L 74.0625 -126.578125 L 74.0625 -58.078125 L 136.65625 -58.078125 L 136.65625 0 Z M 13.21875 0 "/></g></g></g><g fill="#f7ebe8" fill-opacity="1"><g transform="translate(710.232644, 441.326107)"><g><path d="M 17.03125 0.25 C 14.207031 0.25 11.660156 -0.375 9.390625 -1.625 C 7.117188 -2.875 5.335938 -4.601562 4.046875 -6.8125 C 2.765625 -9.03125 2.125 -11.507812 2.125 -14.25 C 2.125 -17 2.765625 -19.476562 4.046875 -21.6875 C 5.335938 -23.90625 7.125 -25.640625 9.40625 -26.890625 C 11.6875 -28.140625 14.238281 -28.765625 17.0625 -28.765625 C 19.1875 -28.765625 21.144531 -28.410156 22.9375 -27.703125 C 24.726562 -26.992188 26.25 -25.960938 27.5 -24.609375 L 25.578125 -22.6875 C 23.347656 -24.9375 20.539062 -26.0625 17.15625 -26.0625 C 14.894531 -26.0625 12.84375 -25.546875 11 -24.515625 C 9.15625 -23.484375 7.707031 -22.070312 6.65625 -20.28125 C 5.613281 -18.488281 5.09375 -16.476562 5.09375 -14.25 C 5.09375 -12.03125 5.613281 -10.023438 6.65625 -8.234375 C 7.707031 -6.441406 9.15625 -5.023438 11 -3.984375 C 12.84375 -2.953125 14.894531 -2.4375 17.15625 -2.4375 C 20.570312 -2.4375 23.378906 -3.578125 25.578125 -5.859375 L 27.5 -3.953125 C 26.25 -2.597656 24.71875 -1.554688 22.90625 -0.828125 C 21.101562 -0.109375 19.144531 0.25 17.03125 0.25 Z M 17.03125 0.25 "/></g></g></g><g fill="#f7ebe8" fill-opacity="1"><g transform="translate(772.101234, 441.326107)"><g><path d="M 17.109375 0.25 C 14.285156 0.25 11.722656 -0.378906 9.421875 -1.640625 C 7.128906 -2.910156 5.335938 -4.644531 4.046875 -6.84375 C 2.765625 -9.039062 2.125 -11.507812 2.125 -14.25 C 2.125 -17 2.765625 -19.472656 4.046875 -21.671875 C 5.335938 -23.867188 7.128906 -25.597656 9.421875 -26.859375 C 11.722656 -28.128906 14.285156 -28.765625 17.109375 -28.765625 C 19.929688 -28.765625 22.472656 -28.140625 24.734375 -26.890625 C 27.003906 -25.640625 28.789062 -23.90625 30.09375 -21.6875 C 31.40625 -19.476562 32.0625 -17 32.0625 -14.25 C 32.0625 -11.507812 31.40625 -9.03125 30.09375 -6.8125 C 28.789062 -4.601562 27.003906 -2.875 24.734375 -1.625 C 22.472656 -0.375 19.929688 0.25 17.109375 0.25 Z M 17.109375 -2.4375 C 19.359375 -2.4375 21.394531 -2.945312 23.21875 -3.96875 C 25.039062 -4.988281 26.46875 -6.398438 27.5 -8.203125 C 28.53125 -10.015625 29.046875 -12.03125 29.046875 -14.25 C 29.046875 -16.476562 28.53125 -18.492188 27.5 -20.296875 C 26.46875 -22.109375 25.039062 -23.519531 23.21875 -24.53125 C 21.394531 -25.550781 19.359375 -26.0625 17.109375 -26.0625 C 14.859375 -26.0625 12.816406 -25.550781 10.984375 -24.53125 C 9.148438 -23.519531 7.707031 -22.109375 6.65625 -20.296875 C 5.613281 -18.492188 5.09375 -16.476562 5.09375 -14.25 C 5.09375 -12.03125 5.613281 -10.015625 6.65625 -8.203125 C 7.707031 -6.398438 9.148438 -4.988281 10.984375 -3.96875 C 12.816406 -2.945312 14.859375 -2.4375 17.109375 -2.4375 Z M 17.109375 -2.4375 "/></g></g></g><g fill="#f7ebe8" fill-opacity="1"><g transform="translate(838.856918, 441.326107)"><g><path d="M 28.46875 -28.515625 L 28.46875 0 L 25.984375 0 L 7.65625 -23.140625 L 7.65625 0 L 4.640625 0 L 4.640625 -28.515625 L 7.125 -28.515625 L 25.5 -5.375 L 25.5 -28.515625 Z M 28.46875 -28.515625 "/></g></g></g><g fill="#f7ebe8" fill-opacity="1"><g transform="translate(904.553737, 441.326107)"><g><path d="M 7.65625 -25.90625 L 7.65625 -14.703125 L 22.40625 -14.703125 L 22.40625 -12.09375 L 7.65625 -12.09375 L 7.65625 0 L 4.640625 0 L 4.640625 -28.515625 L 24.203125 -28.515625 L 24.203125 -25.90625 Z M 7.65625 -25.90625 "/></g></g></g><g fill="#f7ebe8" fill-opacity="1"><g transform="translate(962.91992, 441.326107)"><g><path d="M 24.8125 -2.609375 L 24.8125 0 L 4.640625 0 L 4.640625 -28.515625 L 24.203125 -28.515625 L 24.203125 -25.90625 L 7.65625 -25.90625 L 7.65625 -15.765625 L 22.40625 -15.765625 L 22.40625 -13.203125 L 7.65625 -13.203125 L 7.65625 -2.609375 Z M 24.8125 -2.609375 "/></g></g></g><g fill="#f7ebe8" fill-opacity="1"><g transform="translate(1022.752226, 441.326107)"><g><path d="M 24.109375 0 L 17.59375 -9.171875 C 16.863281 -9.085938 16.101562 -9.046875 15.3125 -9.046875 L 7.65625 -9.046875 L 7.65625 0 L 4.640625 0 L 4.640625 -28.515625 L 15.3125 -28.515625 C 18.957031 -28.515625 21.8125 -27.644531 23.875 -25.90625 C 25.9375 -24.164062 26.96875 -21.773438 26.96875 -18.734375 C 26.96875 -16.503906 26.398438 -14.625 25.265625 -13.09375 C 24.140625 -11.5625 22.535156 -10.457031 20.453125 -9.78125 L 27.421875 0 Z M 15.234375 -11.609375 C 18.054688 -11.609375 20.210938 -12.234375 21.703125 -13.484375 C 23.203125 -14.734375 23.953125 -16.484375 23.953125 -18.734375 C 23.953125 -21.046875 23.203125 -22.816406 21.703125 -24.046875 C 20.210938 -25.285156 18.054688 -25.90625 15.234375 -25.90625 L 7.65625 -25.90625 L 7.65625 -11.609375 Z M 15.234375 -11.609375 "/></g></g></g><g fill="#f7ebe8" fill-opacity="1"><g transform="translate(1084.783726, 441.326107)"><g><path d="M 24.8125 -2.609375 L 24.8125 0 L 4.640625 0 L 4.640625 -28.515625 L 24.203125 -28.515625 L 24.203125 -25.90625 L 7.65625 -25.90625 L 7.65625 -15.765625 L 22.40625 -15.765625 L 22.40625 -13.203125 L 7.65625 -13.203125 L 7.65625 -2.609375 Z M 24.8125 -2.609375 "/></g></g></g><g fill="#f7ebe8" fill-opacity="1"><g transform="translate(1144.616032, 441.326107)"><g><path d="M 28.46875 -28.515625 L 28.46875 0 L 25.984375 0 L 7.65625 -23.140625 L 7.65625 0 L 4.640625 0 L 4.640625 -28.515625 L 7.125 -28.515625 L 25.5 -5.375 L 25.5 -28.515625 Z M 28.46875 -28.515625 "/></g></g></g><g fill="#f7ebe8" fill-opacity="1"><g transform="translate(1210.312828, 441.326107)"><g><path d="M 17.03125 0.25 C 14.207031 0.25 11.660156 -0.375 9.390625 -1.625 C 7.117188 -2.875 5.335938 -4.601562 4.046875 -6.8125 C 2.765625 -9.03125 2.125 -11.507812 2.125 -14.25 C 2.125 -17 2.765625 -19.476562 4.046875 -21.6875 C 5.335938 -23.90625 7.125 -25.640625 9.40625 -26.890625 C 11.6875 -28.140625 14.238281 -28.765625 17.0625 -28.765625 C 19.1875 -28.765625 21.144531 -28.410156 22.9375 -27.703125 C 24.726562 -26.992188 26.25 -25.960938 27.5 -24.609375 L 25.578125 -22.6875 C 23.347656 -24.9375 20.539062 -26.0625 17.15625 -26.0625 C 14.894531 -26.0625 12.84375 -25.546875 11 -24.515625 C 9.15625 -23.484375 7.707031 -22.070312 6.65625 -20.28125 C 5.613281 -18.488281 5.09375 -16.476562 5.09375 -14.25 C 5.09375 -12.03125 5.613281 -10.023438 6.65625 -8.234375 C 7.707031 -6.441406 9.15625 -5.023438 11 -3.984375 C 12.84375 -2.953125 14.894531 -2.4375 17.15625 -2.4375 C 20.570312 -2.4375 23.378906 -3.578125 25.578125 -5.859375 L 27.5 -3.953125 C 26.25 -2.597656 24.71875 -1.554688 22.90625 -0.828125 C 21.101562 -0.109375 19.144531 0.25 17.03125 0.25 Z M 17.03125 0.25 "/></g></g></g><g fill="#f7ebe8" fill-opacity="1"><g transform="translate(1272.181401, 441.326107)"><g><path d="M 24.8125 -2.609375 L 24.8125 0 L 4.640625 0 L 4.640625 -28.515625 L 24.203125 -28.515625 L 24.203125 -25.90625 L 7.65625 -25.90625 L 7.65625 -15.765625 L 22.40625 -15.765625 L 22.40625 -13.203125 L 7.65625 -13.203125 L 7.65625 -2.609375 Z M 24.8125 -2.609375 "/></g></g></g><path fill="#ffa987" d="M 137.449219 87.300781 C 135.980469 133.101562 137.9375 230.574219 138.753906 302.777344 C 139.570312 374.984375 139.242188 421.929688 142.664062 447.355469 C 146.089844 472.78125 153.261719 476.695312 164.996094 478.648438 C 176.730469 480.605469 193.03125 480.605469 201.835938 469.847656 C 210.636719 459.089844 211.941406 437.574219 214.222656 395.847656 C 216.503906 354.121094 219.765625 292.183594 214.058594 241.984375 C 208.355469 191.78125 193.683594 153.3125 181.296875 123.8125 C 168.910156 94.308594 158.804688 73.773438 151.304688 60.570312 C 143.804688 47.367188 138.917969 41.5 137.449219 87.300781 " fill-opacity="1" fill-rule="evenodd"/><path fill="#ffa987" d="M 93.113281 6.945312 C 103.058594 7.921875 137.613281 8.578125 177.710938 7.925781 C 217.808594 7.273438 263.449219 5.316406 283.984375 4.828125 C 304.523438 4.339844 299.960938 5.316406 291.648438 6.621094 C 283.332031 7.921875 271.273438 9.554688 262.144531 12.816406 C 253.015625 16.074219 246.820312 20.964844 242.910156 27.972656 C 239 34.980469 237.367188 44.109375 236.390625 93.660156 C 235.414062 143.207031 235.085938 233.183594 235.25 303.757812 C 235.414062 374.332031 236.0625 425.515625 237.859375 453.710938 C 239.648438 481.910156 242.582031 487.125 253.992188 492.023438 C 265.402344 496.917969 285.289062 501.492188 293.113281 503.78125 C 300.9375 506.070312 296.699219 506.070312 285.125 504.921875 C 273.554688 503.777344 254.644531 501.480469 236.0625 501.480469 C 217.480469 501.480469 199.226562 503.777344 194.011719 502.796875 C 188.792969 501.820312 196.617188 497.570312 200.039062 444.265625 C 203.464844 390.957031 202.484375 288.601562 200.691406 216.394531 C 198.902344 144.1875 196.292969 102.136719 187.816406 76.058594 C 179.339844 49.976562 164.996094 39.871094 151.46875 30.417969 C 137.9375 20.964844 125.222656 12.160156 111.53125 8.414062 C 97.839844 4.667969 83.171875 5.96875 93.113281 6.945312 " fill-opacity="1" fill-rule="evenodd"/><g clip-path="url(#1884acec06)"><path stroke-linecap="butt" transform="matrix(0.0308483, 0, 0, -0.0308473, 81.459298, 507.141071)" fill="none" stroke-linejoin="miter" d="M 377.783608 16215.496953 C 700.177767 16183.83895 1820.326519 16162.564771 3120.159997 16183.712318 C 4420.120103 16204.859864 5899.511678 16268.302502 6565.320195 16284.131504 C 7231.128712 16299.960505 7083.227543 16268.302502 6813.763769 16226.00741 C 6544.173367 16183.83895 6153.146988 16130.906768 5857.218022 16025.169038 C 5561.415683 15919.557939 5360.58413 15761.014659 5233.829789 15533.836829 C 5106.94882 15306.658998 5054.145063 15010.719984 5022.361507 13404.392904 C 4990.704579 11798.065823 4980.194479 8881.350676 4985.386215 6593.363472 C 4990.704579 4305.376267 5011.851407 2646.243637 5069.973528 1732.087138 C 5128.095648 817.930639 5223.193061 648.876902 5593.072612 490.080358 C 5962.952162 331.410446 6607.613851 183.124359 6861.249161 108.918 C 7114.884471 34.711641 6977.493402 34.711641 6602.295487 71.941452 C 6227.2242 109.044632 5614.21944 183.504255 5011.851407 183.504255 C 4409.483375 183.504255 3817.75207 109.044632 3648.577445 140.829267 C 3479.529448 172.48727 3733.164757 310.2629 3844.090634 2038.409977 C 3955.016511 3766.430421 3923.359583 7084.695681 3865.237463 9425.615067 C 3807.115342 11766.40782 3722.52803 13129.601436 3447.745891 13974.996753 C 3173.090381 14820.518701 2707.98679 15148.115718 2269.475019 15454.565189 C 1830.836619 15761.014659 1418.79004 16046.443216 974.833277 16167.883316 C 531.003142 16289.323416 55.516078 16247.154956 377.783608 16215.496953 Z M 377.783608 16215.496953 " stroke="#ffffff" stroke-width="67.402" stroke-opacity="1" stroke-miterlimit="22.926001"/></g><g clip-path="url(#5ede67764b)"><path stroke-linecap="butt" transform="matrix(0.0244498, 0, 0, -0.024449, 81.459298, 507.141071)" fill="none" stroke-linejoin="miter" d="M 2433.945117 2664.529698 C 2413.654811 2398.509937 2381.86134 1761.979771 2252.610496 1330.276831 C 2123.359652 898.733664 1896.651435 672.017723 1463.36554 491.795327 C 1030.079644 311.413159 390.056305 177.684306 569.95303 110.739994 C 750.009521 43.795682 1749.986076 43.795682 2737.021571 71.915488 C 3723.897299 100.195066 4697.6722 156.594451 5097.726729 270.192079 C 5497.781257 383.789706 5323.795881 554.585577 4990.204086 1299.920222 C 4656.61229 2045.414639 4163.414076 3365.288059 3763.359547 4118.611285 C 3363.305018 4871.934512 3056.713708 5058.707545 2857.005976 4731.335479 C 2657.298244 4404.123185 2564.47409 3562.925563 2513.668443 3194.492188 C 2462.862796 2826.058814 2454.235422 2930.549459 2433.945117 2664.529698 Z M 2433.945117 2664.529698 " stroke="#ffffff" stroke-width="85.039001" stroke-opacity="1" stroke-miterlimit="22.926001"/></g><g clip-path="url(#2466d74f80)"><path stroke-linecap="butt" transform="matrix(0.0307089, 0, 0, -0.0307079, 81.459298, 507.141071)" fill="none" stroke-linejoin="miter" d="M 115.298748 16243.803333 C 314.370492 16198.899362 891.487747 16120.540025 1268.261233 15945.24917 C 1645.161922 15770.212729 1821.718843 15498.244771 1947.140402 14921.871141 C 2072.689163 14345.370304 2146.97536 13464.463796 2343.375854 12620.447236 C 2539.649146 11776.557882 2858.163937 10969.81289 3049.22193 11107.832177 C 3240.279924 11245.851464 3304.008322 12328.507823 3590.595312 13278.614784 C 3877.182303 14228.721746 4386.755087 15046.024895 4736.434464 15530.936897 C 5086.113841 16015.848898 5276.027012 16168.242543 4888.695727 16232.736348 C 4501.491645 16296.97574 3537.043105 16273.188084 2671.812432 16271.661603 C 1806.581758 16270.135123 1040.314546 16290.742611 567.757658 16295.322053 C 95.20077 16300.028701 -83.772996 16288.707303 115.298748 16243.803333 Z M 115.298748 16243.803333 " stroke="#ffffff" stroke-width="67.704002" stroke-opacity="1" stroke-miterlimit="22.926001"/></g><path fill="#ffa987" d="M 244.390625 283.886719 C 271.648438 253.726562 326.0625 202.867188 367.617188 161.628906 C 409.167969 120.394531 437.855469 88.773438 456.109375 72.636719 C 474.367188 56.496094 482.191406 55.847656 472.25 69.539062 C 462.304688 83.230469 434.59375 111.265625 394.496094 150.871094 C 354.398438 190.480469 301.914062 241.660156 270.253906 273.9375 C 238.59375 306.21875 227.761719 319.597656 222.394531 321.554688 C 217.027344 323.511719 217.132812 314.046875 244.390625 283.886719 " fill-opacity="1" fill-rule="evenodd"/><g clip-path="url(#a81e9c3302)"><path stroke-linecap="butt" transform="matrix(0.0324253, 0, 0, -0.0324242, 81.459298, 507.141071)" fill="none" stroke-linejoin="miter" d="M 7466.97043 8450.128447 C 7713.329876 8440.008693 8301.701285 8384.350049 8776.952147 8351.581323 C 9252.203008 8318.692124 9614.092384 8308.57237 10428.46395 7237.806067 C 11242.835515 6167.039764 12509.5688 4035.62691 13379.356182 2718.613271 C 14249.023095 1401.479158 14721.503166 898.864732 15234.340407 586.959471 C 15747.05718 275.05421 16300.010654 154.09906 16294.950949 93.501012 C 16289.891244 33.023438 15726.938829 33.023438 15058.334955 33.023438 C 14389.731081 33.023438 13615.596217 33.023438 13354.178126 138.798957 C 13092.760035 244.574476 13344.058716 456.005041 13072.762153 1295.703639 C 12801.224652 2135.402236 12006.971438 3603.368866 11247.89522 4744.491551 C 10488.819002 5885.614236 9764.919781 6700.01345 9201.846897 7187.568719 C 8638.894482 7675.244461 8236.768404 7836.076259 7821.511187 7989.920607 C 7406.253971 8143.764956 6977.986084 8290.742328 6907.632091 8356.038833 C 6837.278097 8421.455812 7124.837998 8405.191922 7220.610985 8414.950256 C 7316.504442 8424.588116 7220.610985 8460.127727 7466.97043 8450.128447 Z M 7466.97043 8450.128447 " stroke="#ffffff" stroke-width="64.124001" stroke-opacity="1" stroke-miterlimit="22.926001"/></g><path fill="#ffa987" d="M 305.308594 279.925781 C 327.015625 310.113281 370.375 367.488281 398.898438 407.421875 C 427.421875 447.355469 441.113281 469.847656 459.015625 483.082031 C 476.914062 496.320312 499.019531 500.296875 514.984375 502.570312 C 530.945312 504.847656 540.765625 505.417969 536.394531 489.25 C 532.027344 473.078125 513.464844 440.167969 489.839844 403.015625 C 466.21875 365.859375 437.53125 324.457031 416.992188 298.378906 C 396.453125 272.300781 384.066406 261.542969 369.855469 253.226562 C 355.644531 244.910156 339.609375 239.035156 324.910156 237.859375 C 310.210938 236.683594 296.847656 240.207031 290.195312 243.46875 C 283.542969 246.734375 283.601562 249.738281 305.308594 279.925781 " fill-opacity="1" fill-rule="evenodd"/><g clip-path="url(#1431385e5b)"><path stroke-linecap="butt" transform="matrix(0.0281784, 0, 0, -0.0281774, 81.459298, 507.141071)" fill="none" stroke-linejoin="miter" d="M 7944.007299 8063.734542 C 8714.350642 6992.39825 10253.096568 4956.193868 11265.34186 3538.974546 C 12277.587153 2121.755224 12763.470439 1323.520962 13398.792293 853.840921 C 14033.975521 384.022249 14818.458692 242.896428 15385.022169 162.213493 C 15951.44702 81.391927 16299.952179 61.151878 16144.829954 634.943405 C 15989.846356 1208.873561 15331.096749 2376.835294 14492.688158 3695.349719 C 13654.418192 5014.002775 12636.350618 6483.347154 11907.456377 7408.84419 C 11178.562135 8334.341225 10738.979853 8716.129547 10234.659342 9011.273823 C 9730.33883 9306.418099 9161.280089 9514.91833 8639.631358 9556.646102 C 8117.982626 9598.373875 7643.743904 9473.329188 7407.664237 9357.572744 C 7171.584569 9241.677669 7173.663955 9135.070835 7944.007299 8063.734542 Z M 7944.007299 8063.734542 " stroke="#ffffff" stroke-width="73.787003" stroke-opacity="1" stroke-miterlimit="22.926001"/></g><path fill="#e54b4b" d="M 454.480469 449.800781 C 451.871094 461.371094 448.9375 477.347656 439.972656 487.457031 C 431.007812 497.570312 416.015625 501.820312 428.726562 503.945312 C 441.441406 506.070312 481.867188 506.070312 513.351562 506.058594 C 544.835938 506.046875 567.390625 506.019531 567.285156 497.746094 C 567.175781 489.472656 544.417969 472.945312 523.035156 459.261719 C 501.652344 445.578125 481.652344 434.730469 470.511719 432.894531 C 459.367188 431.054688 457.089844 438.226562 454.480469 449.800781 " fill-opacity="1" fill-rule="evenodd"/><path fill="#ffa987" d="M 454.003906 73.332031 C 457.683594 63.179688 465.046875 48.429688 462.535156 36.652344 C 460.023438 24.878906 447.636719 16.078125 433.78125 11.511719 C 419.925781 6.949219 404.601562 6.621094 421.230469 7.4375 C 437.855469 8.253906 486.429688 10.210938 519.191406 10.210938 C 551.953125 10.210938 568.90625 8.253906 570.210938 8.742188 C 571.515625 9.230469 557.171875 12.164062 542.335938 18.847656 C 527.503906 25.527344 512.183594 35.960938 496.765625 49.210938 C 481.347656 62.460938 465.832031 78.523438 458.078125 83.78125 C 450.320312 89.039062 450.320312 83.488281 454.003906 73.332031 " fill-opacity="1" fill-rule="evenodd"/><g clip-path="url(#ca106757db)"><path stroke-linecap="butt" transform="matrix(0.0307089, 0, 0, -0.0307079, 81.459298, 507.141071)" fill="none" stroke-linejoin="miter" d="M 12131.854359 14127.4652 C 12251.806215 14458.075454 12491.582725 14938.53522 12409.791586 15322.063469 C 12328.000448 15705.464511 11924.641661 15992.061242 11473.327573 16140.765893 C 11022.140687 16289.343337 10523.252904 16300.028701 11064.753488 16273.569704 C 11606.126871 16246.856294 13187.888621 16183.125729 14254.862289 16183.125729 C 15321.708754 16183.125729 15873.767138 16246.856294 15916.252737 16230.955454 C 15958.738336 16215.054615 15491.651151 16119.522371 15008.536464 15901.87168 C 14525.54898 15684.348196 14026.661197 15344.579058 13524.466151 14913.093877 C 13022.398308 14481.608697 12517.150406 13958.407474 12264.526454 13787.187235 C 12012.029705 13615.966995 12012.029705 13796.854945 12131.854359 14127.4652 Z M 12131.854359 14127.4652 " stroke="#ffffff" stroke-width="67.709" stroke-opacity="1" stroke-miterlimit="22.926001"/></g></svg>