<svg xmlns="http://www.w3.org/2000/svg" xmlns:xlink="http://www.w3.org/1999/xlink" width="500" zoomAndPan="magnify" viewBox="0 0 375 374.999991" height="500" preserveAspectRatio="xMidYMid meet" version="1.0"><defs><clipPath id="5ceb115b77"><path d="M 7 7.15625 L 155 7.15625 L 155 360 L 7 360 Z M 7 7.15625 " clip-rule="nonzero"/></clipPath><clipPath id="ce6b3d9fd5"><path d="M 2.113281 7.15625 L 202 7.15625 L 202 360.40625 L 2.113281 360.40625 Z M 2.113281 7.15625 " clip-rule="nonzero"/></clipPath><clipPath id="05b35cbbd3"><path d="M 2.113281 229 L 141 229 L 141 360.40625 L 2.113281 360.40625 Z M 2.113281 229 " clip-rule="nonzero"/></clipPath><clipPath id="718896c41b"><path d="M 2.113281 7.15625 L 160 7.15625 L 160 169 L 2.113281 169 Z M 2.113281 7.15625 " clip-rule="nonzero"/></clipPath><clipPath id="ba76a9f8b5"><path d="M 111 120 L 372.613281 120 L 372.613281 360.40625 L 111 360.40625 Z M 111 120 " clip-rule="nonzero"/></clipPath><clipPath id="23ce8e9f4a"><path d="M 98 124 L 369 124 L 369 360.40625 L 98 360.40625 Z M 98 124 " clip-rule="nonzero"/></clipPath><clipPath id="59b5c0b594"><path d="M 187 7.15625 L 372.613281 7.15625 L 372.613281 113 L 187 113 Z M 187 7.15625 " clip-rule="nonzero"/></clipPath></defs><path fill="#ffa987" d="M 41.207031 65.882812 C 40.179688 97.988281 41.550781 166.308594 42.125 216.921875 C 42.695312 267.535156 42.464844 300.4375 44.867188 318.261719 C 47.265625 336.082031 52.296875 338.824219 60.527344 340.195312 C 68.757812 341.566406 80.1875 341.566406 86.359375 334.027344 C 92.53125 326.488281 93.445312 311.40625 95.046875 282.15625 C 96.644531 252.910156 98.933594 209.496094 94.929688 174.304688 C 90.929688 139.117188 80.644531 112.15625 71.957031 91.476562 C 63.269531 70.796875 56.183594 56.402344 50.925781 47.148438 C 45.667969 37.890625 42.238281 33.78125 41.207031 65.882812 " fill-opacity="1" fill-rule="evenodd"/><g clip-path="url(#5ceb115b77)"><path fill="#ffa987" d="M 10.117188 9.558594 C 17.089844 10.242188 41.324219 10.703125 69.441406 10.246094 C 97.5625 9.789062 129.566406 8.417969 143.96875 8.074219 C 158.371094 7.730469 155.167969 8.417969 149.339844 9.332031 C 143.511719 10.242188 135.050781 11.386719 128.652344 13.671875 C 122.25 15.957031 117.90625 19.386719 115.164062 24.296875 C 112.421875 29.210938 111.277344 35.609375 110.589844 70.339844 C 109.90625 105.070312 109.675781 168.136719 109.789062 217.609375 C 109.90625 267.078125 110.363281 302.953125 111.621094 322.71875 C 112.875 342.480469 114.933594 346.136719 122.9375 349.570312 C 130.9375 353 144.882812 356.210938 150.367188 357.8125 C 155.855469 359.417969 152.882812 359.417969 144.765625 358.613281 C 136.652344 357.808594 123.394531 356.199219 110.363281 356.199219 C 97.332031 356.199219 84.53125 357.808594 80.871094 357.125 C 77.214844 356.4375 82.699219 353.457031 85.101562 316.09375 C 87.5 278.730469 86.816406 206.984375 85.558594 156.371094 C 84.300781 105.757812 82.472656 76.28125 76.527344 58.003906 C 70.585938 39.722656 60.527344 32.636719 51.039062 26.011719 C 41.550781 19.386719 32.636719 13.214844 23.035156 10.589844 C 13.433594 7.960938 3.144531 8.875 10.117188 9.558594 " fill-opacity="1" fill-rule="evenodd"/></g><g clip-path="url(#ce6b3d9fd5)"><path stroke-linecap="butt" transform="matrix(0.0216324, 0, 0, -0.0216222, 1.94578, 360.167525)" fill="none" stroke-linejoin="miter" d="M 377.739458 16215.425263 C 700.064284 16183.809868 1820.346201 16162.672718 3120.118805 16183.629208 C 4420.071984 16204.947018 5899.51585 16268.358467 6565.292676 16284.075835 C 7231.069502 16299.973862 7083.179287 16268.358467 6813.762682 16226.084167 C 6544.165502 16183.809868 6153.222506 16130.876664 5857.261503 16025.190914 C 5561.481074 15919.505165 5360.682639 15761.066871 5233.739024 15533.797346 C 5106.975983 15306.527821 5054.067762 15010.788383 5022.467289 13404.364997 C 4990.686242 11798.12227 4980.212942 8881.376255 4985.449592 6593.324952 C 4990.686242 4305.454308 5011.813415 2646.278377 5069.958286 1732.141813 C 5128.103157 818.005248 5223.265724 648.908049 5593.081547 490.108437 C 5962.89737 331.489483 6607.547023 182.987456 6861.253679 108.917102 C 7114.960334 34.666089 6977.54342 34.666089 6602.310373 71.881925 C 6227.2579 109.097762 5614.208721 183.529435 5011.813415 183.529435 C 4409.41811 183.529435 3817.676678 109.097762 3648.65929 140.713157 C 3479.461328 172.509211 3733.167984 310.352333 3844.040502 2038.359496 C 3955.093593 3766.366658 3923.312546 7084.71852 3865.167675 9425.522368 C 3807.203379 11766.326215 3722.514111 13129.582049 3447.860855 13975.068042 C 3173.027026 14820.554034 2708.048635 15148.089527 2269.434068 15454.668529 C 1830.8195 15761.066871 1418.74933 16046.328064 974.898113 16167.911841 C 531.046896 16289.314957 55.414631 16247.221317 377.739458 16215.425263 Z M 377.739458 16215.425263 " stroke="#ffffff" stroke-width="67.402" stroke-opacity="1" stroke-miterlimit="22.926001"/></g><g clip-path="url(#05b35cbbd3)"><path stroke-linecap="butt" transform="matrix(0.0171454, 0, 0, -0.0171373, 1.94578, 360.167525)" fill="none" stroke-linejoin="miter" d="M 2433.884779 2664.568874 C 2413.607874 2398.565274 2381.93945 1761.93455 2252.531788 1330.220053 C 2123.351956 898.733494 1896.660717 671.935223 1463.327314 491.636296 C 1029.99391 311.565307 390.018342 177.537786 570.004351 110.751964 C 749.99036 43.738203 1749.937946 43.738203 2736.899199 72.00251 C 3723.860453 100.266818 4697.835374 156.567494 5097.67771 270.308536 C 5497.747876 383.821641 5323.913288 554.547173 4990.369596 1299.904304 C 4656.598073 2045.261435 4163.345277 3365.250165 3763.27511 4118.585125 C 3363.432774 4871.920084 3056.773068 5058.601274 2856.965815 4731.282363 C 2657.158562 4403.963451 2564.431593 3562.872377 2513.625416 3194.524633 C 2462.819239 2826.176888 2454.161684 2930.572474 2433.884779 2664.568874 Z M 2433.884779 2664.568874 " stroke="#ffffff" stroke-width="85.039001" stroke-opacity="1" stroke-miterlimit="22.926001"/></g><g clip-path="url(#718896c41b)"><path stroke-linecap="butt" transform="matrix(0.0215347, 0, 0, -0.0215245, 1.94578, 360.167525)" fill="none" stroke-linejoin="miter" d="M 115.344624 16243.827157 C 314.333437 16198.820294 891.527971 16120.421244 1268.282542 15945.293734 C 1645.218508 15770.166225 1821.714511 15498.310258 1947.238903 14921.932051 C 2072.581902 14345.372365 2146.953291 13464.47192 2343.402593 12620.411769 C 2539.670502 11776.533098 2858.197718 10969.85768 3049.205212 11107.781936 C 3240.212705 11245.706192 3304.063263 12328.593081 3590.6652 13278.637133 C 3877.267137 14228.681186 4386.801846 15046.063881 4736.528767 15530.976529 C 5086.074294 16015.889176 5275.993425 16168.331775 4888.718023 16232.756921 C 4501.442621 16297.000587 3537.154079 16273.226801 2671.725065 16271.774967 C 1806.477446 16270.141653 1040.270748 16290.648812 567.74034 16295.367274 C 95.209931 16300.085735 -83.825583 16288.65254 115.344624 16243.827157 Z M 115.344624 16243.827157 " stroke="#ffffff" stroke-width="67.704002" stroke-opacity="1" stroke-miterlimit="22.926001"/></g><path fill="#ffa987" d="M 116.199219 203.679688 C 135.316406 182.539062 173.476562 146.890625 202.613281 117.984375 C 231.75 89.078125 251.867188 66.914062 264.667969 55.605469 C 277.472656 44.292969 282.960938 43.835938 275.988281 53.433594 C 269.015625 63.03125 249.582031 82.679688 221.460938 110.441406 C 193.34375 138.207031 156.539062 174.078125 134.339844 196.707031 C 112.136719 219.332031 104.539062 228.710938 100.777344 230.082031 C 97.015625 231.453125 97.085938 224.820312 116.199219 203.679688 " fill-opacity="1" fill-rule="evenodd"/><g clip-path="url(#ba76a9f8b5)"><path stroke-linecap="butt" transform="matrix(0.0227383, 0, 0, -0.0227275, 1.94578, 360.167525)" fill="none" stroke-linejoin="miter" d="M 7466.914452 8450.117139 C 7713.26404 8439.976631 8301.823096 8384.289775 8776.999498 8351.462029 C 9252.175899 8318.634284 9614.141437 8308.665649 10428.435053 7237.896782 C 11242.728669 6167.127914 12509.693948 4035.730687 13379.304557 2718.667793 C 14249.086957 1401.604898 14721.514688 898.876337 15234.313516 586.926819 C 15746.940552 275.149175 16299.938685 153.978701 16294.95672 93.479401 C 16289.802963 32.9801 15726.8409 32.9801 15058.226816 32.9801 C 14389.612733 32.9801 13615.518422 32.9801 13354.222939 138.682003 C 13092.755664 244.555778 13344.087217 456.131457 13072.656011 1295.731123 C 12801.224806 2135.502661 12007.030842 3603.298188 11247.882426 4744.363117 C 10488.734011 5885.59992 9764.974727 6699.934253 9201.840872 7187.537989 C 8638.878808 7675.141726 8236.713965 7836.014865 7821.492938 7990.013084 C 7406.27191 8143.83943 6977.994698 8290.618983 6907.560018 8356.102601 C 6837.29713 8421.414346 7124.704983 8405.258282 7220.564864 8414.883171 C 7316.424746 8424.679933 7220.564864 8460.085773 7466.914452 8450.117139 Z M 7466.914452 8450.117139 " stroke="#ffffff" stroke-width="64.124001" stroke-opacity="1" stroke-miterlimit="22.926001"/></g><path fill="#ffa987" d="M 158.921875 200.902344 C 174.144531 222.0625 204.546875 262.277344 224.550781 290.269531 C 244.550781 318.261719 254.152344 334.027344 266.707031 343.304688 C 279.257812 352.582031 294.761719 355.371094 305.953125 356.964844 C 317.148438 358.558594 324.035156 358.960938 320.96875 347.625 C 317.90625 336.292969 304.890625 313.222656 288.324219 287.179688 C 271.757812 261.136719 251.640625 232.117188 237.238281 213.835938 C 222.835938 195.558594 214.148438 188.019531 204.183594 182.1875 C 194.21875 176.359375 182.972656 172.238281 172.664062 171.414062 C 162.359375 170.589844 152.988281 173.0625 148.324219 175.347656 C 143.65625 177.636719 143.699219 179.742188 158.921875 200.902344 " fill-opacity="1" fill-rule="evenodd"/><g clip-path="url(#23ce8e9f4a)"><path stroke-linecap="butt" transform="matrix(0.0197601, 0, 0, -0.0197508, 1.94578, 360.167525)" fill="none" stroke-linejoin="miter" d="M 7944.090997 8063.74028 C 8714.464134 6992.382418 10253.035888 4956.268481 11265.373798 3538.998694 C 12277.514024 2121.728906 12763.420406 1323.501043 13398.775618 853.780732 C 14033.933147 384.060421 14818.539506 242.847663 15384.903128 162.154658 C 15951.464435 81.461653 16299.980688 61.090625 16144.799032 635.0394 C 15989.81506 1208.790399 15331.133179 2376.861201 14492.75687 3695.440279 C 13654.380562 5014.019358 12636.309827 6483.304489 11907.450254 7408.900723 C 11178.590681 8334.299179 10738.94227 8716.008737 10234.65131 9011.289757 C 9730.360349 9306.373001 9161.229156 9515.027707 8639.542035 9556.758649 C 8118.052598 9598.48959 7643.809551 9473.296766 7407.775287 9357.597237 C 7171.54334 9241.699931 7173.71786 9135.098142 7944.090997 8063.74028 Z M 7944.090997 8063.74028 " stroke="#ffffff" stroke-width="73.787003" stroke-opacity="1" stroke-miterlimit="22.926001"/></g><path fill="#e54b4b" d="M 263.527344 319.976562 C 261.699219 328.085938 259.640625 339.28125 253.355469 346.371094 C 247.066406 353.457031 236.554688 356.4375 245.464844 357.925781 C 254.382812 359.417969 282.730469 359.417969 304.8125 359.410156 C 326.890625 359.398438 342.703125 359.382812 342.628906 353.582031 C 342.554688 347.78125 326.59375 336.199219 311.601562 326.605469 C 296.605469 317.015625 282.582031 309.410156 274.769531 308.125 C 266.957031 306.835938 265.355469 311.863281 263.527344 319.976562 " fill-opacity="1" fill-rule="evenodd"/><path fill="#ffa987" d="M 263.191406 56.09375 C 265.773438 48.976562 270.9375 38.636719 269.175781 30.382812 C 267.414062 22.128906 258.726562 15.960938 249.011719 12.757812 C 239.296875 9.558594 228.550781 9.332031 240.210938 9.902344 C 251.871094 10.476562 285.933594 11.847656 308.90625 11.847656 C 331.878906 11.847656 343.769531 10.476562 344.683594 10.816406 C 345.597656 11.160156 335.539062 13.21875 325.136719 17.902344 C 314.734375 22.585938 303.992188 29.894531 293.179688 39.183594 C 282.367188 48.472656 271.488281 59.730469 266.050781 63.417969 C 260.609375 67.101562 260.609375 63.210938 263.191406 56.09375 " fill-opacity="1" fill-rule="evenodd"/><g clip-path="url(#59b5c0b594)"><path stroke-linecap="butt" transform="matrix(0.0215347, 0, 0, -0.0215245, 1.94578, 360.167525)" fill="none" stroke-linejoin="miter" d="M 12131.947102 14127.415745 C 12251.848292 14458.071001 12491.650672 14938.446666 12409.842145 15322.093873 C 12328.033617 15705.5596 11924.614182 15992.11539 11473.306828 16140.746923 C 11022.180868 16289.378457 10523.166989 16300.085735 11064.626978 16273.589759 C 11606.086966 16246.912305 13187.839428 16183.213076 14254.796766 16183.213076 C 15321.754103 16183.213076 15873.734922 16246.912305 15916.181032 16230.942128 C 15958.627141 16215.15343 15491.538542 16119.513847 15008.487302 15901.920186 C 14525.436063 15684.326524 14026.603578 15344.597304 13524.506007 14913.039566 C 13022.408437 14481.663308 12517.227174 13958.458532 12264.545846 13787.142087 C 12012.045912 13616.007122 12012.045912 13796.760489 12131.947102 14127.415745 Z M 12131.947102 14127.415745 " stroke="#ffffff" stroke-width="67.709" stroke-opacity="1" stroke-miterlimit="22.926001"/></g></svg>