<svg width="210" height="47" viewBox="0 0 210 47" fill="none" xmlns="http://www.w3.org/2000/svg">
<path d="M11.7252 16.2139C13.3658 14.9834 15.4166 14.3682 17.8775 14.3682C21.3639 14.3682 23.6417 15.811 24.711 18.6968C25.0626 19.6489 25.2384 20.8501 25.2384 22.3003C25.2384 23.7358 25.0699 25.1421 24.733 26.519C24.4107 27.8813 23.9566 29.1118 23.3707 30.2104C22.7848 31.3091 22.089 32.2759 21.2833 33.1108C20.4923 33.9458 19.628 34.6416 18.6905 35.1982C16.8155 36.3262 14.8233 36.9194 12.714 36.978C12.7433 37.769 12.7872 38.5454 12.8458 39.3071L13.0655 41.6362C13.1974 43.2183 13.6515 44.5586 14.4278 45.6572L15.1749 46.668H7.15488C7.56504 45.2617 7.79942 43.8555 7.85801 42.4492C7.93125 41.043 7.98252 39.8345 8.01182 38.8237C8.05576 37.8276 8.08506 36.7949 8.09971 35.7256C8.1583 33.2354 8.1876 31.0527 8.1876 29.1777C8.1876 23.1426 7.99717 19.4512 7.61631 18.1035C7.38194 17.2686 7.08164 16.6021 6.71543 16.104L5.79258 14.8076H11.7032C11.6153 15.1006 11.6227 15.5693 11.7252 16.2139ZM19.7452 22.8716C19.7452 18.6675 18.6832 16.5654 16.5592 16.5654C15.5045 16.5654 14.6256 17.0342 13.9225 17.9717C13.1607 18.9824 12.7799 20.3667 12.7799 22.1245L12.6261 32.5396V33.748C12.6261 34.1436 12.6334 34.5464 12.648 34.9565C14.7721 34.6343 16.4933 33.3599 17.8116 31.1333C19.1007 28.936 19.7452 26.1821 19.7452 22.8716ZM43.72 25.2666L43.6541 29.4854C43.6541 32.1074 43.8958 33.8945 44.3792 34.8467C44.6722 35.418 45.0164 35.8574 45.4119 36.165L46.4446 37H40.0726L39.3914 34.4512C37.7361 36.4434 35.3777 37.4395 32.3162 37.4395C30.573 37.4395 29.1668 36.8535 28.0975 35.6816C27.16 34.627 26.6912 33.3818 26.6912 31.9463C26.6912 30.5107 27.0281 29.2583 27.702 28.189C28.3904 27.1196 29.2913 26.2334 30.4046 25.5303C32.6019 24.168 35.3631 23.4575 38.6883 23.3989V23.1572C38.6883 19.5977 38.139 17.5103 37.0403 16.895C36.6448 16.6753 36.1321 16.5654 35.5022 16.5654C34.887 16.5654 34.2718 16.7705 33.6565 17.1807C33.0413 17.5908 32.4847 18.1182 31.9866 18.7627C30.9905 20.0664 30.2801 21.6045 29.8553 23.377C28.5516 22.6006 27.8997 21.1138 27.8997 18.9165C27.8997 18.0229 28.0169 17.0195 28.2513 15.9062C28.8079 15.9062 29.3353 15.8257 29.8333 15.6646L31.5252 15.1372C33.1805 14.6245 34.7991 14.3682 36.3812 14.3682C37.9632 14.3682 39.2229 14.6025 40.1604 15.0713C41.1126 15.54 41.8523 16.2358 42.3797 17.1587C43.2732 18.7261 43.72 21.4287 43.72 25.2666ZM31.4373 32.3857C31.4373 33.2939 31.6424 33.9971 32.0525 34.4951C32.4773 34.9932 33.0047 35.2422 33.6346 35.2422C34.2645 35.2422 34.8724 35.0811 35.4583 34.7588C36.0442 34.4219 36.5716 33.9678 37.0403 33.3965C38.139 32.0928 38.6883 30.562 38.6883 28.8042V25.5522C36.6375 25.7427 34.9456 26.4238 33.6126 27.5957C32.1624 28.8555 31.4373 30.4521 31.4373 32.3857ZM53.9839 8.89697C53.6909 9.38037 53.332 9.79053 52.9072 10.1274C52.4824 10.4497 51.999 10.6108 51.457 10.6108C50.915 10.6108 50.4316 10.4497 50.0068 10.1274C49.582 9.79053 49.2231 9.38037 48.9302 8.89697C48.3296 7.90088 48.0293 6.84619 48.0293 5.73291C48.0293 4.38525 48.6445 3.48438 49.875 3.03027C50.3145 2.86914 50.8491 2.78857 51.479 2.78857C53.2222 2.78857 54.3062 3.40381 54.731 4.63428C54.8628 4.98584 54.9287 5.38135 54.9287 5.8208C54.9287 6.24561 54.8481 6.74365 54.687 7.31494C54.5259 7.88623 54.2915 8.41357 53.9839 8.89697ZM48.0293 37C48.7031 34.6855 49.04 30.7085 49.04 25.0688C49.04 21.0991 48.6885 18.3672 47.9854 16.873C47.8096 16.4922 47.6118 16.1406 47.3921 15.8184L46.667 14.8076H54.4673C53.8228 17.2246 53.5005 20.9526 53.5005 25.9917C53.5005 31.0161 53.8374 34.6855 54.5112 37H48.0293ZM57.9636 37C58.6374 34.6855 58.9743 30.7085 58.9743 25.0688C58.9743 21.0552 58.6521 18.3159 58.0075 16.8511C57.7439 16.2505 57.2751 15.5693 56.6013 14.8076H64.4016C64.1379 15.7305 63.9255 16.9976 63.7644 18.6089C65.1413 16.8804 67.0603 15.6572 69.5212 14.9395C70.5759 14.6318 71.3449 14.1484 71.8283 13.4893C72.3117 14.6465 72.5534 15.6426 72.5534 16.4775C72.5534 17.3125 72.5095 18.0889 72.4216 18.8066C72.3337 19.5098 72.2019 20.1982 72.0261 20.8721C71.6452 22.3223 71.1398 23.4502 70.51 24.2559C69.968 21.3994 69.1257 19.7295 67.9831 19.2461C66.6647 18.6748 65.3757 19.4512 64.1159 21.5752C63.8522 22.0146 63.6325 22.4834 63.4567 22.9814C63.4421 23.3184 63.4348 23.6626 63.4348 24.0142C63.4348 24.3657 63.4348 24.7173 63.4348 25.0688C63.4348 30.7085 63.7717 34.6855 64.4455 37H57.9636ZM89.1454 25.2666L89.0795 29.4854C89.0795 32.1074 89.3212 33.8945 89.8046 34.8467C90.0976 35.418 90.4418 35.8574 90.8373 36.165L91.87 37H85.4979L84.8168 34.4512C83.1615 36.4434 80.8031 37.4395 77.7416 37.4395C75.9984 37.4395 74.5922 36.8535 73.5229 35.6816C72.5854 34.627 72.1166 33.3818 72.1166 31.9463C72.1166 30.5107 72.4535 29.2583 73.1273 28.189C73.8158 27.1196 74.7167 26.2334 75.83 25.5303C78.0272 24.168 80.7885 23.4575 84.1137 23.3989V23.1572C84.1137 19.5977 83.5644 17.5103 82.4657 16.895C82.0702 16.6753 81.5575 16.5654 80.9276 16.5654C80.3124 16.5654 79.6972 16.7705 79.0819 17.1807C78.4667 17.5908 77.9101 18.1182 77.412 18.7627C76.4159 20.0664 75.7055 21.6045 75.2807 23.377C73.977 22.6006 73.3251 21.1138 73.3251 18.9165C73.3251 18.0229 73.4423 17.0195 73.6767 15.9062C74.2333 15.9062 74.7606 15.8257 75.2587 15.6646L76.9506 15.1372C78.6059 14.6245 80.2245 14.3682 81.8065 14.3682C83.3886 14.3682 84.6483 14.6025 85.5858 15.0713C86.538 15.54 87.2777 16.2358 87.8051 17.1587C88.6986 18.7261 89.1454 21.4287 89.1454 25.2666ZM76.8627 32.3857C76.8627 33.2939 77.0678 33.9971 77.4779 34.4951C77.9027 34.9932 78.4301 35.2422 79.06 35.2422C79.6898 35.2422 80.2978 35.0811 80.8837 34.7588C81.4696 34.4219 81.997 33.9678 82.4657 33.3965C83.5644 32.0928 84.1137 30.562 84.1137 28.8042V25.5522C82.0629 25.7427 80.371 26.4238 79.038 27.5957C77.5878 28.8555 76.8627 30.4521 76.8627 32.3857ZM93.235 37C93.9088 34.6855 94.2457 30.7085 94.2457 25.0688C94.2457 21.0552 93.8941 18.3159 93.191 16.8511C93.0152 16.4849 92.8175 16.1406 92.5978 15.8184L91.8727 14.8076H99.4972C99.2774 15.6719 99.131 16.3604 99.0577 16.873L98.9039 18.1914C100.603 15.6426 102.764 14.3682 105.386 14.3682C108.023 14.3682 109.729 15.7964 110.505 18.6528C111.663 16.6753 113.193 15.3643 115.098 14.7197C115.772 14.4854 116.526 14.3682 117.361 14.3682C118.211 14.3682 118.972 14.5513 119.646 14.9175C120.335 15.269 120.913 15.7744 121.382 16.4336C122.305 17.7666 122.766 19.5903 122.766 21.9048V24.2559C122.766 28.7383 122.825 31.5508 122.942 32.6934C123.074 33.8213 123.169 34.5684 123.228 34.9346C123.316 35.5791 123.462 36.2676 123.667 37H117.185C117.83 34.7881 118.152 30.811 118.152 25.0688C118.152 22.7397 118.035 21.1797 117.8 20.3887C117.566 19.583 117.258 19.0044 116.878 18.6528C116.511 18.2866 116.006 18.1035 115.361 18.1035C113.472 18.1035 111.97 19.2168 110.857 21.4434V24.2559C110.857 28.7383 110.916 31.5508 111.033 32.6934C111.165 33.8213 111.26 34.5684 111.318 34.9346C111.406 35.5791 111.553 36.2676 111.758 37H105.276C105.935 34.7441 106.265 30.7671 106.265 25.0688C106.265 22.6812 106.148 21.1064 105.913 20.3447C105.679 19.5684 105.379 19.0044 105.012 18.6528C104.646 18.2866 104.141 18.1035 103.496 18.1035C102.866 18.1035 102.295 18.228 101.782 18.4771C101.27 18.7261 100.808 19.0557 100.398 19.4658C99.6217 20.2275 99.0138 21.209 98.5743 22.4102C98.545 22.835 98.5304 23.2744 98.5304 23.7285V25.0688C98.5304 30.7085 98.8673 34.6855 99.5411 37H93.235ZM110.132 23.377L110.044 23.7725L110.132 23.377ZM136.04 16.5654C134.722 16.5654 133.77 17.2246 133.184 18.543C132.613 19.8613 132.327 22.0806 132.327 25.2007C132.327 31.895 133.565 35.2422 136.04 35.2422C137.359 35.2422 138.304 34.3486 138.875 32.5615C139.461 30.7744 139.754 28.3208 139.754 25.2007C139.754 22.0806 139.461 19.8613 138.875 18.543C138.304 17.2246 137.359 16.5654 136.04 16.5654ZM126.79 24.3657C126.79 17.7007 129.873 14.3682 136.04 14.3682C142.207 14.3682 145.291 17.7007 145.291 24.3657C145.291 28.4087 144.441 31.6094 142.742 33.9678C141.087 36.2822 138.853 37.4395 136.04 37.4395C133.228 37.4395 130.994 36.2822 129.339 33.9678C127.639 31.6094 126.79 28.4087 126.79 24.3657ZM165.882 16.873L165.552 26.6948C165.552 30.6938 165.904 33.4404 166.607 34.9346C166.856 35.4766 167.295 36.165 167.925 37H161.817C161.48 36.0039 161.26 34.7441 161.158 33.2207C159.458 36.0332 157.269 37.4395 154.588 37.4395C152.742 37.4395 151.329 36.751 150.347 35.374C149.38 34.041 148.897 32.21 148.897 29.8809V26.9146C148.897 26.2554 148.897 25.5815 148.897 24.8931L148.853 22.8936C148.838 21.6191 148.794 20.6304 148.721 19.9272C148.663 19.2095 148.589 18.6162 148.501 18.1475C148.428 17.6641 148.333 17.2393 148.216 16.873C148.099 16.4922 147.967 16.1406 147.82 15.8184L147.337 14.8076H153.687C153.702 15.042 153.709 15.2617 153.709 15.4668V16.104C153.709 16.104 153.584 19.7808 153.335 27.1343C153.335 29.2876 153.475 30.7524 153.753 31.5288C154.031 32.3052 154.361 32.8618 154.742 33.1987C155.137 33.5356 155.657 33.7041 156.302 33.7041C158.045 33.7041 159.458 32.752 160.542 30.8477C160.835 30.3057 161.077 29.7563 161.268 29.1997C161.297 28.3794 161.312 27.4492 161.312 26.4092C161.312 21.0625 160.916 17.5322 160.125 15.8184L159.642 14.8076H165.904C165.889 15.1738 165.882 15.5107 165.882 15.8184V16.873ZM169.883 37C170.557 34.6855 170.894 30.7085 170.894 25.0688C170.894 21.0552 170.543 18.3159 169.84 16.8511C169.664 16.4849 169.466 16.1406 169.246 15.8184L168.521 14.8076H176.146C175.926 15.54 175.779 16.2285 175.706 16.873L175.53 18.4551C177.303 15.7305 179.559 14.3682 182.298 14.3682C184.07 14.3682 185.455 15.0566 186.451 16.4336C187.418 17.7812 187.901 19.605 187.901 21.9048V24.2559C187.901 28.2842 187.938 30.7451 188.011 31.6387C188.084 32.5322 188.143 33.2134 188.187 33.6821C188.231 34.1509 188.282 34.5684 188.341 34.9346C188.443 35.623 188.597 36.3115 188.802 37H182.364C183.038 34.6855 183.375 30.7085 183.375 25.0688C183.375 22.813 183.228 21.2676 182.935 20.4326C182.657 19.5977 182.32 19.0044 181.924 18.6528C181.529 18.2866 181.009 18.1035 180.364 18.1035C179.178 18.1035 178.101 18.5723 177.134 19.5098C176.299 20.3154 175.662 21.3408 175.223 22.5859C175.194 22.9814 175.179 23.3916 175.179 23.8164V25.0688C175.179 30.7085 175.516 34.6855 176.19 37H169.883ZM198.121 6.01855C197.813 7.14648 197.66 8.50146 197.66 10.0835C197.66 11.6509 197.689 12.6543 197.747 13.0938C197.821 13.5332 197.931 13.8848 198.077 14.1484C198.355 14.5879 198.897 14.8076 199.703 14.8076H205.592C205.592 15.6279 205.394 16.2578 204.998 16.6973C204.281 17.4883 203.402 17.8838 202.362 17.8838C201.849 17.8838 201.395 17.8105 200.999 17.6641C200.282 17.3711 199.725 17.2246 199.329 17.2246C198.934 17.2246 198.612 17.3052 198.363 17.4663C198.114 17.6128 197.916 17.8325 197.769 18.1255C197.506 18.6528 197.374 19.8027 197.374 21.5752C197.374 23.3477 197.425 25.1641 197.528 27.0244C197.645 28.8848 197.923 30.4448 198.363 31.7046C198.802 32.9497 199.469 33.8872 200.362 34.5171C201.256 35.147 202.486 35.4619 204.054 35.4619C204.054 35.916 203.746 36.458 203.131 37.0879C202.97 37.2637 202.83 37.3809 202.713 37.4395C200.121 37.4395 198.18 37.1318 196.891 36.5166C195.411 35.7842 194.356 34.4805 193.726 32.6055C193.097 30.7012 192.782 27.8813 192.782 24.146C192.782 20.8794 192.694 18.9531 192.518 18.3672C192.342 17.7666 192.181 17.3711 192.035 17.1807C191.859 16.9609 191.434 16.6899 190.76 16.3677C191.668 15.6792 192.569 14.3975 193.463 12.5225L194.561 10.2153C195.338 8.45752 195.997 7.32227 196.539 6.80957C197.096 6.28223 197.623 6.01855 198.121 6.01855Z" fill="#1E1E24"/>
</svg>
